<?xml version="1.0" encoding="UTF-8"?>
<svg width="608px" height="219px" viewBox="0 0 608 219" version="1.1" xmlns="http://www.w3.org/2000/svg" xmlns:xlink="http://www.w3.org/1999/xlink">
    <!-- Generator: Sketch 60.1 (88133) - https://sketch.com -->
    <title>Group 2</title>
    <desc>Created with Sketch.</desc>
    <g id="UI-keyscreens" stroke="none" stroke-width="1" fill="none" fill-rule="evenodd">
        <g id="About" transform="translate(-700.000000, -1407.000000)">
            <g id="Group-2" transform="translate(700.000000, 1409.000000)">
                <circle id="Oval" fill="#FFD113" cx="85" cy="85" r="85"></circle>
                <circle id="Oval-Copy" fill="#FFD113" cx="395" cy="85" r="53"></circle>
                <text id="all-Applicants-Copy" font-family="Cabin-Bold, Cabin" font-size="12" font-weight="bold" letter-spacing="1" fill="#000000">
                    <tspan x="33" y="216">ALL APPLICANTS</tspan>
                </text>
                <text id="selected-Applicants" font-family="Cabin-Bold, Cabin" font-size="12" font-weight="bold" letter-spacing="1" fill="#000000">
                    <tspan x="342" y="216">SELECTED APPLICANTS</tspan>
                </text>
                <text id="innovation-fund" font-family="Cabin-Bold, Cabin" font-size="12" font-weight="bold" letter-spacing="1" fill="#000000">
                    <tspan x="186" y="216">INNOVATION FUND</tspan>
                </text>
                <text id="cryptofund" font-family="Cabin-Bold, Cabin" font-size="12" font-weight="bold" letter-spacing="1" fill="#000000">
                    <tspan x="522" y="216">CRYPTOFUND</tspan>
                </text>
                <line x1="565" y1="0" x2="565" y2="170" id="Line-9-Copy" stroke="#0068EA" stroke-width="4" stroke-linecap="square" stroke-dasharray="4,9"></line>
                <path id="Line-5" d="M188.976726,78.8985258 L202.983551,85.8848599 L188.990389,92.8985192 L188.984,86.898 L85.0009759,86.9999995 C84.4486914,87.0005385 84.0005395,86.5532604 84.0000005,86.0009759 C83.9995,85.4881403 84.3851275,85.0650924 84.8824096,85.006842 L84.9990241,85.0000005 L188.982,84.898 L188.976726,78.8985258 Z" fill="#000000" fill-rule="nonzero"></path>
                <path id="Line-5-Copy" d="M478.953594,78.6022112 L492.986597,85.5358118 L479.019915,92.6020542 L478.991,86.602 L395.004737,86.9999888 C394.452459,87.0026051 394.002628,86.5570158 394.000011,86.0047372 C393.997582,85.4919071 394.381615,85.0674118 394.878675,85.0072913 L394.995263,85.0000112 L478.981,84.602 L478.953594,78.6022112 Z" fill="#000000" fill-rule="nonzero"></path>
                <line x1="246" y1="0" x2="246" y2="170" id="Line-9" stroke="#0068EA" stroke-width="4" stroke-linecap="square" stroke-dasharray="4,9"></line>
            </g>
        </g>
    </g>
</svg>