<?xml version="1.0" encoding="UTF-8"?>
<svg width="35px" height="35px" viewBox="0 0 35 35" version="1.1" xmlns="http://www.w3.org/2000/svg" xmlns:xlink="http://www.w3.org/1999/xlink">
    <!-- Generator: Sketch 60.1 (88133) - https://sketch.com -->
    <title>Icon/big cross/black</title>
    <desc>Created with Sketch.</desc>
    <g id="Icon/big-cross/black" stroke="none" stroke-width="1" fill="none" fill-rule="evenodd">
        <g id="noun_cancel_2419034-copy" transform="translate(7.000000, 7.000000)" fill="#000000" fill-rule="nonzero">
            <path d="M0.36603025,0.369029912 C-0.122010083,0.856949265 -0.122010083,1.66263428 0.36603025,2.15019005 L9.21803455,11 L0.36603025,19.8498099 C-0.122010083,20.3377293 -0.122010083,21.1434143 0.36603025,21.6309701 C0.602413423,21.8672947 0.932622531,22 1.25701298,22 C1.58140342,22 1.91124886,21.8676582 2.1479957,21.6309701 L11,12.7815237 L19.8520043,21.6309701 C20.0883875,21.8672947 20.4185966,22 20.742987,22 C21.0619225,22 21.3819489,21.8829284 21.6339697,21.6309701 C22.1220101,21.1430507 22.1220101,20.3373657 21.6339697,19.8498099 L12.7823291,11 L21.6339697,2.15019005 C22.1220101,1.6622707 22.1220101,0.856585688 21.6339697,0.369029912 C21.1459294,-0.118525863 20.3400446,-0.11888944 19.852368,0.369029912 L11.0003637,9.21883986 L2.14835937,0.369029912 C1.9043392,0.125070236 1.57885776,0 1.25737664,0 C0.935895529,0 0.610414084,0.12470666 0.36603025,0.369029912 Z" id="Path"></path>
        </g>
    </g>
</svg>