<?xml version="1.0" encoding="UTF-8"?>
<svg width="35px" height="35px" viewBox="0 0 35 35" version="1.1" xmlns="http://www.w3.org/2000/svg" xmlns:xlink="http://www.w3.org/1999/xlink">
    <!-- Generator: Sketch 60.1 (88133) - https://sketch.com -->
    <title>Icon/big cross/blue</title>
    <desc>Created with Sketch.</desc>
    <g id="Icon/big-cross/blue" stroke="none" stroke-width="1" fill="none" fill-rule="evenodd">
        <g id="noun_cancel_2419034-copy" transform="translate(9.000000, 9.000000)" fill="#0068EA" fill-rule="nonzero">
            <path d="M0.299479296,0.301933565 C-0.0998264319,0.701140307 -0.0998264319,1.36033713 0.299479296,1.75924641 L7.54202827,9 L0.299479296,16.2407536 C-0.0998264319,16.6399603 -0.0998264319,17.2991572 0.299479296,17.6980664 C0.492883709,17.8914229 0.763054798,18 1.02846516,18 C1.29387553,18 1.56374907,17.8917204 1.75745103,17.6980664 L9,10.4576103 L16.242549,17.6980664 C16.4359534,17.8914229 16.7061245,18 16.9715348,18 C17.232482,18 17.4943218,17.9042142 17.7005207,17.6980664 C18.0998264,17.2988597 18.0998264,16.6396629 17.7005207,16.2407536 L10.4582693,9 L17.7005207,1.75924641 C18.0998264,1.36003966 18.0998264,0.700842836 17.7005207,0.301933565 C17.301215,-0.0969757065 16.6418547,-0.097273178 16.2428465,0.301933565 L9.00029755,7.54268716 L1.75774857,0.301933565 C1.55809571,0.102330193 1.29179271,0 1.02876271,0 C0.765732705,0 0.499429705,0.102032722 0.299479296,0.301933565 Z" id="Path"></path>
        </g>
    </g>
</svg>