<?xml version="1.0" encoding="utf-8"?>
<!-- Generator: Adobe Illustrator 23.0.4, SVG Export Plug-In . SVG Version: 6.00 Build 0)  -->
<svg version="1.1" id="Layer_1" xmlns="http://www.w3.org/2000/svg" xmlns:xlink="http://www.w3.org/1999/xlink" x="0px" y="0px"
	 viewBox="0 0 235 117.5" style="enable-background:new 0 0 235 117.5;" xml:space="preserve">
<style type="text/css">
	.st0{clip-path:url(#SVGID_2_);fill:#FFD00F;}
	.st1{clip-path:url(#SVGID_4_);fill:none;stroke:#3B69B1;stroke-width:6;stroke-miterlimit:10;}
	.st2{clip-path:url(#SVGID_6_);enable-background:new    ;}
	.st3{clip-path:url(#SVGID_8_);}
	.st4{clip-path:url(#SVGID_10_);}
	.st5{clip-path:url(#SVGID_12_);fill:none;stroke:#3B69B1;stroke-width:6;stroke-miterlimit:10;}
	.st6{clip-path:url(#SVGID_14_);}
	.st7{clip-path:url(#SVGID_16_);fill:#62CAE6;}
	.st8{clip-path:url(#SVGID_18_);}
	.st9{clip-path:url(#SVGID_20_);fill:none;stroke:#3B69B1;stroke-width:6;stroke-miterlimit:10;}
	.st10{fill:none;stroke:#3B69B1;stroke-width:3;stroke-linecap:square;stroke-miterlimit:10;}
	.st11{clip-path:url(#SVGID_22_);fill:#3B69B1;}
	.st12{fill:#13E7FF;}
	.st13{fill:#FFD113;}
	.st14{fill:none;stroke:#0068EA;stroke-width:3;stroke-miterlimit:10;}
</style>
<path class="st12" d="M117.5,0C52.6,0,0,52.6,0,117.5h47.3c0-38.8,31.4-70.2,70.2-70.2c38.8,0,70.2,31.4,70.2,70.2H235
	C235,52.6,182.4,0,117.5,0z"/>
<path class="st13" d="M175.9,15.5l-23.6,40.9c21.2,12.1,35.5,34.9,35.5,61H235C235,73.9,211.2,35.8,175.9,15.5z"/>
<path class="st13" d="M58.4,15.9L82,56.9c21.1-12.3,47.9-13.3,70.6-0.2l23.6-40.9C138.4-6.1,93.6-4.5,58.4,15.9z"/>
<line class="st14" x1="152.6" y1="56.7" x2="176.2" y2="15.7"/>
<line class="st14" x1="82.4" y1="56.7" x2="58.7" y2="15.7"/>
</svg>
