<?xml version="1.0" encoding="UTF-8"?>
<svg width="238px" height="121px" viewBox="0 0 238 121" version="1.1" xmlns="http://www.w3.org/2000/svg" xmlns:xlink="http://www.w3.org/1999/xlink">
    <!-- Generator: Sketch 60.1 (88133) - https://sketch.com -->
    <title>Invest_desktop</title>
    <desc>Created with Sketch.</desc>
    <g id="UI-keyscreens" stroke="none" stroke-width="1" fill="none" fill-rule="evenodd">
        <g id="Landing-page/udpdate/150620" transform="translate(-846.000000, -494.000000)" fill-rule="nonzero" stroke="#0068EA" stroke-width="3">
            <g id="Invest_desktop" transform="translate(848.000000, 495.000000)">
                <path d="M227.27395,77.9394958 L189.791597,91.5243697 C192.766387,99.7546218 194.452101,108.678992 194.452101,118 L234.314286,118 C234.314286,103.919328 232.132773,91.1277311 227.27395,77.9394958 Z" id="Path" fill="#FFD113"></path>
                <path d="M189.791597,91.5243697 L227.27395,77.9394958 C222.415126,64.6521008 215.969748,53.5462185 206.946218,42.7378151 L176.405042,68.3210084 C182.156303,75.1630252 186.717647,82.9966387 189.791597,91.5243697 Z" id="Path" fill="#FFD113"></path>
                <path d="M176.405042,68.3210084 L206.946218,42.6386555 C197.922689,31.8302521 188.006723,23.5008403 175.810084,16.4605042 L155.878992,50.9680672 C163.613445,55.5294118 170.653782,61.3798319 176.405042,68.3210084 Z" id="Path" fill="#FFD113"></path>
                <path d="M155.878992,51.0672269 L175.810084,16.5596639 C163.514286,9.42016807 153.4,5.65210084 139.517647,2.97478992 L131.882353,42.1428571 C140.509244,43.7294118 148.541176,46.8033613 155.878992,51.0672269 Z" id="Path" fill="#FFD113"></path>
                <path d="M117.206723,40.6554622 C122.263866,40.6554622 127.221849,41.1512605 131.981513,42.0436975 L139.517647,2.97478992 C125.635294,0.297478992 112.744538,0.0991596639 98.8621849,2.28067227 L105.109244,41.6470588 C109.07563,41.0521008 113.042017,40.6554622 117.206723,40.6554622 Z" id="Path" fill="#FFD113"></path>
                <path d="M105.109244,41.6470588 L98.8621849,2.28067227 C84.9798319,4.46218487 72.6840336,8.72605042 60.3882353,15.5680672 L79.7243697,50.4722689 C87.4588235,46.1092437 95.9865546,43.0352941 105.109244,41.6470588 Z" id="Path" fill="#FFD113"></path>
                <path d="M79.7243697,50.3731092 L60.3882353,15.4689076 C48.092437,22.3109244 39.5647059,29.0537815 30.1445378,39.5647059 L59.7932773,66.2386555 C65.4453782,59.892437 72.1882353,54.5378151 79.7243697,50.3731092 Z" id="Path" fill="#FFD113"></path>
                <path d="M59.7932773,66.2386555 L30.1445378,39.5647059 C20.7243697,50.0756303 13.8823529,60.9831933 8.52773109,74.0722689 L45.5142857,89.0453782 C48.9848739,80.6168067 53.7445378,72.8823529 59.7932773,66.2386555 Z" id="Path" fill="#FFD113"></path>
                <path d="M45.5142857,89.0453782 L8.52773109,74.0722689 C6.44537815,79.3277311 4.85882353,84.1865546 3.5697479,89.6403361 L42.2420168,99.2588235 C43.0352941,95.7882353 44.2252101,92.3176471 45.5142857,89.0453782 Z" id="Path" fill="#FFD113"></path>
                <path d="M42.2420168,99.2588235 L3.5697479,89.6403361 C2.18151261,95.0941176 1.28907563,100.151261 0.694117647,105.704202 L40.3579832,109.868908 C40.7546218,106.29916 41.3495798,102.729412 42.2420168,99.2588235 Z" id="Path" fill="#FFD113"></path>
                <path d="M0.694117647,105.704202 C0.198319328,110.364706 0,113.339496 0,118 L39.8621849,118 C39.8621849,115.223529 39.9613445,112.546218 40.2588235,109.968067 L0.694117647,105.704202 Z" id="Path" fill="#13E7FF"></path>
            </g>
        </g>
    </g>
</svg>