<svg xmlns="http://www.w3.org/2000/svg" viewBox="0 0 870 740"><defs><style>.cls-1{isolation:isolate;}.cls-2{fill:#cceffc;}.cls-12,.cls-18,.cls-3{fill:#fff;}.cls-4{fill:#e0f5fd;}.cls-14,.cls-5,.cls-7,.cls-8,.cls-9{fill:#00aeef;}.cls-11,.cls-12,.cls-13,.cls-15,.cls-18,.cls-5{stroke:#00aeef;}.cls-10,.cls-11,.cls-13,.cls-18,.cls-19,.cls-5{stroke-miterlimit:10;}.cls-10,.cls-11,.cls-12,.cls-13,.cls-15,.cls-18,.cls-19,.cls-5{stroke-width:2px;}.cls-6{fill:#c2ecfb;}.cls-7{font-size:36.79px;}.cls-7,.cls-8,.cls-9{font-family:Roboto-Bold, Roboto;font-weight:700;}.cls-8{font-size:17.17px;}.cls-9{font-size:12.26px;}.cls-10,.cls-13,.cls-15,.cls-19{fill:none;}.cls-10{stroke:#fff;}.cls-11{fill:#b5e8fa;}.cls-12,.cls-15{stroke-linejoin:round;}.cls-16,.cls-17{fill:#99dff9;}.cls-16{opacity:0.5;}.cls-17{mix-blend-mode:multiply;}.cls-19{stroke:#99dff9;}</style></defs><title>Accounts2</title><g class="cls-1"><g id="Layer_1" data-name="Layer 1"><rect class="cls-2" width="870" height="740"/><rect class="cls-3" x="64.29" y="112.5" width="753.59" height="504.26"/><rect class="cls-4" x="187.92" y="166.93" width="630.53" height="449.67"/><rect class="cls-5" x="64.29" y="112.5" width="753.59" height="28.3"/><rect class="cls-3" x="263.55" y="503.51" width="230.66" height="92.43"/><rect class="cls-6" x="263.55" y="199.46" width="474.22" height="60.47"/><rect class="cls-3" x="510.28" y="503.51" width="230.66" height="92.43"/><text class="cls-7" transform="translate(263.55 326.04)">Accounts</text><text class="cls-8" transform="translate(263.55 369.73)">ETH</text><text class="cls-8" transform="translate(263.55 468.81)">STARTUP ACCOUNTS</text><text class="cls-8" transform="translate(387.02 369.73)">BTC</text><text class="cls-9" transform="translate(263.55 405.09)">Disbursal value<tspan x="0" y="14.72">Current value</tspan></text><text class="cls-9" transform="translate(387.02 405.09)">Disbursal value<tspan x="0" y="14.72">Current value</tspan></text><line class="cls-10" x1="264.33" y1="382.12" x2="327.94" y2="382.12"/><line class="cls-10" x1="387.02" y1="382.12" x2="450.63" y2="382.12"/><path class="cls-11" d="M336.55,503.05h-6.62l0-11a1.64,1.64,0,0,0-1.64-1.65l-46.16-.1v33.83l46.09.1a1.65,1.65,0,0,0,1.65-1.64l0-10.79h6.62a1.65,1.65,0,0,0,1.65-1.64V504.7A1.64,1.64,0,0,0,336.55,503.05Z"/><line class="cls-10" x1="285.3" y1="496.41" x2="325.35" y2="496.41"/><path class="cls-3" d="M285.3,503h40.05v18.26h-39.8S284.7,502.39,285.3,503Z"/><path class="cls-12" d="M320.8,500.6l-38.65-10.28v33.83L320,534.2a1.65,1.65,0,0,0,2.07-1.59V502.19A1.64,1.64,0,0,0,320.8,500.6Z"/><path class="cls-11" d="M584.44,503.05h-6.62l0-11a1.65,1.65,0,0,0-1.64-1.65l-46.16-.1v33.83l46.08.1a1.64,1.64,0,0,0,1.65-1.64l0-10.79h6.62a1.65,1.65,0,0,0,1.65-1.64V504.7A1.64,1.64,0,0,0,584.44,503.05Z"/><line class="cls-10" x1="533.19" y1="496.41" x2="573.24" y2="496.41"/><path class="cls-3" d="M533.19,503h40v18.26h-39.8S532.59,502.39,533.19,503Z"/><path class="cls-12" d="M568.69,500.6l-38.64-10.28v33.83l37.79,10.05a1.64,1.64,0,0,0,2.07-1.59V502.19A1.64,1.64,0,0,0,568.69,500.6Z"/><rect class="cls-13" x="64.29" y="112.5" width="753.59" height="504.26"/><rect class="cls-14" x="82.98" y="166.93" width="85.01" height="9.42"/><line class="cls-15" x1="510.28" y1="368.55" x2="714.17" y2="368.55"/><line class="cls-15" x1="510.28" y1="382.29" x2="714.17" y2="382.29"/><line class="cls-15" x1="510.28" y1="355.04" x2="714.17" y2="355.04"/><rect class="cls-16" x="64.29" y="112.5" width="753.59" height="504.26"/><rect class="cls-17" x="140.81" y="270.25" width="578.61" height="246.09"/><rect class="cls-18" x="161.34" y="249.73" width="578.61" height="246.09"/><line class="cls-19" x1="278.29" y1="316.24" x2="607.34" y2="316.24"/><line class="cls-19" x1="278.29" y1="447.21" x2="607.34" y2="447.21"/><line class="cls-19" x1="278.29" y1="403.56" x2="607.34" y2="403.56"/><line class="cls-19" x1="278.29" y1="359.9" x2="607.34" y2="359.9"/><rect class="cls-2" x="290.89" y="330.67" width="7.76" height="14.81"/><rect class="cls-2" x="302.73" y="330.67" width="7.76" height="14.81"/><rect class="cls-2" x="314.58" y="330.67" width="7.76" height="14.81"/><rect class="cls-2" x="326.43" y="330.67" width="7.76" height="14.81"/><rect class="cls-2" x="338.27" y="330.67" width="7.76" height="14.81"/><rect class="cls-2" x="350.12" y="330.67" width="7.76" height="14.81"/><rect class="cls-2" x="361.96" y="330.67" width="7.76" height="14.81"/><rect class="cls-2" x="373.81" y="330.67" width="7.76" height="14.81"/><rect class="cls-2" x="410.81" y="330.67" width="7.76" height="14.81"/><rect class="cls-2" x="422.65" y="330.67" width="7.76" height="14.81"/><rect class="cls-2" x="434.5" y="330.67" width="7.76" height="14.81"/><rect class="cls-2" x="472.5" y="330.67" width="7.76" height="14.81"/><rect class="cls-2" x="484.34" y="330.67" width="7.76" height="14.81"/><rect class="cls-2" x="496.19" y="330.67" width="7.76" height="14.81"/><rect class="cls-2" x="508.03" y="330.67" width="7.76" height="14.81"/><rect class="cls-2" x="541.56" y="330.67" width="7.76" height="14.81"/><rect class="cls-2" x="553.41" y="330.67" width="7.76" height="14.81"/><rect class="cls-2" x="565.25" y="330.67" width="7.76" height="14.81"/><rect class="cls-2" x="577.1" y="330.67" width="7.76" height="14.81"/><rect class="cls-2" x="290.89" y="374.33" width="7.76" height="14.81"/><rect class="cls-2" x="302.73" y="374.33" width="7.76" height="14.81"/><rect class="cls-2" x="314.58" y="374.33" width="7.76" height="14.81"/><rect class="cls-2" x="326.43" y="374.33" width="7.76" height="14.81"/><rect class="cls-2" x="338.27" y="374.33" width="7.76" height="14.81"/><rect class="cls-2" x="350.12" y="374.33" width="7.76" height="14.81"/><rect class="cls-2" x="361.96" y="374.33" width="7.76" height="14.81"/><rect class="cls-2" x="373.81" y="374.33" width="7.76" height="14.81"/><rect class="cls-2" x="410.81" y="374.33" width="7.76" height="14.81"/><rect class="cls-2" x="422.65" y="374.33" width="7.76" height="14.81"/><rect class="cls-2" x="434.5" y="374.33" width="7.76" height="14.81"/><rect class="cls-2" x="472.5" y="374.33" width="7.76" height="14.81"/><rect class="cls-2" x="484.34" y="374.33" width="7.76" height="14.81"/><rect class="cls-2" x="496.19" y="374.33" width="7.76" height="14.81"/><rect class="cls-2" x="508.03" y="374.33" width="7.76" height="14.81"/><rect class="cls-2" x="541.56" y="374.33" width="7.76" height="14.81"/><rect class="cls-2" x="553.41" y="374.33" width="7.76" height="14.81"/><rect class="cls-2" x="565.25" y="374.33" width="7.76" height="14.81"/><rect class="cls-2" x="577.1" y="374.33" width="7.76" height="14.81"/><rect class="cls-2" x="290.89" y="417.98" width="7.76" height="14.81"/><rect class="cls-2" x="302.73" y="417.98" width="7.76" height="14.81"/><rect class="cls-2" x="314.58" y="417.98" width="7.76" height="14.81"/><rect class="cls-2" x="326.43" y="417.98" width="7.76" height="14.81"/><rect class="cls-2" x="338.27" y="417.98" width="7.76" height="14.81"/><rect class="cls-2" x="350.12" y="417.98" width="7.76" height="14.81"/><rect class="cls-2" x="361.96" y="417.98" width="7.76" height="14.81"/><rect class="cls-2" x="373.81" y="417.98" width="7.76" height="14.81"/><rect class="cls-2" x="410.81" y="417.98" width="7.76" height="14.81"/><rect class="cls-2" x="422.65" y="417.98" width="7.76" height="14.81"/><rect class="cls-2" x="434.5" y="417.98" width="7.76" height="14.81"/><rect class="cls-2" x="472.5" y="417.98" width="7.76" height="14.81"/><rect class="cls-2" x="484.34" y="417.98" width="7.76" height="14.81"/><rect class="cls-2" x="496.19" y="417.98" width="7.76" height="14.81"/><rect class="cls-2" x="508.03" y="417.98" width="7.76" height="14.81"/><rect class="cls-2" x="541.56" y="417.98" width="7.76" height="14.81"/><rect class="cls-2" x="553.41" y="417.98" width="7.76" height="14.81"/><rect class="cls-2" x="565.25" y="417.98" width="7.76" height="14.81"/><rect class="cls-2" x="577.1" y="417.98" width="7.76" height="14.81"/><rect class="cls-18" x="684.77" y="249.73" width="55.17" height="55.17"/><line class="cls-18" x1="699.65" y1="264.6" x2="725.06" y2="290.02"/><line class="cls-18" x1="725.06" y1="264.6" x2="699.65" y2="290.02"/></g></g></svg>