<svg id="Layer_1" data-name="Layer 1" xmlns="http://www.w3.org/2000/svg" xmlns:xlink="http://www.w3.org/1999/xlink" viewBox="0 0 870 740"><defs><style>.cls-1,.cls-9{fill:none;}.cls-2{clip-path:url(#clip-path);}.cls-12,.cls-3{fill:#cceffc;}.cls-13,.cls-4{fill:#99dff9;}.cls-5,.cls-6{fill:#fff;}.cls-11,.cls-12,.cls-13,.cls-5,.cls-7,.cls-9{stroke:#00aeef;stroke-width:2px;}.cls-11,.cls-12,.cls-13,.cls-5{stroke-miterlimit:10;}.cls-10,.cls-7{fill:#00aeef;}.cls-7,.cls-9{stroke-linejoin:round;}.cls-8{fill:#ebf9fe;}.cls-11{fill:#66cef5;}</style><clipPath id="clip-path"><rect class="cls-1" width="870" height="740"/></clipPath></defs><title>Accounts1</title><g class="cls-2"><rect class="cls-3" width="870" height="740"/><rect class="cls-4" x="145.68" y="207.03" width="607.31" height="354.61"/><rect class="cls-5" x="131.35" y="192.69" width="607.31" height="354.61"/><rect class="cls-6" x="131.35" y="589.51" width="607.31" height="150.49"/><rect class="cls-6" x="788.14" y="192.69" width="81.86" height="354.61"/><rect class="cls-6" x="788.14" y="589.51" width="81.86" height="150.49"/><polygon class="cls-7" points="303.74 389.05 219.24 434.9 262.24 458.04 346.74 412.19 303.74 389.05"/><polygon class="cls-4" points="304.17 472 304.13 431.55 181.64 365.46 181.64 406.1 304.17 472"/><path class="cls-8" d="M304.17,472V431.46L409,374.6a12.4,12.4,0,0,1,18.35,10.82v6.2a24,24,0,0,1-12.78,21.2Z"/><path class="cls-6" d="M420.2,374.28a12.81,12.81,0,0,0-1.21-.66c-.39-.24-.8-.45-1.21-.65a11,11,0,0,0-1.22-.65,12.81,12.81,0,0,0-1.21-.66c-.39-.24-.8-.45-1.21-.65a11.76,11.76,0,0,0-1.21-.65c-.4-.24-.8-.46-1.22-.66s-.8-.45-1.21-.65a11.76,11.76,0,0,0-1.21-.65c-.4-.24-.8-.46-1.22-.66a10.81,10.81,0,0,0-1.21-.65c-.39-.24-.8-.46-1.21-.66s-.8-.45-1.22-.65a10.81,10.81,0,0,0-1.21-.65c-.39-.24-.8-.46-1.21-.66a12.9,12.9,0,0,0-1.22-.65,10.81,10.81,0,0,0-1.21-.65c-.39-.24-.8-.46-1.21-.66a12.9,12.9,0,0,0-1.22-.65,10.81,10.81,0,0,0-1.21-.65c-.39-.24-.8-.46-1.21-.66s-.8-.45-1.21-.65a11.91,11.91,0,0,0-1.22-.65,12.81,12.81,0,0,0-1.21-.66c-.39-.24-.8-.45-1.21-.65a11.91,11.91,0,0,0-1.22-.65,12.81,12.81,0,0,0-1.21-.66c-.39-.24-.8-.45-1.21-.65a11.91,11.91,0,0,0-1.22-.65,12.81,12.81,0,0,0-1.21-.66c-.39-.24-.8-.45-1.21-.65a11,11,0,0,0-1.22-.65,12.81,12.81,0,0,0-1.21-.66c-.39-.24-.8-.45-1.21-.65a11,11,0,0,0-1.22-.65,12.81,12.81,0,0,0-1.21-.66c-.39-.24-.8-.45-1.21-.65a11.76,11.76,0,0,0-1.21-.65c-.4-.24-.8-.46-1.22-.66a12.73,12.73,0,0,0-1.21-.65,11.76,11.76,0,0,0-1.21-.65c-.4-.24-.8-.46-1.22-.66a10.81,10.81,0,0,0-1.21-.65c-.39-.24-.8-.46-1.21-.66s-.8-.45-1.22-.65a10.81,10.81,0,0,0-1.21-.65c-.39-.24-.8-.46-1.21-.66a12.9,12.9,0,0,0-1.22-.65,10.81,10.81,0,0,0-1.21-.65c-.39-.24-.8-.46-1.21-.66a12.9,12.9,0,0,0-1.22-.65,10.81,10.81,0,0,0-1.21-.65,12.81,12.81,0,0,0-1.21-.66c-.39-.24-.8-.45-1.21-.65a11.91,11.91,0,0,0-1.22-.65,12.81,12.81,0,0,0-1.21-.66c-.39-.24-.8-.45-1.21-.65a11.91,11.91,0,0,0-1.22-.65,12.81,12.81,0,0,0-1.21-.66c-.39-.24-.8-.45-1.21-.65a11.91,11.91,0,0,0-1.22-.65,12.81,12.81,0,0,0-1.21-.66c-.39-.24-.8-.45-1.21-.65a11,11,0,0,0-1.22-.65,12.81,12.81,0,0,0-1.21-.66c-.39-.24-.8-.45-1.21-.65a11.76,11.76,0,0,0-1.21-.65c-.4-.24-.8-.46-1.22-.66s-.8-.45-1.21-.65a11.76,11.76,0,0,0-1.21-.65c-.4-.24-.8-.46-1.22-.66a10.81,10.81,0,0,0-1.21-.65,11.76,11.76,0,0,0-1.21-.65c-.4-.24-.8-.46-1.22-.66a10.81,10.81,0,0,0-1.21-.65c-.39-.24-.8-.46-1.21-.66a12.9,12.9,0,0,0-1.22-.65,10.81,10.81,0,0,0-1.21-.65c-.39-.24-.8-.46-1.21-.66a12.9,12.9,0,0,0-1.22-.65,10.81,10.81,0,0,0-1.21-.65c-.39-.24-.8-.46-1.21-.66a12.9,12.9,0,0,0-1.22-.65,10.81,10.81,0,0,0-1.21-.65c-.39-.24-.8-.46-1.21-.66s-.8-.45-1.21-.65a11.91,11.91,0,0,0-1.22-.65,12.81,12.81,0,0,0-1.21-.66c-.39-.24-.8-.45-1.21-.65a11.91,11.91,0,0,0-1.22-.65,12.81,12.81,0,0,0-1.21-.66c-.39-.24-.8-.45-1.21-.65a11,11,0,0,0-1.22-.65,12.81,12.81,0,0,0-1.21-.66c-.39-.24-.8-.45-1.21-.65a11,11,0,0,0-1.22-.65,12.81,12.81,0,0,0-1.21-.66c-.39-.24-.8-.45-1.21-.65a11,11,0,0,0-1.22-.65,12.81,12.81,0,0,0-1.21-.66,12.36,12.36,0,0,0-12.45-.33l-104.8,56.87V406l1.21-.65v1.3l1.22-.65v1.31l1.21-.65V408l1.21-.65v1.3l1.22-.65v1.31l1.21-.65v1.3l1.21-.65v1.31l1.22-.66v1.31l1.21-.65v1.3l1.21-.65v1.31l1.21-.65v1.3l1.22-.65v1.3l1.21-.65v1.31l1.21-.65v1.3l1.22-.65v1.3l1.21-.65v1.31l1.21-.65v1.3l1.22-.65v1.3l1.21-.65v1.31l1.21-.65v1.3l1.22-.65v1.3l1.21-.65v1.31l1.21-.65V421l1.22-.65v1.3L212,421v1.31l1.21-.65V423l1.21-.65v1.3l1.22-.65v1.31l1.21-.65V425l1.21-.65v1.3l1.22-.65v1.31l1.21-.65v1.3l1.21-.65v1.3l1.22-.65v1.31l1.21-.65v1.3l1.21-.65v1.31l1.22-.66v1.31l1.21-.65v1.3l1.21-.65v1.31l1.22-.66v1.31l1.21-.65v1.3l1.21-.65v1.31l1.21-.65v1.3l1.22-.65v1.3l1.21-.65v1.31l1.21-.65v1.3l1.22-.65v1.3l1.21-.65v1.31l1.21-.65V438l1.22-.65v1.3l1.21-.65v1.31l1.21-.65V440l1.22-.65v1.3l1.21-.65v1.31l1.21-.65v1.3l1.22-.65v1.3l1.21-.65v1.31l1.21-.65v1.3l1.21-.65v1.3l1.22-.65v1.31l1.21-.65v1.3l1.21-.65v1.3l1.22-.65v1.31l1.21-.65v1.3l1.21-.65v1.3l1.22-.65v1.31l1.21-.65v1.3l1.21-.65v1.31l1.22-.66v1.31l1.21-.65v1.3l1.21-.65v1.31l1.22-.66v1.31l1.21-.65v1.3l1.21-.65v1.31l1.21-.65V455l1.22-.65v1.3l1.21-.65v1.31l1.21-.65V457l1.22-.65v1.3l1.21-.65v1.31l1.21-.65v1.3l1.22-.65v1.3l1.21-.65v1.31l1.21-.65v1.3l1.22-.65v1.3l1.21-.65v1.31l1.21-.65v1.3l1.21-.65v1.3l1.22-.65v1.31l1.21-.65v1.3l1.21-.65v1.3l1.22-.65v1.31l1.21-.65v1.3l1.21-.65v1.3l1.22-.65v1.31l1.21-.65v1.3l1.21-.65v1.3l1.22-.65V470l1.21-.65v1.3L303,470v1.31l1.22-.66V472l110.36-59.18a24,24,0,0,0,12.78-21.2v-6.2A12.22,12.22,0,0,0,420.2,374.28Z"/><polygon class="cls-4" points="304.17 472 304.13 431.55 181.64 365.46 181.64 406.1 304.17 472"/><path class="cls-8" d="M304.17,472V431.46L409,374.6a12.4,12.4,0,0,1,18.35,10.82v6.2a24,24,0,0,1-12.78,21.2Z"/><path class="cls-9" d="M420.2,374.28a12.81,12.81,0,0,0-1.21-.66c-.39-.24-.8-.45-1.21-.65a11,11,0,0,0-1.22-.65,12.81,12.81,0,0,0-1.21-.66c-.39-.24-.8-.45-1.21-.65a11.76,11.76,0,0,0-1.21-.65c-.4-.24-.8-.46-1.22-.66s-.8-.45-1.21-.65a11.76,11.76,0,0,0-1.21-.65c-.4-.24-.8-.46-1.22-.66a10.81,10.81,0,0,0-1.21-.65c-.39-.24-.8-.46-1.21-.66s-.8-.45-1.22-.65a10.81,10.81,0,0,0-1.21-.65c-.39-.24-.8-.46-1.21-.66a12.9,12.9,0,0,0-1.22-.65,10.81,10.81,0,0,0-1.21-.65c-.39-.24-.8-.46-1.21-.66a12.9,12.9,0,0,0-1.22-.65,10.81,10.81,0,0,0-1.21-.65c-.39-.24-.8-.46-1.21-.66s-.8-.45-1.21-.65a11.91,11.91,0,0,0-1.22-.65,12.81,12.81,0,0,0-1.21-.66c-.39-.24-.8-.45-1.21-.65a11.91,11.91,0,0,0-1.22-.65,12.81,12.81,0,0,0-1.21-.66c-.39-.24-.8-.45-1.21-.65a11.91,11.91,0,0,0-1.22-.65,12.81,12.81,0,0,0-1.21-.66c-.39-.24-.8-.45-1.21-.65a11,11,0,0,0-1.22-.65,12.81,12.81,0,0,0-1.21-.66c-.39-.24-.8-.45-1.21-.65a11,11,0,0,0-1.22-.65,12.81,12.81,0,0,0-1.21-.66c-.39-.24-.8-.45-1.21-.65a11.76,11.76,0,0,0-1.21-.65c-.4-.24-.8-.46-1.22-.66a12.73,12.73,0,0,0-1.21-.65,11.76,11.76,0,0,0-1.21-.65c-.4-.24-.8-.46-1.22-.66a10.81,10.81,0,0,0-1.21-.65c-.39-.24-.8-.46-1.21-.66s-.8-.45-1.22-.65a10.81,10.81,0,0,0-1.21-.65c-.39-.24-.8-.46-1.21-.66a12.9,12.9,0,0,0-1.22-.65,10.81,10.81,0,0,0-1.21-.65c-.39-.24-.8-.46-1.21-.66a12.9,12.9,0,0,0-1.22-.65,10.81,10.81,0,0,0-1.21-.65,12.81,12.81,0,0,0-1.21-.66c-.39-.24-.8-.45-1.21-.65a11.91,11.91,0,0,0-1.22-.65,12.81,12.81,0,0,0-1.21-.66c-.39-.24-.8-.45-1.21-.65a11.91,11.91,0,0,0-1.22-.65,12.81,12.81,0,0,0-1.21-.66c-.39-.24-.8-.45-1.21-.65a11.91,11.91,0,0,0-1.22-.65,12.81,12.81,0,0,0-1.21-.66c-.39-.24-.8-.45-1.21-.65a11,11,0,0,0-1.22-.65,12.81,12.81,0,0,0-1.21-.66c-.39-.24-.8-.45-1.21-.65a11.76,11.76,0,0,0-1.21-.65c-.4-.24-.8-.46-1.22-.66s-.8-.45-1.21-.65a11.76,11.76,0,0,0-1.21-.65c-.4-.24-.8-.46-1.22-.66a10.81,10.81,0,0,0-1.21-.65,11.76,11.76,0,0,0-1.21-.65c-.4-.24-.8-.46-1.22-.66a10.81,10.81,0,0,0-1.21-.65c-.39-.24-.8-.46-1.21-.66a12.9,12.9,0,0,0-1.22-.65,10.81,10.81,0,0,0-1.21-.65c-.39-.24-.8-.46-1.21-.66a12.9,12.9,0,0,0-1.22-.65,10.81,10.81,0,0,0-1.21-.65c-.39-.24-.8-.46-1.21-.66a12.9,12.9,0,0,0-1.22-.65,10.81,10.81,0,0,0-1.21-.65c-.39-.24-.8-.46-1.21-.66s-.8-.45-1.21-.65a11.91,11.91,0,0,0-1.22-.65,12.81,12.81,0,0,0-1.21-.66c-.39-.24-.8-.45-1.21-.65a11.91,11.91,0,0,0-1.22-.65,12.81,12.81,0,0,0-1.21-.66c-.39-.24-.8-.45-1.21-.65a11,11,0,0,0-1.22-.65,12.81,12.81,0,0,0-1.21-.66c-.39-.24-.8-.45-1.21-.65a11,11,0,0,0-1.22-.65,12.81,12.81,0,0,0-1.21-.66c-.39-.24-.8-.45-1.21-.65a11,11,0,0,0-1.22-.65,12.81,12.81,0,0,0-1.21-.66,12.36,12.36,0,0,0-12.45-.33l-104.8,56.87h0V406h0v.1L303,471.34h0l1.22.66h0l110.36-59.18a24,24,0,0,0,12.78-21.2v-6.2A12.22,12.22,0,0,0,420.2,374.28Z"/><path class="cls-6" d="M258.92,355.49,219.24,377l43,23.14L295,382.37a14.75,14.75,0,0,0-.05-26l-1.83-1A36,36,0,0,0,258.92,355.49Z"/><ellipse class="cls-4" cx="277.85" cy="367.23" rx="15.15" ry="9.77"/><path class="cls-9" d="M181.64,365.46l122.53,66L409,374.6s5.87-4,11.24-.32"/><polygon class="cls-4" points="262.24 400.18 219.26 377.02 219.26 434.93 262.24 458.04 262.24 400.18"/><path class="cls-9" d="M295,356.41l-1.83-1a36,36,0,0,0-34.24.06L219.24,377l0,0v57.89l43,23.11V400.16L295,382.37A14.75,14.75,0,0,0,295,356.41Z"/><ellipse class="cls-9" cx="277.85" cy="367.23" rx="15.15" ry="9.77"/><polygon class="cls-6" points="268.01 324 286.61 334.05 305.2 324 305.2 245.13 286.74 234.95 268.01 245.13 268.01 324"/><polygon class="cls-4" points="286.74 334.05 286.62 255.36 268.04 245.22 268.04 324.04 286.74 334.05"/><polygon class="cls-9" points="268.01 324 286.61 334.05 305.2 324 305.2 245.13 286.62 235.08 268.01 245.13 268.01 324"/><polygon class="cls-6" points="235.82 339.88 254.42 349.93 273.01 339.88 273.01 261 254.56 250.83 235.82 261 235.82 339.88"/><polygon class="cls-4" points="254.56 349.93 254.43 271.24 235.85 261.1 235.85 339.91 254.56 349.93"/><polygon class="cls-9" points="235.82 339.88 254.42 349.93 273.01 339.88 273.01 261 254.43 250.96 235.82 261 235.82 339.88"/><rect class="cls-10" x="313.57" y="310.56" width="5.78" height="33.25" rx="2.89" transform="translate(632.92 654.37) rotate(-180)"/><rect class="cls-5" x="297.44" y="276.5" width="38.05" height="53.38" rx="19.02" transform="translate(632.92 606.38) rotate(180)"/><rect class="cls-11" x="261.43" y="327.49" width="32.61" height="50.33" rx="16.3"/><circle class="cls-12" cx="277.32" cy="320.06" r="12.44"/><rect class="cls-11" x="349.79" y="341.67" width="16.99" height="26.22" rx="8.49" transform="translate(716.57 709.56) rotate(-180)"/><circle class="cls-12" cx="358.46" cy="337.73" r="7.82"/><rect class="cls-12" x="319.41" y="372.69" width="16.99" height="26.22" rx="8.49" transform="translate(655.81 771.61) rotate(180)"/><circle class="cls-5" cx="328.08" cy="368.75" r="7.82"/><rect class="cls-13" x="475.29" y="296.47" width="193.28" height="50.66" rx="25.33"/><path class="cls-5" d="M512.67,316.2c0,5-9.14,20.2-9.14,20.2s-9.14-15.16-9.14-20.2a9.14,9.14,0,0,1,18.28,0Z"/><circle class="cls-10" cx="503.53" cy="316.95" r="3.13"/><rect class="cls-3" x="520.73" y="315.93" width="7.76" height="14.81"/><rect class="cls-3" x="532.58" y="315.93" width="7.76" height="14.81"/><rect class="cls-3" x="544.42" y="315.93" width="7.76" height="14.81"/><rect class="cls-3" x="556.27" y="315.93" width="7.76" height="14.81"/><rect class="cls-3" x="568.11" y="315.93" width="7.76" height="14.81"/><rect class="cls-3" x="579.96" y="315.93" width="7.76" height="14.81"/><rect class="cls-3" x="591.8" y="315.93" width="7.76" height="14.81"/><rect class="cls-3" x="603.65" y="315.93" width="7.76" height="14.81"/><rect class="cls-3" x="615.49" y="315.93" width="7.76" height="14.81"/><rect class="cls-3" x="627.34" y="315.93" width="7.76" height="14.81"/><rect class="cls-3" x="639.18" y="315.93" width="7.76" height="14.81"/><path class="cls-10" d="M496,267.06a3.62,3.62,0,0,0-1.4-3.06,18.58,18.58,0,0,0-5.07-2.25,36.21,36.21,0,0,1-5.79-2.33Q478,256.28,478,251a8.22,8.22,0,0,1,1.56-4.93,10.11,10.11,0,0,1,4.48-3.39,16.88,16.88,0,0,1,6.55-1.22,15.36,15.36,0,0,1,6.51,1.32,10.37,10.37,0,0,1,4.44,3.74,9.76,9.76,0,0,1,1.59,5.49h-7a4.63,4.63,0,0,0-1.47-3.65,6.12,6.12,0,0,0-4.15-1.3,6.55,6.55,0,0,0-4,1.09A3.46,3.46,0,0,0,485,251a3.29,3.29,0,0,0,1.68,2.79,18.76,18.76,0,0,0,4.93,2.11q6,1.81,8.74,4.48a8.91,8.91,0,0,1,2.75,6.65,8.2,8.2,0,0,1-3.36,6.95q-3.35,2.52-9,2.52a17.46,17.46,0,0,1-7.17-1.44,11.24,11.24,0,0,1-4.93-4,10.06,10.06,0,0,1-1.7-5.81h7q0,5.66,6.75,5.65a6.59,6.59,0,0,0,3.92-1A3.33,3.33,0,0,0,496,267.06Z"/><path class="cls-10" d="M515.51,244.42v6.23h4.33v5h-4.33v12.66a3,3,0,0,0,.54,2,2.72,2.72,0,0,0,2.06.6,10.76,10.76,0,0,0,2-.16v5.13a13.8,13.8,0,0,1-4.1.61q-7.12,0-7.27-7.19V255.62H505v-5h3.7v-6.23Z"/><path class="cls-10" d="M538.31,276a7.52,7.52,0,0,1-.68-2.27,8.18,8.18,0,0,1-6.4,2.74,9,9,0,0,1-6.17-2.15,7,7,0,0,1-2.45-5.44,7.18,7.18,0,0,1,3-6.19c2-1.44,4.87-2.16,8.63-2.18h3.12v-1.45a4.18,4.18,0,0,0-.9-2.81,3.53,3.53,0,0,0-2.85-1.06,4.07,4.07,0,0,0-2.68.82,2.79,2.79,0,0,0-1,2.25h-6.78a6.85,6.85,0,0,1,1.36-4.08,9,9,0,0,1,3.85-2.94,14,14,0,0,1,5.57-1.06,11,11,0,0,1,7.44,2.35,8.23,8.23,0,0,1,2.76,6.62v11a12,12,0,0,0,1,5.47V276Zm-5.6-4.71a5.93,5.93,0,0,0,2.77-.66,4.4,4.4,0,0,0,1.87-1.8v-4.36h-2.53q-5.09,0-5.41,3.52l0,.4a2.71,2.71,0,0,0,.89,2.08A3.46,3.46,0,0,0,532.71,271.3Z"/><path class="cls-10" d="M563.6,257a17.56,17.56,0,0,0-2.44-.19q-3.84,0-5,2.6V276h-6.78V250.65h6.4l.19,3a6.27,6.27,0,0,1,5.65-3.49,7.22,7.22,0,0,1,2.11.3Z"/><path class="cls-10" d="M576.14,244.42v6.23h4.34v5h-4.34v12.66a3,3,0,0,0,.54,2,2.74,2.74,0,0,0,2.06.6,10.69,10.69,0,0,0,2-.16v5.13a13.75,13.75,0,0,1-4.1.61q-7.12,0-7.26-7.19V255.62h-3.71v-5h3.71v-6.23Z"/><path class="cls-10" d="M599.44,273.44a8.5,8.5,0,0,1-6.94,3,8,8,0,0,1-6.22-2.34q-2.14-2.34-2.19-6.87V250.65h6.77v16.41q0,4,3.61,4c2.3,0,3.87-.79,4.73-2.39v-18H606V276h-6.37Z"/><path class="cls-10" d="M633.94,263.57c0,3.91-.89,7-2.66,9.39a8.54,8.54,0,0,1-7.19,3.52,7.91,7.91,0,0,1-6.21-2.67v11.95h-6.77V250.65h6.28l.24,2.49a8,8,0,0,1,6.42-2.95,8.6,8.6,0,0,1,7.29,3.46c1.73,2.32,2.6,5.5,2.6,9.57Zm-6.78-.52a10,10,0,0,0-1.25-5.48,4.09,4.09,0,0,0-3.64-1.92,4.44,4.44,0,0,0-4.39,2.44v10.42a4.52,4.52,0,0,0,4.43,2.51Q627.17,271,627.16,263.05Z"/><path class="cls-10" d="M490,392.92h-8.44v5.74h9.9v3.53h-14.3V380.86h14.27v3.56h-9.87v5.09H490Z"/><path class="cls-10" d="M510.42,384.42h-6.54v17.77h-4.39V384.42H493v-3.56h17.38Z"/><path class="cls-10" d="M530.28,402.19h-4.39v-9.14h-8.57v9.14h-4.4V380.86h4.4v8.65h8.57v-8.65h4.39Z"/><path class="cls-10" d="M482.17,422.66h-3.94v2.68h4.62V427h-6.67V417h6.66v1.66h-4.61v2.37h3.94Z"/><path class="cls-10" d="M491.68,418.7h-3.05V427h-2.05V418.7h-3V417h8.1Z"/><path class="cls-10" d="M501,427H498.9v-4.26h-4V427h-2V417h2v4h4v-4H501Z"/><path class="cls-10" d="M508.41,427h-2.05V417h2.05Z"/><path class="cls-10" d="M518.4,427h-2l-4-6.55V427h-2.05V417h2.05l4,6.56V417h2Z"/><path class="cls-10" d="M523.87,424.52l2.26-7.48h2.28L525,427h-2.14L519.35,417h2.28Z"/><path class="cls-10" d="M535.34,422.66H531.4v2.68H536V427h-6.67V417H536v1.66H531.4v2.37h3.94Z"/><path class="cls-10" d="M542.38,424.38a1,1,0,0,0-.41-.89,5.18,5.18,0,0,0-1.47-.66,9.77,9.77,0,0,1-1.69-.68,2.76,2.76,0,0,1-1.7-2.47,2.47,2.47,0,0,1,.46-1.44,2.92,2.92,0,0,1,1.3-1,4.9,4.9,0,0,1,1.92-.36,4.45,4.45,0,0,1,1.9.39,3.07,3.07,0,0,1,1.29,1.09,2.83,2.83,0,0,1,.46,1.6h-2.05a1.35,1.35,0,0,0-.43-1.07,1.79,1.79,0,0,0-1.21-.37,1.91,1.91,0,0,0-1.17.31,1,1,0,0,0-.41.84,1,1,0,0,0,.48.81,5.54,5.54,0,0,0,1.44.62,6.16,6.16,0,0,1,2.55,1.31,2.55,2.55,0,0,1,.8,1.94,2.38,2.38,0,0,1-1,2,4.31,4.31,0,0,1-2.64.74,5.1,5.1,0,0,1-2.09-.42,3.35,3.35,0,0,1-1.44-1.15,3,3,0,0,1-.49-1.7h2.05c0,1.1.66,1.65,2,1.65a1.89,1.89,0,0,0,1.14-.3A1,1,0,0,0,542.38,424.38Z"/><path class="cls-10" d="M553.32,418.7h-3.05V427h-2V418.7h-3V417h8.1Z"/><path class="cls-10" d="M560.48,422.66h-3.94v2.68h4.62V427h-6.67V417h6.66v1.66h-4.61v2.37h3.94Z"/><path class="cls-10" d="M562.37,427V417h3.06a4.71,4.71,0,0,1,2.35.59,4,4,0,0,1,1.61,1.68,5.16,5.16,0,0,1,.58,2.48v.46a5.26,5.26,0,0,1-.57,2.47,4.11,4.11,0,0,1-1.61,1.67,4.58,4.58,0,0,1-2.34.6Zm2-8.29v6.64h1a2.25,2.25,0,0,0,1.84-.78,3.61,3.61,0,0,0,.65-2.25v-.53a3.6,3.6,0,0,0-.63-2.3,2.22,2.22,0,0,0-1.84-.78Z"/><path class="cls-10" d="M493.34,449.66v14a7.19,7.19,0,0,1-2.19,5.54,8.44,8.44,0,0,1-6,2,8.53,8.53,0,0,1-5.93-2,7.09,7.09,0,0,1-2.24-5.44V449.66h4.39v14.08a4,4,0,0,0,1,3.05,3.84,3.84,0,0,0,2.77,1c2.47,0,3.73-1.29,3.77-3.89v-14.2Z"/><path class="cls-10" d="M508,465.4a2.27,2.27,0,0,0-.88-1.92,11.52,11.52,0,0,0-3.16-1.4,22.73,22.73,0,0,1-3.62-1.46q-3.63-2-3.63-5.29a5.13,5.13,0,0,1,1-3.08,6.39,6.39,0,0,1,2.8-2.12,10.46,10.46,0,0,1,4.09-.76,9.58,9.58,0,0,1,4.07.83,6.47,6.47,0,0,1,2.78,2.33,6.12,6.12,0,0,1,1,3.43H508a2.88,2.88,0,0,0-.92-2.28,3.79,3.79,0,0,0-2.59-.81,4.11,4.11,0,0,0-2.51.68,2.17,2.17,0,0,0-.89,1.8,2.06,2.06,0,0,0,1,1.74,11.74,11.74,0,0,0,3.08,1.32,13.3,13.3,0,0,1,5.47,2.8,5.57,5.57,0,0,1,1.71,4.16,5.13,5.13,0,0,1-2.1,4.34,9.13,9.13,0,0,1-5.63,1.57,10.91,10.91,0,0,1-4.49-.9,7.1,7.1,0,0,1-3.08-2.46,6.33,6.33,0,0,1-1.06-3.64h4.41c0,2.36,1.4,3.53,4.22,3.53a4.12,4.12,0,0,0,2.44-.63A2.07,2.07,0,0,0,508,465.4Z"/><path class="cls-10" d="M515.38,471V449.66H522a10,10,0,0,1,5,1.27,8.83,8.83,0,0,1,3.46,3.6,11.13,11.13,0,0,1,1.25,5.31v1a11.06,11.06,0,0,1-1.23,5.28A8.66,8.66,0,0,1,527,469.7a10,10,0,0,1-5,1.29Zm4.4-17.77v14.24h2.12a4.78,4.78,0,0,0,3.94-1.68,7.62,7.62,0,0,0,1.39-4.82v-1.13a7.79,7.79,0,0,0-1.34-4.93,4.76,4.76,0,0,0-3.94-1.68Z"/><path class="cls-10" d="M479.86,493.32l2.25-7.48h2.29l-3.47,10h-2.14l-3.45-10h2.27Z"/><path class="cls-10" d="M490.44,493.74h-3.6l-.68,2.05H484l3.7-10h1.9l3.73,10h-2.18Zm-3-1.66h2.48l-1.25-3.73Z"/><path class="cls-10" d="M496.29,494.14h4.35v1.65h-6.4v-10h2.05Z"/><path class="cls-10" d="M509.19,485.84v6.55a3.38,3.38,0,0,1-1,2.59,4,4,0,0,1-2.79.95,4,4,0,0,1-2.77-.92,3.28,3.28,0,0,1-1.05-2.54v-6.63h2.05v6.57a1.9,1.9,0,0,0,.47,1.42,1.79,1.79,0,0,0,1.3.45c1.15,0,1.73-.61,1.75-1.82v-6.62Z"/><path class="cls-10" d="M516.86,491.46h-3.94v2.68h4.62v1.65h-6.67v-10h6.66v1.66h-4.61v2.37h3.94Z"/><path class="cls-10" d="M527.85,493.74h-3.59l-.69,2.05h-2.18l3.71-10H527l3.72,10h-2.18Zm-3-1.66h2.49l-1.25-3.73Z"/><path class="cls-10" d="M538.32,487.5h-3v8.29h-2.06V487.5h-3v-1.66h8.1Z"/><path class="cls-10" d="M542.57,495.79v-10h3.06a4.69,4.69,0,0,1,2.35.59,4.1,4.1,0,0,1,1.62,1.68,5.28,5.28,0,0,1,.58,2.48v.46a5.23,5.23,0,0,1-.57,2.47,4.17,4.17,0,0,1-1.61,1.67,4.64,4.64,0,0,1-2.35.6Zm2-8.29v6.64h1a2.23,2.23,0,0,0,1.84-.78,3.61,3.61,0,0,0,.65-2.25v-.53a3.6,3.6,0,0,0-.63-2.3,2.22,2.22,0,0,0-1.84-.78Z"/><path class="cls-10" d="M553.85,495.79H551.8v-10h2.05Z"/><path class="cls-10" d="M560.91,493.18a1.06,1.06,0,0,0-.41-.89,5.28,5.28,0,0,0-1.48-.66,9.62,9.62,0,0,1-1.68-.68,2.76,2.76,0,0,1-1.7-2.47,2.41,2.41,0,0,1,.45-1.43,2.9,2.9,0,0,1,1.31-1,4.85,4.85,0,0,1,1.91-.36,4.42,4.42,0,0,1,1.9.39,3,3,0,0,1,1.3,1.09,2.91,2.91,0,0,1,.46,1.6h-2.05a1.35,1.35,0,0,0-.43-1.06,1.74,1.74,0,0,0-1.21-.38,1.91,1.91,0,0,0-1.17.31,1,1,0,0,0-.42.84.94.94,0,0,0,.49.81,5.39,5.39,0,0,0,1.44.62,6.22,6.22,0,0,1,2.55,1.31,2.59,2.59,0,0,1,.8,1.94,2.39,2.39,0,0,1-1,2,4.28,4.28,0,0,1-2.63.74,5.07,5.07,0,0,1-2.09-.42,3.35,3.35,0,0,1-1.44-1.15,3,3,0,0,1-.5-1.7h2.06c0,1.1.66,1.65,2,1.65a1.89,1.89,0,0,0,1.14-.3A1,1,0,0,0,560.91,493.18Z"/><path class="cls-10" d="M564.36,495.79v-10h3.48a4.59,4.59,0,0,1,2.75.69,2.39,2.39,0,0,1,.94,2,2.24,2.24,0,0,1-.38,1.28.85.85,0,1,0,.16,1.59,2.28,2.28,0,0,1,.44,1.43,2.62,2.62,0,0,1-.91,2.17,4.17,4.17,0,0,1-2.62.75Zm2-5.78h1.51c1,0,1.56-.43,1.56-1.24a1.13,1.13,0,0,0-.4-1,2,2,0,0,0-1.24-.3h-1.43Zm0,1.45v2.68h1.75a1.72,1.72,0,0,0,1.14-.34,1.18,1.18,0,0,0,.4-.95,1.24,1.24,0,0,0-1.41-1.39Z"/><path class="cls-10" d="M580.82,485.84v6.55a3.38,3.38,0,0,1-1,2.59,4,4,0,0,1-2.79.95,4,4,0,0,1-2.77-.92,3.35,3.35,0,0,1-1-2.54v-6.63h2.06v6.57a1.9,1.9,0,0,0,.46,1.42,1.82,1.82,0,0,0,1.3.45c1.15,0,1.74-.61,1.76-1.82v-6.62Z"/><path class="cls-10" d="M586.19,492.15h-1.63v3.64h-2v-10h3.69a4.18,4.18,0,0,1,2.72.78,2.73,2.73,0,0,1,1,2.23,3.11,3.11,0,0,1-.44,1.7,3,3,0,0,1-1.34,1.08l2.16,4.07v.09h-2.2Zm-1.63-1.66h1.65a1.69,1.69,0,0,0,1.2-.4,1.4,1.4,0,0,0,.42-1.08,1.5,1.5,0,0,0-.4-1.11,1.66,1.66,0,0,0-1.23-.4h-1.64Z"/><path class="cls-10" d="M596.6,493.18a1.06,1.06,0,0,0-.41-.89,5.14,5.14,0,0,0-1.48-.66A9.62,9.62,0,0,1,593,491a2.76,2.76,0,0,1-1.7-2.47,2.35,2.35,0,0,1,.46-1.43,2.81,2.81,0,0,1,1.3-1,4.89,4.89,0,0,1,1.91-.36,4.42,4.42,0,0,1,1.9.39,3,3,0,0,1,1.3,1.09,2.91,2.91,0,0,1,.46,1.6h-2a1.35,1.35,0,0,0-.43-1.06,1.74,1.74,0,0,0-1.21-.38,1.91,1.91,0,0,0-1.17.31,1,1,0,0,0-.42.84.94.94,0,0,0,.49.81,5.54,5.54,0,0,0,1.44.62,6.16,6.16,0,0,1,2.55,1.31,2.59,2.59,0,0,1,.8,1.94,2.39,2.39,0,0,1-1,2,4.28,4.28,0,0,1-2.63.74,5.07,5.07,0,0,1-2.09-.42,3.35,3.35,0,0,1-1.44-1.15,3,3,0,0,1-.5-1.7h2.06c0,1.1.66,1.65,2,1.65a1.89,1.89,0,0,0,1.14-.3A1,1,0,0,0,596.6,493.18Z"/><path class="cls-10" d="M605.67,493.74h-3.6l-.68,2.05h-2.18l3.7-10h1.9l3.73,10h-2.18Zm-3-1.66h2.49l-1.25-3.73Z"/><path class="cls-10" d="M611.52,494.14h4.35v1.65h-6.4v-10h2Z"/></g></svg>