<svg id="Layer_1" data-name="Layer 1" xmlns="http://www.w3.org/2000/svg" xmlns:xlink="http://www.w3.org/1999/xlink" viewBox="0 0 1427.37 1080"><defs><style>.cls-1,.cls-11,.cls-21{fill:none;}.cls-1,.cls-11,.cls-13,.cls-14,.cls-15,.cls-16,.cls-17,.cls-21,.cls-22,.cls-23,.cls-24,.cls-7{stroke:#00aeef;}.cls-1,.cls-13,.cls-14,.cls-15,.cls-16,.cls-17,.cls-18,.cls-22,.cls-23{stroke-miterlimit:10;}.cls-1,.cls-11,.cls-13,.cls-14,.cls-15,.cls-16,.cls-17,.cls-18,.cls-22,.cls-23,.cls-7{stroke-width:2px;}.cls-15,.cls-2,.cls-24{fill:#cceffc;}.cls-3{fill:url(#linear-gradient);}.cls-4{fill:url(#linear-gradient-2);}.cls-5{fill:url(#linear-gradient-3);}.cls-6{fill:url(#linear-gradient-4);}.cls-12,.cls-7{fill:#00aeef;}.cls-11,.cls-21,.cls-24,.cls-7{stroke-linejoin:round;}.cls-23,.cls-8{fill:#99dff9;}.cls-17,.cls-18,.cls-9{fill:#ebf9fe;}.cls-10,.cls-13{fill:#fff;}.cls-14,.cls-26{fill:#66cef5;}.cls-16{fill:#85d8f7;}.cls-18{stroke:#99dff9;}.cls-19{fill:#33bef2;}.cls-20{fill:#6ed1f6;}.cls-21,.cls-24{stroke-width:2.15px;}.cls-22{fill:#edf9fe;}.cls-25{fill:#e0f5fd;}.cls-27{fill:url(#linear-gradient-5);}.cls-28{clip-path:url(#clip-path);}.cls-29{fill:#c2ecfb;}.cls-30{fill:url(#linear-gradient-6);}.cls-31{fill:url(#linear-gradient-7);}.cls-32{fill:url(#linear-gradient-8);}.cls-33{fill:url(#linear-gradient-9);}.cls-34{fill:url(#linear-gradient-10);}.cls-35{fill:url(#linear-gradient-11);}.cls-36{clip-path:url(#clip-path-2);}</style><linearGradient id="linear-gradient" x1="865.1" y1="514.1" x2="898.11" y2="453.59" gradientUnits="userSpaceOnUse"><stop offset="0" stop-color="#cceffc"/><stop offset="1" stop-color="#00aeef"/></linearGradient><linearGradient id="linear-gradient-2" x1="1056.56" y1="858.4" x2="1082.28" y2="811.25" xlink:href="#linear-gradient"/><linearGradient id="linear-gradient-3" x1="167.04" y1="333.75" x2="192.76" y2="286.61" xlink:href="#linear-gradient"/><linearGradient id="linear-gradient-4" x1="245.13" y1="878.94" x2="285.75" y2="804.47" xlink:href="#linear-gradient"/><linearGradient id="linear-gradient-5" x1="363.72" y1="568" x2="475.6" y2="505.62" xlink:href="#linear-gradient"/><clipPath id="clip-path"><path class="cls-1" d="M475.06,449.51a64.71,64.71,0,1,1-129.42,0c0-35.74,64.71-125,64.71-125S475.06,413.77,475.06,449.51Z"/></clipPath><linearGradient id="linear-gradient-6" x1="843.29" y1="294.97" x2="905" y2="260.56" xlink:href="#linear-gradient"/><linearGradient id="linear-gradient-7" x1="916.95" y1="767.84" x2="974.19" y2="735.93" xlink:href="#linear-gradient"/><linearGradient id="linear-gradient-8" x1="1310.64" y1="782.91" x2="1367.88" y2="751" xlink:href="#linear-gradient"/><linearGradient id="linear-gradient-9" x1="234.87" y1="1008" x2="292.11" y2="976.09" xlink:href="#linear-gradient"/><linearGradient id="linear-gradient-10" x1="267.27" y1="1019.17" x2="324.51" y2="987.26" xlink:href="#linear-gradient"/><linearGradient id="linear-gradient-11" x1="913.16" y1="267.02" x2="974.87" y2="232.61" xlink:href="#linear-gradient"/><clipPath id="clip-path-2"><path class="cls-1" d="M1364,729.58a28.27,28.27,0,1,1-56.53,0c0-15.61,28.26-54.59,28.26-54.59S1364,714,1364,729.58Z"/></clipPath></defs><title>Isometric_Signin_v2</title><rect class="cls-2" width="1427.37" height="1080"/><polygon class="cls-3" points="740.73 454.39 897.73 540.79 1054.62 454.39 897.63 369.22 740.73 454.39"/><polygon class="cls-4" points="959.66 811.87 1081.98 879.19 1204.21 811.87 1081.91 745.51 959.66 811.87"/><polygon class="cls-5" points="70.14 287.23 192.46 354.55 314.69 287.23 192.39 220.87 70.14 287.23"/><polygon class="cls-6" points="92.07 805.45 285.28 911.78 478.36 805.45 285.17 700.63 92.07 805.45"/><polygon class="cls-7" points="221.47 253.7 136.96 299.56 179.96 322.7 264.47 276.84 221.47 253.7"/><polygon class="cls-8" points="221.9 336.65 221.85 296.21 99.37 230.12 99.37 270.76 221.9 336.65"/><path class="cls-9" d="M221.89,336.66V296.12l104.8-56.87A12.41,12.41,0,0,1,345,250.07v6.2a24,24,0,0,1-12.78,21.2Z"/><path class="cls-10" d="M337.93,238.93c-.39-.24-.8-.45-1.21-.65a11,11,0,0,0-1.22-.65,12.81,12.81,0,0,0-1.21-.66c-.39-.24-.8-.45-1.21-.65a11.76,11.76,0,0,0-1.21-.65c-.4-.24-.8-.46-1.22-.66s-.8-.45-1.21-.65a11.76,11.76,0,0,0-1.21-.65c-.4-.24-.8-.46-1.22-.66a10.81,10.81,0,0,0-1.21-.65,11.76,11.76,0,0,0-1.21-.65c-.4-.24-.8-.46-1.22-.66a10.81,10.81,0,0,0-1.21-.65c-.39-.24-.8-.46-1.21-.66a12.9,12.9,0,0,0-1.22-.65,10.81,10.81,0,0,0-1.21-.65c-.39-.24-.8-.46-1.21-.66a12.9,12.9,0,0,0-1.22-.65,10.81,10.81,0,0,0-1.21-.65c-.39-.24-.8-.46-1.21-.66s-.8-.45-1.21-.65a11.91,11.91,0,0,0-1.22-.65,12.81,12.81,0,0,0-1.21-.66c-.39-.24-.8-.45-1.21-.65a11.91,11.91,0,0,0-1.22-.65,12.81,12.81,0,0,0-1.21-.66c-.39-.24-.8-.45-1.21-.65a11.91,11.91,0,0,0-1.22-.65,12.81,12.81,0,0,0-1.21-.66c-.39-.24-.8-.45-1.21-.65a11,11,0,0,0-1.22-.65,12.81,12.81,0,0,0-1.21-.66c-.39-.24-.8-.45-1.21-.65a11,11,0,0,0-1.22-.65,12.81,12.81,0,0,0-1.21-.66c-.39-.24-.8-.45-1.21-.65a11.76,11.76,0,0,0-1.21-.65c-.4-.24-.8-.46-1.22-.66a12.73,12.73,0,0,0-1.21-.65,11.76,11.76,0,0,0-1.21-.65c-.4-.24-.8-.46-1.22-.66a10.81,10.81,0,0,0-1.21-.65,11.76,11.76,0,0,0-1.21-.65c-.4-.24-.8-.46-1.22-.66a10.81,10.81,0,0,0-1.21-.65c-.39-.24-.8-.46-1.21-.66a12.9,12.9,0,0,0-1.22-.65,10.81,10.81,0,0,0-1.21-.65c-.39-.24-.8-.46-1.21-.66a12.9,12.9,0,0,0-1.22-.65,10.81,10.81,0,0,0-1.21-.65c-.39-.24-.8-.46-1.21-.66s-.8-.45-1.21-.65a11.91,11.91,0,0,0-1.22-.65,12.81,12.81,0,0,0-1.21-.66c-.39-.24-.8-.45-1.21-.65a11.91,11.91,0,0,0-1.22-.65,12.81,12.81,0,0,0-1.21-.66c-.39-.24-.8-.45-1.21-.65a11.91,11.91,0,0,0-1.22-.65,12.81,12.81,0,0,0-1.21-.66c-.39-.24-.8-.45-1.21-.65a11,11,0,0,0-1.22-.65,12.81,12.81,0,0,0-1.21-.66c-.39-.24-.8-.45-1.21-.65a11.76,11.76,0,0,0-1.21-.65c-.4-.24-.8-.46-1.22-.66s-.8-.45-1.21-.65a11.76,11.76,0,0,0-1.21-.65c-.4-.24-.8-.46-1.22-.66a12.73,12.73,0,0,0-1.21-.65,11.76,11.76,0,0,0-1.21-.65c-.4-.24-.8-.46-1.22-.66a10.81,10.81,0,0,0-1.21-.65,11.76,11.76,0,0,0-1.21-.65c-.4-.24-.8-.46-1.22-.66a10.81,10.81,0,0,0-1.21-.65c-.39-.24-.8-.46-1.21-.66s-.8-.45-1.22-.65a10.81,10.81,0,0,0-1.21-.65c-.39-.24-.8-.46-1.21-.66s-.8-.45-1.21-.65a11.91,11.91,0,0,0-1.22-.65c-.39-.24-.8-.46-1.21-.66s-.8-.45-1.21-.65a11.91,11.91,0,0,0-1.22-.65,12.81,12.81,0,0,0-1.21-.66c-.39-.24-.8-.45-1.21-.65a11.91,11.91,0,0,0-1.22-.65,12.81,12.81,0,0,0-1.21-.66c-.39-.24-.8-.45-1.21-.65a11,11,0,0,0-1.22-.65,12.81,12.81,0,0,0-1.21-.66c-.39-.24-.8-.45-1.21-.65a11,11,0,0,0-1.22-.65,12.81,12.81,0,0,0-1.21-.66c-.39-.24-.8-.45-1.21-.65a11.76,11.76,0,0,0-1.21-.65c-.4-.24-.8-.46-1.22-.66s-.8-.45-1.21-.65a12.36,12.36,0,0,0-12.45-.33L99.37,230.12v40.54l1.21-.65v1.3l1.21-.65V272l1.22-.65v1.31l1.21-.65v1.3l1.21-.65v1.31l1.22-.66v1.31l1.21-.65v1.3l1.21-.65v1.31l1.22-.65v1.3l1.21-.65v1.3l1.21-.65v1.31l1.21-.65v1.3l1.22-.65v1.3l1.21-.65v1.31l1.21-.65v1.3l1.22-.65v1.3l1.21-.65v1.31l1.21-.65v1.3l1.22-.65v1.3l1.21-.65v1.31l1.21-.65v1.3l1.22-.65V285l1.21-.65v1.31l1.21-.65v1.3l1.22-.65V287l1.21-.65v1.31l1.21-.65v1.3l1.21-.65V289l1.22-.65v1.31l1.21-.65v1.3l1.21-.65v1.3l1.22-.65v1.31l1.21-.65v1.3l1.21-.65v1.3l1.22-.65v1.31l1.21-.65v1.3l1.21-.65v1.31l1.22-.66v1.31l1.21-.65v1.3l1.21-.65v1.31l1.21-.66v1.31l1.22-.65v1.3l1.21-.65v1.31l1.21-.65v1.3l1.22-.65v1.3l1.21-.65v1.31l1.21-.65v1.3l1.22-.65V302l1.21-.65v1.31L160,302v1.3l1.22-.65V304l1.21-.65v1.31l1.21-.65v1.3l1.22-.65v1.3l1.21-.65v1.31l1.21-.65v1.3l1.22-.65v1.3l1.21-.65v1.31l1.21-.65v1.3l1.21-.65v1.3l1.22-.65v1.31l1.21-.65v1.3l1.21-.65v1.3l1.22-.65v1.31l1.21-.65v1.3l1.21-.65v1.3l1.22-.65v1.31l1.21-.65v1.3l1.21-.65v1.31l1.22-.66v1.31l1.21-.65v1.3l1.21-.65v1.31l1.21-.65v1.3l1.22-.65V319l1.21-.65v1.31l1.21-.65v1.3l1.22-.65V321l1.21-.65v1.31l1.21-.65v1.3l1.22-.65v1.3l1.21-.65v1.31l1.21-.65v1.3l1.22-.65v1.3l1.21-.65v1.31l1.21-.65v1.3l1.22-.65v1.3l1.21-.65v1.31l1.21-.65v1.3l1.21-.65v1.3l1.22-.65v1.31l1.21-.65v1.3l1.21-.65v1.3l1.22-.65v1.31l1.21-.65v1.3l1.21-.65v1.3l1.22-.65v1.31l1.21-.65V334l1.21-.65v1.3l1.22-.65v1.31l1.21-.65V336l1.21-.65v1.31l110.37-59.19A24,24,0,0,0,345,256.27v-6.2A12.23,12.23,0,0,0,337.93,238.93Z"/><polygon class="cls-8" points="221.9 336.65 221.85 296.21 99.37 230.12 99.37 270.76 221.9 336.65"/><path class="cls-9" d="M221.89,336.66V296.12l104.8-56.87A12.41,12.41,0,0,1,345,250.07v6.2a24,24,0,0,1-12.78,21.2Z"/><path class="cls-11" d="M337.93,238.93c-.39-.24-.8-.45-1.21-.65a11,11,0,0,0-1.22-.65,12.81,12.81,0,0,0-1.21-.66c-.39-.24-.8-.45-1.21-.65a11.76,11.76,0,0,0-1.21-.65c-.4-.24-.8-.46-1.22-.66s-.8-.45-1.21-.65a11.76,11.76,0,0,0-1.21-.65c-.4-.24-.8-.46-1.22-.66a10.81,10.81,0,0,0-1.21-.65,11.76,11.76,0,0,0-1.21-.65c-.4-.24-.8-.46-1.22-.66a10.81,10.81,0,0,0-1.21-.65c-.39-.24-.8-.46-1.21-.66a12.9,12.9,0,0,0-1.22-.65,10.81,10.81,0,0,0-1.21-.65c-.39-.24-.8-.46-1.21-.66a12.9,12.9,0,0,0-1.22-.65,10.81,10.81,0,0,0-1.21-.65c-.39-.24-.8-.46-1.21-.66s-.8-.45-1.21-.65a11.91,11.91,0,0,0-1.22-.65,12.81,12.81,0,0,0-1.21-.66c-.39-.24-.8-.45-1.21-.65a11.91,11.91,0,0,0-1.22-.65,12.81,12.81,0,0,0-1.21-.66c-.39-.24-.8-.45-1.21-.65a11.91,11.91,0,0,0-1.22-.65,12.81,12.81,0,0,0-1.21-.66c-.39-.24-.8-.45-1.21-.65a11,11,0,0,0-1.22-.65,12.81,12.81,0,0,0-1.21-.66c-.39-.24-.8-.45-1.21-.65a11,11,0,0,0-1.22-.65,12.81,12.81,0,0,0-1.21-.66c-.39-.24-.8-.45-1.21-.65a11.76,11.76,0,0,0-1.21-.65c-.4-.24-.8-.46-1.22-.66a12.73,12.73,0,0,0-1.21-.65,11.76,11.76,0,0,0-1.21-.65c-.4-.24-.8-.46-1.22-.66a10.81,10.81,0,0,0-1.21-.65,11.76,11.76,0,0,0-1.21-.65c-.4-.24-.8-.46-1.22-.66a10.81,10.81,0,0,0-1.21-.65c-.39-.24-.8-.46-1.21-.66a12.9,12.9,0,0,0-1.22-.65,10.81,10.81,0,0,0-1.21-.65c-.39-.24-.8-.46-1.21-.66a12.9,12.9,0,0,0-1.22-.65,10.81,10.81,0,0,0-1.21-.65c-.39-.24-.8-.46-1.21-.66s-.8-.45-1.21-.65a11.91,11.91,0,0,0-1.22-.65,12.81,12.81,0,0,0-1.21-.66c-.39-.24-.8-.45-1.21-.65a11.91,11.91,0,0,0-1.22-.65,12.81,12.81,0,0,0-1.21-.66c-.39-.24-.8-.45-1.21-.65a11.91,11.91,0,0,0-1.22-.65,12.81,12.81,0,0,0-1.21-.66c-.39-.24-.8-.45-1.21-.65a11,11,0,0,0-1.22-.65,12.81,12.81,0,0,0-1.21-.66c-.39-.24-.8-.45-1.21-.65a11.76,11.76,0,0,0-1.21-.65c-.4-.24-.8-.46-1.22-.66s-.8-.45-1.21-.65a11.76,11.76,0,0,0-1.21-.65c-.4-.24-.8-.46-1.22-.66a12.73,12.73,0,0,0-1.21-.65,11.76,11.76,0,0,0-1.21-.65c-.4-.24-.8-.46-1.22-.66a10.81,10.81,0,0,0-1.21-.65,11.76,11.76,0,0,0-1.21-.65c-.4-.24-.8-.46-1.22-.66a10.81,10.81,0,0,0-1.21-.65c-.39-.24-.8-.46-1.21-.66s-.8-.45-1.22-.65a10.81,10.81,0,0,0-1.21-.65c-.39-.24-.8-.46-1.21-.66s-.8-.45-1.21-.65a11.91,11.91,0,0,0-1.22-.65c-.39-.24-.8-.46-1.21-.66s-.8-.45-1.21-.65a11.91,11.91,0,0,0-1.22-.65,12.81,12.81,0,0,0-1.21-.66c-.39-.24-.8-.45-1.21-.65a11.91,11.91,0,0,0-1.22-.65,12.81,12.81,0,0,0-1.21-.66c-.39-.24-.8-.45-1.21-.65a11,11,0,0,0-1.22-.65,12.81,12.81,0,0,0-1.21-.66c-.39-.24-.8-.45-1.21-.65a11,11,0,0,0-1.22-.65,12.81,12.81,0,0,0-1.21-.66c-.39-.24-.8-.45-1.21-.65a11.76,11.76,0,0,0-1.21-.65c-.4-.24-.8-.46-1.22-.66s-.8-.45-1.21-.65a12.36,12.36,0,0,0-12.45-.33L99.37,230.12h0v40.54h0v.1L220.68,336h0l1.21.65h0l110.36-59.18A24,24,0,0,0,345,256.27v-6.2A12.23,12.23,0,0,0,337.93,238.93Z"/><path class="cls-10" d="M176.64,220.15,137,241.68l43,23.14,32.8-17.8a14.75,14.75,0,0,0,0-26l-1.83-1A36,36,0,0,0,176.64,220.15Z"/><ellipse class="cls-8" cx="195.58" cy="231.89" rx="15.15" ry="9.77"/><path class="cls-11" d="M99.37,230.12l122.52,66,104.8-56.87s5.87-4,11.24-.32"/><polygon class="cls-8" points="179.97 264.83 136.99 241.68 136.99 299.58 179.97 322.7 179.97 264.83"/><path class="cls-11" d="M212.72,221.07l-1.84-1a36,36,0,0,0-34.24.06L137,241.68h0v57.89l43,23.12V264.83h0l32.8-17.8A14.75,14.75,0,0,0,212.72,221.07Z"/><ellipse class="cls-11" cx="195.58" cy="231.89" rx="15.15" ry="9.77"/><polygon class="cls-10" points="185.74 188.66 204.33 198.71 222.92 188.66 222.92 109.78 204.47 99.61 185.74 109.78 185.74 188.66"/><polygon class="cls-8" points="204.47 198.71 204.35 120.02 185.76 109.88 185.76 188.69 204.47 198.71"/><polygon class="cls-11" points="185.74 188.66 204.33 198.71 222.92 188.66 222.92 109.78 204.35 99.73 185.74 109.78 185.74 188.66"/><polygon class="cls-10" points="153.55 204.54 172.14 214.59 190.74 204.54 190.74 125.66 172.28 115.49 153.55 125.66 153.55 204.54"/><polygon class="cls-8" points="172.28 214.59 172.16 135.9 153.57 125.75 153.57 204.57 172.28 214.59"/><polygon class="cls-11" points="153.55 204.54 172.14 214.59 190.74 204.54 190.74 125.66 172.16 115.61 153.55 125.66 153.55 204.54"/><rect class="cls-12" x="231.3" y="175.21" width="5.78" height="33.25" rx="2.89" transform="translate(468.38 383.68) rotate(180)"/><rect class="cls-13" x="215.16" y="141.15" width="38.05" height="53.38" rx="19.02" transform="translate(468.38 335.69) rotate(-180)"/><rect class="cls-14" x="179.16" y="192.14" width="32.61" height="50.33" rx="16.3"/><circle class="cls-15" cx="195.04" cy="184.72" r="12.44"/><rect class="cls-14" x="267.52" y="206.33" width="16.99" height="26.22" rx="8.49" transform="translate(552.02 438.87) rotate(-180)"/><circle class="cls-15" cx="276.19" cy="202.38" r="7.82"/><rect class="cls-15" x="237.14" y="237.35" width="16.99" height="26.22" rx="8.49" transform="translate(491.26 500.92) rotate(180)"/><circle class="cls-13" cx="245.81" cy="233.41" r="7.82"/><circle class="cls-8" cx="287.24" cy="281.82" r="8.1"/><circle class="cls-8" cx="330" cy="305.39" r="8.1"/><circle class="cls-8" cx="372.76" cy="328.97" r="8.1"/><circle class="cls-8" cx="415.52" cy="352.55" r="8.1"/><circle class="cls-8" cx="458.28" cy="376.12" r="8.1"/><circle class="cls-8" cx="501.05" cy="399.7" r="8.1"/><circle class="cls-8" cx="543.81" cy="423.28" r="8.1"/><circle class="cls-8" cx="586.57" cy="446.85" r="8.1"/><circle class="cls-8" cx="629.33" cy="470.43" r="8.1"/><circle class="cls-8" cx="672.09" cy="494.01" r="8.1"/><circle class="cls-8" cx="714.85" cy="517.58" r="8.1"/><circle class="cls-8" cx="757.62" cy="541.16" r="8.1"/><circle class="cls-8" cx="800.38" cy="564.74" r="8.1"/><circle class="cls-8" cx="843.14" cy="588.31" r="8.1"/><circle class="cls-8" cx="885.9" cy="611.89" r="8.1"/><circle class="cls-8" cx="928.66" cy="635.47" r="8.1"/><circle class="cls-8" cx="971.43" cy="659.04" r="8.1"/><circle class="cls-8" cx="1014.19" cy="682.62" r="8.1"/><circle class="cls-8" cx="1056.95" cy="706.2" r="8.1"/><polygon class="cls-10" points="255.29 445.3 282.07 459.77 308.85 445.3 308.85 416.18 282.27 401.52 255.29 416.18 255.29 445.3"/><polygon class="cls-8" points="282.27 459.77 282.09 430.92 255.32 416.31 255.32 445.34 282.27 459.77"/><polygon class="cls-10" points="281.9 459.77 282.08 430.92 308.85 416.31 308.85 445.34 281.9 459.77"/><polygon class="cls-11" points="255.29 445.3 282.07 459.77 308.85 445.3 308.85 416.18 282.09 401.71 255.29 416.18 255.29 445.3"/><polygon class="cls-10" points="659.84 229.56 686.62 244.03 713.4 229.56 713.4 200.44 686.82 185.79 659.84 200.44 659.84 229.56"/><polygon class="cls-8" points="686.82 244.03 686.64 215.18 659.87 200.58 659.87 229.61 686.82 244.03"/><polygon class="cls-10" points="686.46 244.03 686.63 215.18 713.4 200.58 713.4 229.61 686.46 244.03"/><polygon class="cls-11" points="659.84 229.56 686.62 244.03 713.4 229.56 713.4 200.44 686.64 185.97 659.84 200.44 659.84 229.56"/><polygon class="cls-10" points="218.32 464.75 245.1 479.22 271.88 464.75 271.88 435.63 245.3 420.98 218.32 435.63 218.32 464.75"/><polygon class="cls-8" points="245.3 479.22 245.13 450.38 218.35 435.77 218.35 464.8 245.3 479.22"/><polygon class="cls-10" points="244.94 479.22 245.11 450.38 271.88 435.77 271.88 464.8 244.94 479.22"/><polygon class="cls-11" points="218.32 464.75 245.1 479.22 271.88 464.75 271.88 435.63 245.13 421.16 218.32 435.63 218.32 464.75"/><polygon class="cls-10" points="696.97 250.37 723.75 264.84 750.53 250.37 750.53 221.25 723.95 206.59 696.97 221.25 696.97 250.37"/><polygon class="cls-8" points="723.95 264.84 723.77 235.99 697 221.38 697 250.41 723.95 264.84"/><polygon class="cls-10" points="723.58 264.84 723.76 235.99 750.53 221.38 750.53 250.41 723.58 264.84"/><polygon class="cls-11" points="696.97 250.37 723.75 264.84 750.53 250.37 750.53 221.25 723.77 206.78 696.97 221.25 696.97 250.37"/><polygon class="cls-10" points="439.25 957.2 466.03 971.67 492.81 957.2 492.81 928.08 466.23 913.43 439.25 928.08 439.25 957.2"/><polygon class="cls-8" points="466.23 971.67 466.05 942.83 439.28 928.22 439.28 957.25 466.23 971.67"/><polygon class="cls-10" points="465.86 971.67 466.04 942.83 492.81 928.22 492.81 957.25 465.86 971.67"/><polygon class="cls-11" points="439.25 957.2 466.03 971.67 492.81 957.2 492.81 928.08 466.05 913.61 439.25 928.08 439.25 957.2"/><polygon class="cls-10" points="476.37 978.01 503.15 992.48 529.93 978.01 529.93 948.89 503.35 934.24 476.37 948.89 476.37 978.01"/><polygon class="cls-8" points="503.35 992.48 503.18 963.63 476.4 949.02 476.4 978.05 503.35 992.48"/><polygon class="cls-10" points="502.99 992.48 503.16 963.63 529.93 949.02 529.93 978.05 502.99 992.48"/><polygon class="cls-11" points="476.37 978.01 503.15 992.48 529.93 978.01 529.93 948.89 503.18 934.42 476.37 948.89 476.37 978.01"/><circle class="cls-10" cx="305.96" cy="181.29" r="8.1"/><circle class="cls-10" cx="351.1" cy="157.26" r="8.1"/><circle class="cls-10" cx="396.25" cy="133.23" r="8.1"/><circle class="cls-10" cx="441.39" cy="109.19" r="8.1"/><circle class="cls-10" cx="486.53" cy="85.16" r="8.1"/><circle class="cls-10" cx="531.67" cy="61.12" r="8.1"/><circle class="cls-10" cx="576.82" cy="37.09" r="8.1"/><circle class="cls-10" cx="621.96" cy="13.06" r="8.1"/><circle class="cls-8" cx="1051.5" cy="324.59" r="8.1"/><circle class="cls-8" cx="1095.37" cy="300.97" r="8.1"/><circle class="cls-8" cx="1139.24" cy="277.35" r="8.1"/><circle class="cls-8" cx="1183.11" cy="253.73" r="8.1"/><circle class="cls-8" cx="1226.97" cy="230.11" r="8.1"/><circle class="cls-8" cx="1270.84" cy="206.49" r="8.1"/><circle class="cls-8" cx="1314.71" cy="182.87" r="8.1"/><circle class="cls-8" cx="1358.58" cy="159.25" r="8.1"/><circle class="cls-8" cx="1402.44" cy="135.63" r="8.1"/><polygon class="cls-10" points="1113.22 289.97 1140 304.44 1166.78 289.97 1166.78 260.85 1140.2 246.2 1113.22 260.85 1113.22 289.97"/><polygon class="cls-8" points="1140.2 304.44 1140.03 275.59 1113.26 260.99 1113.26 290.01 1140.2 304.44"/><polygon class="cls-10" points="1139.84 304.44 1140.01 275.59 1166.78 260.99 1166.78 290.01 1139.84 304.44"/><polygon class="cls-11" points="1113.22 289.97 1140 304.44 1166.78 289.97 1166.78 260.85 1140.03 246.38 1113.22 260.85 1113.22 289.97"/><ellipse class="cls-16" cx="1137.42" cy="176.14" rx="60.45" ry="45.7" transform="translate(306.49 972.57) rotate(-52.59)"/><ellipse class="cls-17" cx="1144.73" cy="180.89" rx="60.45" ry="45.7" transform="translate(305.58 980.24) rotate(-52.59)"/><ellipse class="cls-18" cx="1145.32" cy="180.48" rx="52.65" ry="37.78" transform="translate(306.14 980.55) rotate(-52.59)"/><g id="qk1lAn"><path class="cls-19" d="M1126.73,186.5a.19.19,0,0,0,.12,0c.43-.33.87-.64,1.3-1l6.14-5,10.49-8.57,0,0c0,.1,0,.2,0,.3q0,10.47,0,21a3.71,3.71,0,0,0,.12.65,1.78,1.78,0,0,1-.57,0q-8.82-3.57-17.62-7.17Z"/><path class="cls-19" d="M1144.79,146.63a4.23,4.23,0,0,1,.33.41l17.4,28.81c.08.14.15.3.22.44-1.35-.3-2.7-.59-4-.92l-13.89-3.44,0,0q0-5.81,0-11.62,0-6.81,0-13.62Z"/><path class="cls-12" d="M1144.82,171.93l13.89,3.44c1.33.33,2.68.62,4,.92a1.8,1.8,0,0,1-.23.46l-17.47,17-.12.08a3.71,3.71,0,0,1-.12-.65q0-10.49,0-21C1144.8,172.13,1144.81,172,1144.82,171.93Z"/><path class="cls-20" d="M1144.8,215.11c-.57-.71-1.14-1.41-1.69-2.15l-15.77-21.49a1.46,1.46,0,0,1-.3-.71l1.2.47q7.83,3.2,15.69,6.39a7.94,7.94,0,0,0,1,.24,7.8,7.8,0,0,0-.12.94C1144.79,204.24,1144.8,209.67,1144.8,215.11Z"/><path class="cls-19" d="M1144.8,215.11c0-5.44,0-10.87,0-16.31a7.8,7.8,0,0,1,.12-.94l17.55-17.09.1.1c-.09.19-.16.39-.26.58l-17.19,33.16C1145,214.78,1144.9,214.94,1144.8,215.11Z"/><path class="cls-20" d="M1144.81,146.66q0,6.81,0,13.62,0,5.82,0,11.62l-10.49,8.57-6.14,5c-.43.35-.87.66-1.3,1,1.2-2.7,2.39-5.41,3.6-8.11q7-15.45,13.92-30.91A8.62,8.62,0,0,1,1144.81,146.66Z"/></g><polygon class="cls-7" points="335.64 749.73 468.79 821.99 401.04 858.45 267.89 786.2 335.64 749.73"/><polygon class="cls-8" points="334.96 880.44 335.03 816.71 528.03 712.58 528.03 776.61 334.96 880.44"/><path class="cls-9" d="M335,880.44V816.57L169.84,727a19.54,19.54,0,0,0-28.91,17v9.77a37.86,37.86,0,0,0,20.14,33.4Z"/><path class="cls-10" d="M152.13,726.46a20.71,20.71,0,0,1,1.91-1,20.71,20.71,0,0,1,1.91-1,19.65,19.65,0,0,1,1.92-1,18.41,18.41,0,0,1,1.91-1c.62-.37,1.25-.72,1.91-1s1.25-.72,1.91-1,1.26-.72,1.91-1a20.61,20.61,0,0,1,1.91-1,18.56,18.56,0,0,1,1.91-1,19.65,19.65,0,0,1,1.92-1,18.41,18.41,0,0,1,1.91-1,19.49,19.49,0,0,1,1.91-1,20.71,20.71,0,0,1,1.91-1,20.71,20.71,0,0,1,1.91-1,20.71,20.71,0,0,1,1.91-1,19.65,19.65,0,0,1,1.92-1,42362190037513.1,42362190037513.1,0,0,0,3.82-2.06,19.49,19.49,0,0,1,1.91-1,20.71,20.71,0,0,1,1.91-1,42362190037514.17,42362190037514.17,0,0,0,3.82-2.06,19.65,19.65,0,0,1,1.92-1,18.41,18.41,0,0,1,1.91-1,18.41,18.41,0,0,1,1.91-1,19.49,19.49,0,0,1,1.91-1,42362190037430.05,42362190037430.05,0,0,1,3.82-2.06,20.71,20.71,0,0,1,1.91-1c.62-.37,1.26-.72,1.92-1a42362190037484.11,42362190037484.11,0,0,1,3.82-2.06,19.41,19.41,0,0,1,1.91-1,18.56,18.56,0,0,1,1.91-1,42362190037428,42362190037428,0,0,1,3.82-2.06,19.65,19.65,0,0,1,1.92-1,42362190037520.65,42362190037520.65,0,0,0,3.82-2.06,19.49,19.49,0,0,1,1.91-1,20.71,20.71,0,0,1,1.91-1,20.71,20.71,0,0,1,1.91-1,19.65,19.65,0,0,1,1.92-1,48413931471412.32,48413931471412.32,0,0,1,3.82-2.06,19.49,19.49,0,0,1,1.91-1,48413931471383.85,48413931471383.85,0,0,0,3.82-2.06,20.71,20.71,0,0,1,1.91-1,19.65,19.65,0,0,1,1.92-1,48413931471384.35,48413931471384.35,0,0,0,3.82-2.06,19.49,19.49,0,0,1,1.91-1c.62-.37,1.26-.72,1.91-1s1.26-.72,1.91-1,1.26-.72,1.91-1,1.26-.72,1.92-1a20.52,20.52,0,0,1,1.91-1,18.34,18.34,0,0,1,1.91-1,17.57,17.57,0,0,1,1.91-1,67779504059987.59,67779504059987.59,0,0,1,3.82-2.06,20.71,20.71,0,0,1,1.91-1,19.65,19.65,0,0,1,1.92-1,37655280033320.43,37655280033320.43,0,0,1,3.82-2.06,19.49,19.49,0,0,1,1.91-1,37655280033301.65,37655280033301.65,0,0,0,3.82-2.06,20.71,20.71,0,0,1,1.91-1,19.65,19.65,0,0,1,1.92-1,67779504059926.78,67779504059926.78,0,0,0,3.82-2.06,19.49,19.49,0,0,1,1.91-1,169448760149927.75,169448760149927.75,0,0,0,3.82-2.06,19.65,19.65,0,0,1,1.92-1,18.41,18.41,0,0,1,1.91-1,20.52,20.52,0,0,1,1.91-1c.62-.37,1.25-.72,1.91-1s1.25-.72,1.91-1,1.26-.72,1.91-1a20.61,20.61,0,0,1,1.91-1,17.72,17.72,0,0,1,1.92-1,16.69,16.69,0,0,1,1.91-1,18.41,18.41,0,0,1,1.91-1,19.49,19.49,0,0,1,1.91-1,169448760149886.12,169448760149886.12,0,0,1,3.82-2.06,20.71,20.71,0,0,1,1.91-1,19.65,19.65,0,0,1,1.92-1,169448760149933.12,169448760149933.12,0,0,0,3.82-2.06,19.49,19.49,0,0,1,1.91-1,169448760149932.44,169448760149932.44,0,0,0,3.82-2.06,20.71,20.71,0,0,1,1.91-1,19.65,19.65,0,0,1,1.92-1,172138423009447.25,172138423009447.25,0,0,0,3.82-2.06A19.49,19.49,0,0,1,362.9,623L528,712.58v63.87l-1.91-1v2.06l-1.91-1v2.06l-1.92-1v2.06l-1.91-1v2.06l-1.91-1v2.06l-1.91-1v2.06l-1.91-1v2.06l-1.91-1v2.06l-1.92-1v2.06l-1.91-1v2.06l-1.91-1v2.06l-1.91-1v2l-1.91-1v2.05l-1.91-1v2.05l-1.91-1v2l-1.92-1v2l-1.91-1V794l-1.91-1V795l-1.91-1v2l-1.91-1v2l-1.91-1v2.05l-1.91-1v2.05l-1.92-1v2l-1.91-1v2l-1.91-1v2.05l-1.91-1v2.06l-1.91-1v2.06l-1.91-1v2.06l-1.91-1v2.06l-1.92-1v2.06l-1.91-1v2.06l-1.91-1v2.06l-1.91-1v2.06l-1.91-1v2.06l-1.91-1v2.06l-1.92-1v2.06l-1.91-1v2l-1.91-1v2.05l-1.91-1v2.05l-1.91-1v2l-1.91-1v2l-1.91-1v2.05l-1.92-1v2.05l-1.91-1v2l-1.91-1v2l-1.91-1v2l-1.91-1v2.05l-1.91-1v2l-1.91-1v2l-1.92-1v2l-1.91-1V829l-1.91-1V830l-1.91-1V831l-1.91-1v2.06l-1.91-1v2.06l-1.91-1v2.06l-1.92-1v2.06l-1.91-1v2.06l-1.91-1v2.06l-1.91-1v2.06l-1.91-1v2.06l-1.91-1v2l-1.91-1v2l-1.92-1v2.05l-1.91-1v2l-1.91-1v2l-1.91-1v2l-1.91-1v2.05l-1.91-1v2l-1.92-1v2l-1.91-1v2l-1.91-1v2.05l-1.91-1v2.05l-1.91-1v2l-1.91-1v2l-1.91-1v2.06l-1.92-1v2.06l-1.91-1v2.06l-1.91-1v2.06l-1.91-1v2.06l-1.91-1v2.06l-1.91-1v2.06l-1.91-1v2.06l-1.92-1v2.06l-1.91-1V864l-1.91-1V865l-1.91-1v2l-1.91-1v2l-1.91-1v2.05l-1.91-1v2.05l-1.92-1v2l-1.91-1v2l-1.91-1v2.05l-1.91-1v2.05l-1.91-1v2l-1.91-1v2l-1.91-1v2.05l-1.92-1v2.05l-1.91-1v2l-1.91-1v2l-1.91-1v2.06l-173.9-93.25a37.86,37.86,0,0,1-20.14-33.4V744A19.29,19.29,0,0,1,152.13,726.46Z"/><polygon class="cls-9" points="334.96 880.44 335.03 816.71 528.03 712.58 528.03 776.61 334.96 880.44"/><path class="cls-8" d="M335,880.44V816.57L169.84,727a19.54,19.54,0,0,0-28.91,17v9.77a37.86,37.86,0,0,0,20.14,33.4Z"/><path class="cls-11" d="M152.13,726.46a20.71,20.71,0,0,1,1.91-1,20.71,20.71,0,0,1,1.91-1,19.65,19.65,0,0,1,1.92-1,18.41,18.41,0,0,1,1.91-1c.62-.37,1.25-.72,1.91-1s1.25-.72,1.91-1,1.26-.72,1.91-1a20.61,20.61,0,0,1,1.91-1,18.56,18.56,0,0,1,1.91-1,19.65,19.65,0,0,1,1.92-1,18.41,18.41,0,0,1,1.91-1,19.49,19.49,0,0,1,1.91-1,20.71,20.71,0,0,1,1.91-1,20.71,20.71,0,0,1,1.91-1,20.71,20.71,0,0,1,1.91-1,19.65,19.65,0,0,1,1.92-1,42362190037513.1,42362190037513.1,0,0,0,3.82-2.06,19.49,19.49,0,0,1,1.91-1,20.71,20.71,0,0,1,1.91-1,42362190037514.17,42362190037514.17,0,0,0,3.82-2.06,19.65,19.65,0,0,1,1.92-1,18.41,18.41,0,0,1,1.91-1,18.41,18.41,0,0,1,1.91-1,19.49,19.49,0,0,1,1.91-1,42362190037430.05,42362190037430.05,0,0,1,3.82-2.06,20.71,20.71,0,0,1,1.91-1c.62-.37,1.26-.72,1.92-1a42362190037484.11,42362190037484.11,0,0,1,3.82-2.06,19.41,19.41,0,0,1,1.91-1,18.56,18.56,0,0,1,1.91-1,42362190037428,42362190037428,0,0,1,3.82-2.06,19.65,19.65,0,0,1,1.92-1,42362190037520.65,42362190037520.65,0,0,0,3.82-2.06,19.49,19.49,0,0,1,1.91-1,20.71,20.71,0,0,1,1.91-1,20.71,20.71,0,0,1,1.91-1,19.65,19.65,0,0,1,1.92-1,48413931471412.32,48413931471412.32,0,0,1,3.82-2.06,19.49,19.49,0,0,1,1.91-1,48413931471383.85,48413931471383.85,0,0,0,3.82-2.06,20.71,20.71,0,0,1,1.91-1,19.65,19.65,0,0,1,1.92-1,48413931471384.35,48413931471384.35,0,0,0,3.82-2.06,19.49,19.49,0,0,1,1.91-1c.62-.37,1.26-.72,1.91-1s1.26-.72,1.91-1,1.26-.72,1.91-1,1.26-.72,1.92-1a20.52,20.52,0,0,1,1.91-1,18.34,18.34,0,0,1,1.91-1,17.57,17.57,0,0,1,1.91-1,67779504059987.59,67779504059987.59,0,0,1,3.82-2.06,20.71,20.71,0,0,1,1.91-1,19.65,19.65,0,0,1,1.92-1,37655280033320.43,37655280033320.43,0,0,1,3.82-2.06,19.49,19.49,0,0,1,1.91-1,37655280033301.65,37655280033301.65,0,0,0,3.82-2.06,20.71,20.71,0,0,1,1.91-1,19.65,19.65,0,0,1,1.92-1,67779504059926.78,67779504059926.78,0,0,0,3.82-2.06,19.49,19.49,0,0,1,1.91-1,169448760149927.75,169448760149927.75,0,0,0,3.82-2.06,19.65,19.65,0,0,1,1.92-1,18.41,18.41,0,0,1,1.91-1,20.52,20.52,0,0,1,1.91-1c.62-.37,1.25-.72,1.91-1s1.25-.72,1.91-1,1.26-.72,1.91-1a20.61,20.61,0,0,1,1.91-1,17.72,17.72,0,0,1,1.92-1,16.69,16.69,0,0,1,1.91-1,18.41,18.41,0,0,1,1.91-1,19.49,19.49,0,0,1,1.91-1,169448760149886.12,169448760149886.12,0,0,1,3.82-2.06,20.71,20.71,0,0,1,1.91-1,19.65,19.65,0,0,1,1.92-1,169448760149933.12,169448760149933.12,0,0,0,3.82-2.06,19.49,19.49,0,0,1,1.91-1,169448760149932.44,169448760149932.44,0,0,0,3.82-2.06,20.71,20.71,0,0,1,1.91-1,19.65,19.65,0,0,1,1.92-1,172138423009447.25,172138423009447.25,0,0,0,3.82-2.06A19.49,19.49,0,0,1,362.9,623L528,712.58h0v63.87h0v.16L336.88,879.41h0l-1.91,1h0L161.07,787.19a37.86,37.86,0,0,1-20.14-33.4V744A19.29,19.29,0,0,1,152.13,726.46Z"/><path class="cls-11" d="M528,712.58,335,816.57,169.84,727s-9.24-6.31-17.71-.51"/><path class="cls-10" d="M406.27,696.86l62.52,33.93L401,767.25l-51.69-28a23.24,23.24,0,0,1,.08-40.89l2.88-1.56A56.79,56.79,0,0,1,406.27,696.86Z"/><polygon class="cls-9" points="401.03 767.27 468.75 730.78 468.75 822.03 401.03 858.45 401.03 767.27"/><path class="cls-11" d="M349.43,698.31l2.88-1.55a56.79,56.79,0,0,1,54,.1l62.52,33.93,0,0V822L401,858.45v-91.2l-51.69-28A23.24,23.24,0,0,1,349.43,698.31Z"/><ellipse class="cls-8" cx="376.43" cy="715.36" rx="23.87" ry="15.4"/><polygon class="cls-10" points="238.27 680.61 301.79 714.93 365.3 680.61 365.3 611.54 302.26 576.79 238.27 611.54 238.27 680.61"/><polygon class="cls-8" points="302.26 714.93 301.84 646.51 238.35 611.87 238.35 680.72 302.26 714.93"/><polygon class="cls-12" points="324.78 702.38 324.92 656.97 346.65 645.12 346.65 690.67 324.78 702.38"/><polygon class="cls-21" points="238.27 680.61 301.79 714.93 365.3 680.61 365.3 611.54 301.84 577.22 238.27 611.54 238.27 680.61"/><rect class="cls-13" x="411.03" y="627" width="37.01" height="57.12" rx="18.5"/><circle class="cls-14" cx="429.05" cy="618.57" r="14.12"/><rect class="cls-13" x="294.13" y="722.49" width="26.83" height="41.42" rx="13.42"/><circle class="cls-15" cx="307.27" cy="716.26" r="12.35"/><rect class="cls-14" x="223.67" y="664.71" width="26.83" height="41.42" rx="13.42"/><circle class="cls-13" cx="236.8" cy="658.48" r="12.35"/><path class="cls-22" d="M297.84,571.44a19.07,19.07,0,0,0-20.21,4.42l-7.19-2.69-9.3,1.91L256,569l-5.37-2-6,2.15-4.56-4.9-9.83-3.68-8.37,3.73,3.65,8.88,46.56,17.42a19.07,19.07,0,1,0,25.71-19.13Zm.85,15.86a4.52,4.52,0,1,1-5.82,2.65A4.51,4.51,0,0,1,298.69,587.3Z"/><path class="cls-13" d="M286.05,581.59a19.06,19.06,0,0,0-16.49,12.48l-7.66.57-7.64,5.63-7.19-3.4-5.72.42-4.54,4.47-6.19-2.54-10.47.78-6,6.89,7,6.53,49.57-3.69a19.07,19.07,0,1,0,15.33-28.14Zm7.42,14a4.52,4.52,0,1,1-4.17,4.84A4.52,4.52,0,0,1,293.47,595.63Z"/><path class="cls-11" d="M301.15,573.12A29.63,29.63,0,1,1,293,596.06"/><circle class="cls-10" cx="435.71" cy="797.4" r="8.1"/><circle class="cls-10" cx="479.14" cy="820.03" r="8.1"/><circle class="cls-10" cx="522.56" cy="842.65" r="8.1"/><circle class="cls-10" cx="565.99" cy="865.27" r="8.1"/><circle class="cls-10" cx="609.41" cy="887.9" r="8.1"/><circle class="cls-10" cx="652.83" cy="910.52" r="8.1"/><circle class="cls-10" cx="696.26" cy="933.14" r="8.1"/><circle class="cls-10" cx="739.68" cy="955.77" r="8.1"/><circle class="cls-10" cx="782.94" cy="944.17" r="8.1"/><circle class="cls-10" cx="826.15" cy="921.13" r="8.1"/><circle class="cls-10" cx="869.36" cy="898.1" r="8.1"/><circle class="cls-10" cx="912.57" cy="875.06" r="8.1"/><circle class="cls-10" cx="955.77" cy="852.02" r="8.1"/><circle class="cls-10" cx="998.98" cy="828.99" r="8.1"/><circle class="cls-10" cx="1042.19" cy="805.95" r="8.1"/><polygon class="cls-10" points="710.01 973.24 736.79 987.71 763.57 973.24 763.57 944.12 736.99 929.47 710.01 944.12 710.01 973.24"/><polygon class="cls-8" points="736.99 987.71 736.81 958.86 710.04 944.26 710.04 973.29 736.99 987.71"/><polygon class="cls-10" points="736.62 987.71 736.8 958.86 763.57 944.26 763.57 973.29 736.62 987.71"/><polygon class="cls-11" points="710.01 973.24 736.79 987.71 763.57 973.24 763.57 944.12 736.81 929.65 710.01 944.12 710.01 973.24"/><ellipse class="cls-17" cx="740.6" cy="858.73" rx="46.84" ry="60.65" transform="translate(-368.42 622.12) rotate(-37.18)"/><ellipse class="cls-23" cx="733.41" cy="864.67" rx="46.84" ry="60.65" transform="translate(-373.47 618.98) rotate(-37.18)"/><ellipse class="cls-23" cx="733.3" cy="864.75" rx="39.6" ry="53.95" transform="matrix(0.8, -0.6, 0.6, 0.8, -373.1, 616.96)"/><path class="cls-9" d="M749.2,872.28c-.82-.8-.05-.8.36-.79,5.38.15,8.28-8.53,2.75-14.69a27.43,27.43,0,0,0-4.9-4.46c-1.19-.8-1.3-1.47-.89-2.49.66-1.67,1.17-3.44,1.8-5.13.27-.74.06-1.2-.72-1.63s-1.82-1-2.69-1.63-1.29-.36-1.54.45c-.39,1.27-.84,2.51-1.28,3.76-.92,2.64-.91,2.61-3.63.87-.86-.55-1-1-.68-1.75.64-1.77,1.22-3.58,1.86-5.35.25-.69,0-1.15-.68-1.56-1-.58-2-1.16-2.92-1.77-.73-.46-1.08-.27-1.3.41-.57,1.77-1.25,3.48-1.78,5.27-.31,1.05-.8,1.22-1.88.53-2.41-1.52-4.87-2.94-7.29-4.44-.76-.47-1.19-.43-1.41.35-.31,1-.64,2-1,3-.32.76,0,1.17.73,1.6a29.84,29.84,0,0,1,3,1.92,3.15,3.15,0,0,1,1.4,3.6c-.2.66-.43,1.29-.66,1.94q-3.07,8.94-6.17,17.88c-.5,1.44-1.31,1.65-2.82.8-.72-.4-1.43-.85-2.13-1.31s-1.25-.48-1.62.23c-.45.88-1,1.69-1.48,2.55-.87,1.51-.86,1.52.88,2.58,2.28,1.39,4.55,2.81,6.85,4.15.9.52,1.08,1,.78,1.83-.68,1.83-1.27,3.71-2,5.55a1.14,1.14,0,0,0,.65,1.56c.94.56,1.88,1.11,2.81,1.71.75.49,1.18.39,1.43-.35.46-1.4,1-2.75,1.45-4.17.94-3,.79-2.29,3.34-.87,1.09.6,1.21,1.23.87,2.14-.66,1.72-1.19,3.51-1.85,5.23-.29.77,0,1.19.73,1.61s1.74,1,2.58,1.56,1.38.5,1.66-.42c.56-1.81,1.25-3.56,1.82-5.37.27-.84.74-1,1.59-.51a24,24,0,0,0,4.78,2c.78.26,1.57.6,2.36.78,3.69.88,6.66.15,8.58-2.71C753.62,882.82,754.46,877.36,749.2,872.28Zm-9.27,8.33a7.77,7.77,0,0,1-3.74-.58,43.18,43.18,0,0,1-8-4.19,1,1,0,0,1-.53-1.28l2.91-8.46c.19-.57.59-.68,1.18-.33a41.88,41.88,0,0,1,8.17,5.65,11.74,11.74,0,0,1,2.14,2.67C743.79,877.07,742.74,880.3,739.93,880.61Zm3.45-15.87a6.49,6.49,0,0,1-3.82-.36,36.12,36.12,0,0,1-6.26-3.29c-.56-.35-.75-.74-.57-1.27q1.32-3.78,2.63-7.58c.18-.52.49-.66,1.06-.34a28.19,28.19,0,0,1,7,5C746.26,859.82,746.23,863.85,743.38,864.74Z"/><polygon class="cls-7" points="1111.75 778.23 1027.25 824.08 1070.24 847.22 1154.75 801.37 1111.75 778.23"/><polygon class="cls-8" points="1112.18 861.18 1112.13 820.74 989.65 754.64 989.65 795.28 1112.18 861.18"/><path class="cls-9" d="M1112.18,861.18V820.64L1217,763.78a12.41,12.41,0,0,1,18.35,10.82v6.2a24,24,0,0,1-12.78,21.2Z"/><path class="cls-10" d="M1228.21,763.46a12.81,12.81,0,0,0-1.21-.66c-.39-.24-.8-.45-1.21-.65a11,11,0,0,0-1.22-.65,12.81,12.81,0,0,0-1.21-.66c-.39-.24-.8-.45-1.21-.65a11.76,11.76,0,0,0-1.21-.65c-.4-.24-.8-.46-1.22-.66s-.8-.45-1.21-.65a11.76,11.76,0,0,0-1.21-.65c-.4-.24-.8-.46-1.22-.66a12.73,12.73,0,0,0-1.21-.65,11.76,11.76,0,0,0-1.21-.65c-.4-.24-.8-.46-1.22-.66a12.73,12.73,0,0,0-1.21-.65,11.76,11.76,0,0,0-1.21-.65c-.4-.24-.8-.46-1.22-.66a12.73,12.73,0,0,0-1.21-.65,11.76,11.76,0,0,0-1.21-.65,13,13,0,0,0-1.22-.66,10.81,10.81,0,0,0-1.21-.65,11.76,11.76,0,0,0-1.21-.65c-.39-.24-.8-.46-1.21-.66a11.91,11.91,0,0,0-1.22-.65,12.81,12.81,0,0,0-1.21-.66c-.39-.23-.8-.45-1.21-.65a11.91,11.91,0,0,0-1.22-.65,12.81,12.81,0,0,0-1.21-.66c-.39-.24-.8-.45-1.21-.65a11.91,11.91,0,0,0-1.22-.65,12.81,12.81,0,0,0-1.21-.66c-.39-.24-.8-.45-1.21-.65a11,11,0,0,0-1.22-.65,12.81,12.81,0,0,0-1.21-.66c-.39-.24-.8-.45-1.21-.65a11,11,0,0,0-1.22-.65,12.81,12.81,0,0,0-1.21-.66c-.39-.24-.8-.45-1.21-.65a11.76,11.76,0,0,0-1.21-.65c-.4-.24-.8-.46-1.22-.66a12.73,12.73,0,0,0-1.21-.65,11.76,11.76,0,0,0-1.21-.65c-.4-.24-.8-.46-1.22-.66a12.73,12.73,0,0,0-1.21-.65,11.76,11.76,0,0,0-1.21-.65c-.4-.24-.8-.46-1.22-.66a12.73,12.73,0,0,0-1.21-.65,11.76,11.76,0,0,0-1.21-.65,13,13,0,0,0-1.22-.66,12.73,12.73,0,0,0-1.21-.65,11.76,11.76,0,0,0-1.21-.65,13,13,0,0,0-1.22-.66,10.81,10.81,0,0,0-1.21-.65,11.76,11.76,0,0,0-1.21-.65c-.39-.24-.8-.46-1.21-.66a11.91,11.91,0,0,0-1.22-.65,12.81,12.81,0,0,0-1.21-.66c-.39-.24-.8-.45-1.21-.65a11.91,11.91,0,0,0-1.22-.65,12.81,12.81,0,0,0-1.21-.66c-.39-.24-.8-.45-1.21-.65a11.91,11.91,0,0,0-1.22-.65,12.81,12.81,0,0,0-1.21-.66c-.39-.24-.8-.45-1.21-.65a11,11,0,0,0-1.22-.65,12.81,12.81,0,0,0-1.21-.66c-.39-.24-.8-.45-1.21-.65a11.76,11.76,0,0,0-1.21-.65c-.4-.24-.8-.46-1.22-.66s-.8-.45-1.21-.65a11.76,11.76,0,0,0-1.21-.65c-.4-.24-.8-.46-1.22-.66a12.73,12.73,0,0,0-1.21-.65,11.76,11.76,0,0,0-1.21-.65c-.4-.24-.8-.46-1.22-.66a12.73,12.73,0,0,0-1.21-.65,11.76,11.76,0,0,0-1.21-.65c-.4-.24-.8-.46-1.22-.66a12.73,12.73,0,0,0-1.21-.65,11.76,11.76,0,0,0-1.21-.65,13,13,0,0,0-1.22-.66,12.73,12.73,0,0,0-1.21-.65,11.76,11.76,0,0,0-1.21-.65,13,13,0,0,0-1.22-.66,10.81,10.81,0,0,0-1.21-.65c-.39-.24-.8-.46-1.21-.66s-.8-.45-1.21-.65a11.91,11.91,0,0,0-1.22-.65,12.81,12.81,0,0,0-1.21-.66c-.39-.24-.8-.45-1.21-.65a11.91,11.91,0,0,0-1.22-.65,12.81,12.81,0,0,0-1.21-.66c-.39-.24-.8-.45-1.21-.65a11,11,0,0,0-1.22-.65,12.81,12.81,0,0,0-1.21-.66c-.39-.24-.8-.45-1.21-.65a11,11,0,0,0-1.22-.65,12.81,12.81,0,0,0-1.21-.66c-.39-.24-.8-.45-1.21-.65a11,11,0,0,0-1.22-.65,12.81,12.81,0,0,0-1.21-.66,12.36,12.36,0,0,0-12.45-.33l-104.8,56.87v40.53l1.21-.65v1.31l1.22-.65v1.3l1.21-.65v1.3l1.21-.65v1.31l1.22-.65v1.3l1.21-.65v1.3l1.21-.65v1.31l1.22-.65v1.3l1.21-.65v1.3l1.21-.65v1.31l1.21-.65v1.3l1.22-.65V803l1.21-.65v1.31l1.21-.65v1.3l1.22-.65V805l1.21-.65v1.31l1.21-.65v1.3l1.22-.65v1.3l1.21-.65v1.31l1.21-.65v1.3l1.22-.65v1.3l1.21-.65v1.31l1.21-.65v1.3l1.22-.65v1.3l1.21-.65v1.31l1.21-.65v1.3l1.21-.65v1.31l1.22-.66v1.31l1.21-.65v1.3l1.21-.65v1.31l1.22-.66v1.31l1.21-.65v1.3l1.21-.65v1.31l1.22-.65v1.3l1.21-.65v1.3l1.21-.65v1.31l1.22-.65v1.3l1.21-.65V820l1.21-.65v1.31l1.22-.65v1.3l1.21-.65V822l1.21-.65v1.31l1.21-.65v1.3l1.22-.65v1.3l1.21-.65v1.31l1.21-.65v1.3l1.22-.65v1.3l1.21-.65v1.31l1.21-.65v1.3l1.22-.65v1.3l1.21-.65v1.31l1.21-.65v1.3l1.22-.65v1.3l1.21-.65v1.31l1.21-.65v1.3l1.21-.65v1.3l1.22-.65v1.31l1.21-.65v1.3l1.21-.65v1.31l1.22-.66v1.31l1.21-.65V835l1.21-.65v1.31l1.22-.65v1.3l1.21-.65V837l1.21-.65v1.31l1.22-.65v1.3l1.21-.65V839l1.21-.65v1.31l1.22-.65v1.3l1.21-.65v1.3l1.21-.65v1.31l1.22-.65v1.3l1.21-.65v1.3l1.21-.65v1.31l1.21-.65v1.3l1.22-.65v1.3l1.21-.65v1.31l1.21-.65v1.3l1.22-.65v1.3l1.21-.65v1.31l1.21-.65v1.3l1.22-.65v1.3l1.21-.65v1.31l1.21-.65v1.3l1.22-.65v1.3l1.21-.65v1.31l1.21-.65V852l1.21-.65v1.31l1.22-.66v1.31l1.21-.65V854l1.21-.65v1.31l1.22-.66v1.31l1.21-.65V856l1.21-.65v1.31l1.22-.65v1.3l1.21-.65v1.3l1.21-.65v1.31l1.22-.65v1.3l1.21-.65v1.3l1.21-.65v1.31l1.22-.65v1.3L1222.54,802a24,24,0,0,0,12.78-21.2v-6.2A12.23,12.23,0,0,0,1228.21,763.46Z"/><polygon class="cls-8" points="1112.18 861.18 1112.13 820.74 989.65 754.64 989.65 795.28 1112.18 861.18"/><path class="cls-9" d="M1112.18,861.18V820.64L1217,763.78a12.41,12.41,0,0,1,18.35,10.82v6.2a24,24,0,0,1-12.78,21.2Z"/><path class="cls-11" d="M1228.21,763.46a12.81,12.81,0,0,0-1.21-.66c-.39-.24-.8-.45-1.21-.65a11,11,0,0,0-1.22-.65,12.81,12.81,0,0,0-1.21-.66c-.39-.24-.8-.45-1.21-.65a11.76,11.76,0,0,0-1.21-.65c-.4-.24-.8-.46-1.22-.66s-.8-.45-1.21-.65a11.76,11.76,0,0,0-1.21-.65c-.4-.24-.8-.46-1.22-.66a12.73,12.73,0,0,0-1.21-.65,11.76,11.76,0,0,0-1.21-.65c-.4-.24-.8-.46-1.22-.66a12.73,12.73,0,0,0-1.21-.65,11.76,11.76,0,0,0-1.21-.65c-.4-.24-.8-.46-1.22-.66a12.73,12.73,0,0,0-1.21-.65,11.76,11.76,0,0,0-1.21-.65,13,13,0,0,0-1.22-.66,10.81,10.81,0,0,0-1.21-.65,11.76,11.76,0,0,0-1.21-.65c-.39-.24-.8-.46-1.21-.66a11.91,11.91,0,0,0-1.22-.65,12.81,12.81,0,0,0-1.21-.66c-.39-.23-.8-.45-1.21-.65a11.91,11.91,0,0,0-1.22-.65,12.81,12.81,0,0,0-1.21-.66c-.39-.24-.8-.45-1.21-.65a11.91,11.91,0,0,0-1.22-.65,12.81,12.81,0,0,0-1.21-.66c-.39-.24-.8-.45-1.21-.65a11,11,0,0,0-1.22-.65,12.81,12.81,0,0,0-1.21-.66c-.39-.24-.8-.45-1.21-.65a11,11,0,0,0-1.22-.65,12.81,12.81,0,0,0-1.21-.66c-.39-.24-.8-.45-1.21-.65a11.76,11.76,0,0,0-1.21-.65c-.4-.24-.8-.46-1.22-.66a12.73,12.73,0,0,0-1.21-.65,11.76,11.76,0,0,0-1.21-.65c-.4-.24-.8-.46-1.22-.66a12.73,12.73,0,0,0-1.21-.65,11.76,11.76,0,0,0-1.21-.65c-.4-.24-.8-.46-1.22-.66a12.73,12.73,0,0,0-1.21-.65,11.76,11.76,0,0,0-1.21-.65,13,13,0,0,0-1.22-.66,12.73,12.73,0,0,0-1.21-.65,11.76,11.76,0,0,0-1.21-.65,13,13,0,0,0-1.22-.66,10.81,10.81,0,0,0-1.21-.65,11.76,11.76,0,0,0-1.21-.65c-.39-.24-.8-.46-1.21-.66a11.91,11.91,0,0,0-1.22-.65,12.81,12.81,0,0,0-1.21-.66c-.39-.24-.8-.45-1.21-.65a11.91,11.91,0,0,0-1.22-.65,12.81,12.81,0,0,0-1.21-.66c-.39-.24-.8-.45-1.21-.65a11.91,11.91,0,0,0-1.22-.65,12.81,12.81,0,0,0-1.21-.66c-.39-.24-.8-.45-1.21-.65a11,11,0,0,0-1.22-.65,12.81,12.81,0,0,0-1.21-.66c-.39-.24-.8-.45-1.21-.65a11.76,11.76,0,0,0-1.21-.65c-.4-.24-.8-.46-1.22-.66s-.8-.45-1.21-.65a11.76,11.76,0,0,0-1.21-.65c-.4-.24-.8-.46-1.22-.66a12.73,12.73,0,0,0-1.21-.65,11.76,11.76,0,0,0-1.21-.65c-.4-.24-.8-.46-1.22-.66a12.73,12.73,0,0,0-1.21-.65,11.76,11.76,0,0,0-1.21-.65c-.4-.24-.8-.46-1.22-.66a12.73,12.73,0,0,0-1.21-.65,11.76,11.76,0,0,0-1.21-.65,13,13,0,0,0-1.22-.66,12.73,12.73,0,0,0-1.21-.65,11.76,11.76,0,0,0-1.21-.65,13,13,0,0,0-1.22-.66,10.81,10.81,0,0,0-1.21-.65c-.39-.24-.8-.46-1.21-.66s-.8-.45-1.21-.65a11.91,11.91,0,0,0-1.22-.65,12.81,12.81,0,0,0-1.21-.66c-.39-.24-.8-.45-1.21-.65a11.91,11.91,0,0,0-1.22-.65,12.81,12.81,0,0,0-1.21-.66c-.39-.24-.8-.45-1.21-.65a11,11,0,0,0-1.22-.65,12.81,12.81,0,0,0-1.21-.66c-.39-.24-.8-.45-1.21-.65a11,11,0,0,0-1.22-.65,12.81,12.81,0,0,0-1.21-.66c-.39-.24-.8-.45-1.21-.65a11,11,0,0,0-1.22-.65,12.81,12.81,0,0,0-1.21-.66,12.36,12.36,0,0,0-12.45-.33l-104.8,56.87h0v40.53h0v.11L1111,860.53h0l1.22.65h0L1222.54,802a24,24,0,0,0,12.78-21.2v-6.2A12.23,12.23,0,0,0,1228.21,763.46Z"/><path class="cls-10" d="M1066.93,744.67l-39.68,21.53,43,23.15,32.8-17.8a14.75,14.75,0,0,0,0-26l-1.83-1A36,36,0,0,0,1066.93,744.67Z"/><ellipse class="cls-8" cx="1085.86" cy="756.41" rx="15.15" ry="9.77"/><path class="cls-11" d="M989.65,754.65l122.53,66L1217,763.78s5.87-4,11.24-.32"/><polygon class="cls-8" points="1070.25 789.36 1027.27 766.2 1027.27 824.11 1070.25 847.22 1070.25 789.36"/><path class="cls-11" d="M1103,745.59l-1.83-1a36,36,0,0,0-34.24.06l-39.68,21.53,0,0v57.89l43,23.11V789.36h0l32.8-17.8A14.75,14.75,0,0,0,1103,745.59Z"/><rect class="cls-14" x="1030.77" y="723.98" width="16.99" height="26.22" rx="8.49"/><circle class="cls-13" cx="1039.09" cy="720.03" r="7.82"/><rect class="cls-12" x="1113.01" y="657.95" width="7.05" height="53.06" rx="3.53"/><rect class="cls-23" x="1091.87" y="612.18" width="49.32" height="69.19" rx="23.38"/><path class="cls-24" d="M1171.4,736.41l-27.74,15a16.07,16.07,0,0,1-15.32,0l-27.74-15a16.12,16.12,0,0,1-8.46-14.18v-12a43.83,43.83,0,0,1,23-38.56h0a43.82,43.82,0,0,1,41.68,0l0,0a43.84,43.84,0,0,1,23,38.58v11.93A16.12,16.12,0,0,1,1171.4,736.41Z"/><path class="cls-12" d="M1120.12,746.87l-.07-24.06a12.34,12.34,0,0,0-6.42-10.78h0a5.82,5.82,0,0,0-8.61,5.1v21.66Z"/><rect class="cls-12" x="1075.48" y="666.16" width="7.05" height="53.06" rx="3.53"/><rect class="cls-23" x="1054.34" y="620.39" width="49.32" height="69.19" rx="23.38"/><rect class="cls-2" x="1109.37" y="619.3" width="30.16" height="42.31" rx="14.29"/><rect class="cls-2" x="1072.01" y="628.54" width="30.16" height="42.31" rx="14.29"/><ellipse class="cls-25" cx="1144.92" cy="693.41" rx="24.45" ry="23.3"/><rect class="cls-12" x="1181.95" y="729.76" width="5.78" height="33.25" rx="2.89"/><rect class="cls-23" x="1165.82" y="695.7" width="38.05" height="53.38" rx="19.02"/><rect class="cls-2" x="1178.45" y="700.78" width="24.08" height="35.12" rx="11.64"/><rect class="cls-15" x="1134.16" y="758.29" width="16.99" height="26.22" rx="8.49"/><circle class="cls-15" cx="1142.47" cy="754.35" r="7.82"/><polygon class="cls-7" points="939.96 410.65 1047.92 469.24 992.99 498.81 885.02 440.22 939.96 410.65"/><polygon class="cls-8" points="939.41 516.64 939.47 464.96 1095.96 380.53 1095.96 432.45 939.41 516.64"/><path class="cls-9" d="M939.42,516.64V464.85l-133.9-72.66A15.85,15.85,0,0,0,782.08,406v7.92A30.68,30.68,0,0,0,798.4,441Z"/><path class="cls-10" d="M791.16,391.78c.5-.3,1-.58,1.55-.83s1-.58,1.55-.84,1-.58,1.55-.83,1-.58,1.55-.84,1-.58,1.55-.83a352.09,352.09,0,0,0,3.1-1.67,352.09,352.09,0,0,0,3.1-1.67,352.09,352.09,0,0,0,3.1-1.67,352.09,352.09,0,0,0,3.1-1.67,352.09,352.09,0,0,0,3.1-1.67,352.09,352.09,0,0,0,3.1-1.67c.5-.3,1-.58,1.55-.83a15.47,15.47,0,0,1,1.55-.84c.5-.3,1-.58,1.55-.83a15.47,15.47,0,0,1,1.55-.84c.5-.3,1-.58,1.55-.83a15.47,15.47,0,0,1,1.55-.84c.5-.3,1-.58,1.55-.83a15.47,15.47,0,0,1,1.55-.84c.5-.3,1-.58,1.55-.83a15.47,15.47,0,0,1,1.55-.84c.5-.3,1-.58,1.55-.83a15.47,15.47,0,0,1,1.55-.84c.5-.3,1-.58,1.55-.83a15.47,15.47,0,0,1,1.55-.84c.5-.3,1-.58,1.55-.83a15.47,15.47,0,0,1,1.55-.84c.5-.3,1-.58,1.55-.83s1-.58,1.55-.84,1-.58,1.55-.83,1-.58,1.55-.84,1-.58,1.55-.83,1-.58,1.55-.84,1-.58,1.55-.83a352.09,352.09,0,0,0,3.1-1.67,352.09,352.09,0,0,0,3.1-1.67,15.38,15.38,0,0,1,1.55-.83,14.44,14.44,0,0,1,1.55-.84,15.38,15.38,0,0,1,1.55-.83,1058.17,1058.17,0,0,0,4.65-2.51,352.09,352.09,0,0,0,3.1-1.67,16.38,16.38,0,0,1,1.55-.83,14.44,14.44,0,0,1,1.55-.84,16.38,16.38,0,0,1,1.55-.83A14.44,14.44,0,0,1,878,345a16.38,16.38,0,0,1,1.55-.83,14.44,14.44,0,0,1,1.55-.84,16.38,16.38,0,0,1,1.55-.83,14.44,14.44,0,0,1,1.55-.84,16.38,16.38,0,0,1,1.55-.83,14.44,14.44,0,0,1,1.55-.84,16.38,16.38,0,0,1,1.55-.83,14.44,14.44,0,0,1,1.55-.84,16.38,16.38,0,0,1,1.55-.83,15.31,15.31,0,0,1,1.54-.84c.51-.3,1-.58,1.55-.83a15.62,15.62,0,0,1,1.56-.84c.5-.3,1-.58,1.54-.83a15.62,15.62,0,0,1,1.56-.84c.5-.3,1-.58,1.54-.83s1-.58,1.56-.84,1-.58,1.54-.83,1-.58,1.55-.84,1-.58,1.55-.83a352.09,352.09,0,0,0,3.1-1.67,15.38,15.38,0,0,1,1.55-.83,16.65,16.65,0,0,1,1.55-.84,352.09,352.09,0,0,0,3.1-1.67,352.09,352.09,0,0,0,3.1-1.67,352.09,352.09,0,0,0,3.1-1.67,352.09,352.09,0,0,0,3.1-1.67c.5-.3,1-.58,1.55-.83a15.47,15.47,0,0,1,1.55-.84c.5-.3,1-.58,1.55-.83a15.47,15.47,0,0,1,1.55-.84c.5-.3,1-.58,1.55-.83a15.47,15.47,0,0,1,1.55-.84c.5-.3,1-.58,1.55-.83a15.47,15.47,0,0,1,1.55-.84c.5-.3,1-.58,1.55-.83a15.47,15.47,0,0,1,1.55-.84c.5-.3,1-.58,1.55-.83a15.47,15.47,0,0,1,1.55-.84c.5-.3,1-.58,1.55-.83a15.8,15.8,0,0,1,15.91-.43L1096,380.53v51.79l-1.55-.83v1.66l-1.55-.83V434l-1.55-.83v1.66l-1.55-.83v1.67l-1.55-.83v1.66l-1.55-.83v1.67l-1.55-.83v1.66l-1.55-.83V439l-1.55-.83v1.66l-1.55-.83v1.67l-1.55-.84v1.67l-1.55-.83v1.67l-1.55-.84v1.67l-1.55-.83V444l-1.55-.84v1.67l-1.55-.83v1.66l-1.55-.83v1.67l-1.55-.83v1.66l-1.55-.83v1.67l-1.55-.83V449l-1.55-.83v1.67l-1.55-.83v1.66l-1.55-.83v1.67l-1.55-.83v1.66l-1.55-.83v1.67l-1.55-.83V454l-1.55-.83v1.67l-1.55-.83v1.66l-1.55-.83v1.67l-1.55-.83v1.66l-1.55-.83v1.67l-1.55-.83V459l-1.55-.83v1.67l-1.55-.83v1.66l-1.55-.83v1.67l-1.55-.83v1.66l-1.55-.83v1.67l-1.55-.83V464l-1.55-.83v1.67l-1.55-.83v1.66l-1.55-.83v1.67l-1.55-.83v1.66l-1.55-.83v1.67l-1.55-.83v1.66l-1.55-.83v1.67l-1.55-.84v1.67l-1.55-.83v1.67l-1.55-.84v1.67l-1.55-.83v1.67l-1.55-.84v1.67l-1.55-.83v1.66l-1.55-.83v1.67l-1.55-.83v1.66l-1.55-.83v1.67l-1.55-.83v1.66l-1.55-.83v1.67l-1.55-.83v1.66l-1.55-.83v1.67l-1.55-.83v1.66l-1.55-.83v1.67l-1.55-.83v1.66l-1.55-.83v1.67l-1.55-.83v1.66l-1.55-.83v1.67l-1.55-.83v1.66l-1.55-.83v1.67l-1.55-.83v1.66l-1.55-.83v1.67l-1.55-.83v1.66l-1.55-.83v1.67l-1.55-.83v1.66l-1.55-.83v1.67l-1.55-.83v1.66l-1.55-.83v1.67l-1.55-.83v1.66l-1.55-.83v1.67l-1.55-.83v1.66l-1.55-.83v1.67l-1.55-.84v1.67l-1.55-.83v1.67l-1.55-.84v1.67l-1.55-.83v1.67l-1.55-.84v1.67l-1.55-.83v1.67l-1.55-.84v1.67l-1.55-.83v1.67l-1.55-.84V505l-1.55-.83v1.66L958,505v1.67l-1.55-.83v1.66l-1.55-.83v1.67l-1.55-.83v1.66l-1.55-.83V510l-1.55-.83v1.66l-1.54-.83v1.67l-1.56-.83v1.66l-1.54-.83v1.67l-1.56-.83v1.66l-1.54-.83V515l-1.55-.83v1.66l-1.55-.83v1.67L798.4,441a30.68,30.68,0,0,1-16.32-27.08V406A15.65,15.65,0,0,1,791.16,391.78Z"/><polygon class="cls-9" points="939.41 516.64 939.47 464.96 1095.96 380.53 1095.96 432.45 939.41 516.64"/><path class="cls-8" d="M939.42,516.64V464.85l-133.9-72.66A15.85,15.85,0,0,0,782.08,406v7.92A30.68,30.68,0,0,0,798.4,441Z"/><path class="cls-11" d="M791.16,391.78c.5-.3,1-.58,1.55-.83s1-.58,1.55-.84,1-.58,1.55-.83,1-.58,1.55-.84,1-.58,1.55-.83a352.09,352.09,0,0,0,3.1-1.67,352.09,352.09,0,0,0,3.1-1.67,352.09,352.09,0,0,0,3.1-1.67,352.09,352.09,0,0,0,3.1-1.67,352.09,352.09,0,0,0,3.1-1.67,352.09,352.09,0,0,0,3.1-1.67c.5-.3,1-.58,1.55-.83a15.47,15.47,0,0,1,1.55-.84c.5-.3,1-.58,1.55-.83a15.47,15.47,0,0,1,1.55-.84c.5-.3,1-.58,1.55-.83a15.47,15.47,0,0,1,1.55-.84c.5-.3,1-.58,1.55-.83a15.47,15.47,0,0,1,1.55-.84c.5-.3,1-.58,1.55-.83a15.47,15.47,0,0,1,1.55-.84c.5-.3,1-.58,1.55-.83a15.47,15.47,0,0,1,1.55-.84c.5-.3,1-.58,1.55-.83a15.47,15.47,0,0,1,1.55-.84c.5-.3,1-.58,1.55-.83a15.47,15.47,0,0,1,1.55-.84c.5-.3,1-.58,1.55-.83s1-.58,1.55-.84,1-.58,1.55-.83,1-.58,1.55-.84,1-.58,1.55-.83,1-.58,1.55-.84,1-.58,1.55-.83a352.09,352.09,0,0,0,3.1-1.67,352.09,352.09,0,0,0,3.1-1.67,15.38,15.38,0,0,1,1.55-.83,14.44,14.44,0,0,1,1.55-.84,15.38,15.38,0,0,1,1.55-.83,1058.17,1058.17,0,0,0,4.65-2.51,352.09,352.09,0,0,0,3.1-1.67,16.38,16.38,0,0,1,1.55-.83,14.44,14.44,0,0,1,1.55-.84,16.38,16.38,0,0,1,1.55-.83A14.44,14.44,0,0,1,878,345a16.38,16.38,0,0,1,1.55-.83,14.44,14.44,0,0,1,1.55-.84,16.38,16.38,0,0,1,1.55-.83,14.44,14.44,0,0,1,1.55-.84,16.38,16.38,0,0,1,1.55-.83,14.44,14.44,0,0,1,1.55-.84,16.38,16.38,0,0,1,1.55-.83,14.44,14.44,0,0,1,1.55-.84,16.38,16.38,0,0,1,1.55-.83,15.31,15.31,0,0,1,1.54-.84c.51-.3,1-.58,1.55-.83a15.62,15.62,0,0,1,1.56-.84c.5-.3,1-.58,1.54-.83a15.62,15.62,0,0,1,1.56-.84c.5-.3,1-.58,1.54-.83s1-.58,1.56-.84,1-.58,1.54-.83,1-.58,1.55-.84,1-.58,1.55-.83a352.09,352.09,0,0,0,3.1-1.67,15.38,15.38,0,0,1,1.55-.83,16.65,16.65,0,0,1,1.55-.84,352.09,352.09,0,0,0,3.1-1.67,352.09,352.09,0,0,0,3.1-1.67,352.09,352.09,0,0,0,3.1-1.67,352.09,352.09,0,0,0,3.1-1.67c.5-.3,1-.58,1.55-.83a15.47,15.47,0,0,1,1.55-.84c.5-.3,1-.58,1.55-.83a15.47,15.47,0,0,1,1.55-.84c.5-.3,1-.58,1.55-.83a15.47,15.47,0,0,1,1.55-.84c.5-.3,1-.58,1.55-.83a15.47,15.47,0,0,1,1.55-.84c.5-.3,1-.58,1.55-.83a15.47,15.47,0,0,1,1.55-.84c.5-.3,1-.58,1.55-.83a15.47,15.47,0,0,1,1.55-.84c.5-.3,1-.58,1.55-.83a15.8,15.8,0,0,1,15.91-.43L1096,380.53h0v51.79h0v.13L941,515.8h0l-1.54.84h0L798.4,441a30.68,30.68,0,0,1-16.32-27.08V406A15.65,15.65,0,0,1,791.16,391.78Z"/><path class="cls-11" d="M1096,380.53,939.42,464.85l-133.9-72.66s-7.5-5.11-14.36-.41"/><path class="cls-10" d="M997.23,367.79l50.69,27.5L993,424.86l-41.91-22.74a18.84,18.84,0,0,1,.06-33.16l2.34-1.26A46,46,0,0,1,997.23,367.79Z"/><polygon class="cls-9" points="992.98 424.87 1047.89 395.29 1047.89 469.27 992.98 498.81 992.98 424.87"/><path class="cls-11" d="M951.14,369l2.34-1.26a46,46,0,0,1,43.75.09l50.69,27.5,0,0v74L993,498.81V424.87h0l-41.91-22.74A18.84,18.84,0,0,1,951.14,369Z"/><ellipse class="cls-8" cx="973.03" cy="382.78" rx="19.36" ry="12.49"/><rect class="cls-15" x="931.89" y="395.98" width="21.76" height="33.58" rx="10.88"/><circle class="cls-15" cx="942.54" cy="390.93" r="10.01"/><rect class="cls-14" x="920.52" y="314.49" width="21.76" height="33.58" rx="10.88"/><circle class="cls-13" cx="931.16" cy="309.44" r="10.01"/><polygon class="cls-10" points="851.21 381.91 877.99 396.38 904.76 381.91 904.76 352.79 878.18 338.14 851.21 352.79 851.21 381.91"/><polygon class="cls-8" points="878.18 396.38 878.01 367.54 851.24 352.93 851.24 381.96 878.18 396.38"/><polygon class="cls-11" points="851.21 381.91 877.99 396.38 904.76 381.91 904.76 352.79 878.01 338.32 851.21 352.79 851.21 381.91"/><polygon class="cls-10" points="851.21 347.47 877.99 361.94 904.76 347.47 904.76 318.35 878.18 303.69 851.21 318.35 851.21 347.47"/><polygon class="cls-8" points="878.18 361.94 878.01 333.09 851.24 318.48 851.24 347.51 878.18 361.94"/><polygon class="cls-11" points="851.21 347.47 877.99 361.94 904.76 347.47 904.76 318.35 878.01 303.88 851.21 318.35 851.21 347.47"/><rect class="cls-12" x="978.32" y="306.09" width="5.66" height="42.59" rx="2.83"/><circle class="cls-23" cx="981.05" cy="298.23" r="27.18"/><circle class="cls-2" cx="985.71" cy="290.31" r="16.37"/><rect class="cls-12" x="1010.93" y="316.85" width="5.66" height="42.59" rx="2.83"/><circle class="cls-23" cx="1013.66" cy="308.99" r="27.18"/><circle class="cls-2" cx="1017.5" cy="300.49" r="16.37"/><circle class="cls-26" cx="1023.1" cy="445.55" r="8.1"/><circle class="cls-26" cx="1065.36" cy="468.85" r="8.1"/><circle class="cls-26" cx="1107.61" cy="492.15" r="8.1"/><circle class="cls-26" cx="1149.87" cy="515.45" r="8.1"/><circle class="cls-26" cx="1192.13" cy="538.74" r="8.1"/><circle class="cls-26" cx="1234.38" cy="562.04" r="8.1"/><circle class="cls-26" cx="1276.64" cy="585.34" r="8.1"/><circle class="cls-26" cx="1318.9" cy="608.64" r="8.1"/><circle class="cls-26" cx="1361.16" cy="631.94" r="8.1"/><circle class="cls-26" cx="1403.41" cy="655.24" r="8.1"/><circle class="cls-26" cx="489.02" cy="637.9" r="8.1"/><circle class="cls-26" cx="534.17" cy="613.87" r="8.1"/><circle class="cls-26" cx="579.31" cy="589.83" r="8.1"/><circle class="cls-26" cx="624.45" cy="565.8" r="8.1"/><circle class="cls-26" cx="669.6" cy="541.77" r="8.1"/><circle class="cls-26" cx="714.74" cy="517.73" r="8.1"/><circle class="cls-26" cx="759.88" cy="493.7" r="8.1"/><circle class="cls-26" cx="805.02" cy="469.67" r="8.1"/><circle class="cls-26" cx="850.17" cy="445.63" r="8.1"/><polygon class="cls-10" points="594.85 577.72 621.63 592.19 648.41 577.72 648.41 548.6 621.83 533.95 594.85 548.6 594.85 577.72"/><polygon class="cls-8" points="621.83 592.19 621.65 563.34 594.88 548.74 594.88 577.76 621.83 592.19"/><polygon class="cls-10" points="621.46 592.19 621.64 563.34 648.41 548.74 648.41 577.76 621.46 592.19"/><polygon class="cls-11" points="594.85 577.72 621.63 592.19 648.41 577.72 648.41 548.6 621.65 534.13 594.85 548.6 594.85 577.72"/><ellipse class="cls-16" cx="619.05" cy="463.89" rx="60.45" ry="45.7" transform="translate(-125.51 673.76) rotate(-52.59)"/><ellipse class="cls-17" cx="626.36" cy="468.64" rx="60.45" ry="45.7" transform="translate(-126.41 681.43) rotate(-52.59)"/><ellipse class="cls-18" cx="626.95" cy="468.23" rx="52.65" ry="37.78" transform="translate(-125.86 681.74) rotate(-52.59)"/><g id="qk1lAn-2" data-name="qk1lAn"><path class="cls-19" d="M608.35,474.25a.19.19,0,0,0,.12,0c.44-.33.88-.64,1.31-1l6.14-5,10.49-8.57,0,0c0,.1,0,.2,0,.3q0,10.47,0,21a3.55,3.55,0,0,0,.12.65,1.86,1.86,0,0,1-.58,0l-17.62-7.17Z"/><path class="cls-19" d="M626.42,434.38c.11.14.23.26.33.41l17.39,28.81c.09.14.15.3.23.44-1.35-.3-2.7-.59-4-.92l-13.88-3.44,0,0q0-5.81,0-11.62,0-6.81,0-13.62Z"/><path class="cls-12" d="M626.45,459.68l13.88,3.44c1.34.33,2.69.62,4,.92a2.19,2.19,0,0,1-.23.46l-17.47,17-.12.08a3.55,3.55,0,0,1-.12-.65q0-10.49,0-21C626.43,459.88,626.44,459.78,626.45,459.68Z"/><path class="cls-20" d="M626.42,502.86c-.56-.71-1.14-1.41-1.68-2.15L609,479.22a1.37,1.37,0,0,1-.3-.71l1.19.47,15.69,6.39a6.5,6.5,0,0,0,1,.24,7.8,7.8,0,0,0-.12.94Z"/><path class="cls-19" d="M626.42,502.86V486.55a7.8,7.8,0,0,1,.12-.94l17.56-17.09.1.1c-.09.19-.17.39-.26.58l-17.19,33.16C626.65,502.53,626.53,502.69,626.42,502.86Z"/><path class="cls-20" d="M626.44,434.41q0,6.81,0,13.62,0,5.82,0,11.62l-10.49,8.57-6.14,5c-.43.35-.87.66-1.31,1,1.2-2.7,2.4-5.41,3.61-8.11Q619,450.65,626,435.19A8.73,8.73,0,0,1,626.44,434.41Z"/></g><polygon class="cls-27" points="350.76 567.64 363.35 575.63 415.97 546.45 403.39 539.98 350.76 567.64"/><rect class="cls-12" x="403.08" y="434.71" width="15.1" height="113.61" rx="7.55"/><g class="cls-28"><path class="cls-23" d="M475.06,449.51a64.71,64.71,0,1,1-129.42,0c0-35.74,64.71-125,64.71-125S475.06,413.77,475.06,449.51Z"/><path class="cls-29" d="M477.64,433.2a51,51,0,1,1-102,0c0-28.16,35.82-109.49,35.82-109.49S477.64,405,477.64,433.2Z"/></g><path class="cls-1" d="M475.06,449.51a64.71,64.71,0,1,1-129.42,0c0-35.74,64.71-125,64.71-125S475.06,413.77,475.06,449.51Z"/><polygon class="cls-30" points="835.63 293.83 842.77 297.53 872.63 284.02 865.5 281.02 835.63 293.83"/><polygon class="cls-31" points="910.09 767.24 915.13 770.26 943.91 757.23 938.88 754.89 910.09 767.24"/><polygon class="cls-32" points="1303.78 782.32 1308.82 785.33 1337.6 772.31 1332.57 769.97 1303.78 782.32"/><polygon class="cls-33" points="228.01 1007.4 233.06 1010.42 261.84 997.39 256.8 995.05 228.01 1007.4"/><polygon class="cls-34" points="260.41 1018.57 265.45 1021.59 294.23 1008.57 289.2 1006.22 260.41 1018.57"/><polygon class="cls-35" points="905.49 265.89 912.64 269.59 942.5 256.07 935.37 253.07 905.49 265.89"/><rect class="cls-12" x="931.39" y="166.53" width="12.25" height="92.12" rx="6.12"/><circle class="cls-23" cx="937.28" cy="149.54" r="58.79"/><circle class="cls-2" cx="946.27" cy="137.43" r="42.03"/><rect class="cls-12" x="865.44" y="216.89" width="9.04" height="67.96" rx="4.52"/><circle class="cls-23" cx="869.79" cy="204.35" r="43.37"/><circle class="cls-2" cx="877.84" cy="194.59" r="28.41"/><rect class="cls-12" x="938.92" y="724.76" width="5.78" height="33.25" rx="2.89"/><rect class="cls-23" x="922.78" y="690.71" width="38.05" height="53.38" rx="19.02"/><rect class="cls-2" x="935.42" y="695.78" width="24.08" height="35.12" rx="11.64"/><rect class="cls-12" x="256.62" y="955.85" width="5.66" height="42.59" rx="2.83"/><circle class="cls-23" cx="259.35" cy="948" r="27.18"/><circle class="cls-2" cx="264.02" cy="940.08" r="16.37"/><rect class="cls-12" x="289.24" y="966.61" width="5.66" height="42.59" rx="2.83"/><circle class="cls-23" cx="291.96" cy="958.75" r="27.18"/><circle class="cls-2" cx="295.81" cy="950.26" r="16.37"/><rect class="cls-12" x="1332.56" y="723.11" width="6.6" height="49.63" rx="3.3"/><g class="cls-36"><path class="cls-23" d="M1364,729.58a28.27,28.27,0,1,1-56.53,0c0-15.61,28.26-54.59,28.26-54.59S1364,714,1364,729.58Z"/><path class="cls-29" d="M1365.13,722.45a22.27,22.27,0,1,1-44.54,0c0-12.3,15.64-47.83,15.64-47.83S1365.13,710.15,1365.13,722.45Z"/></g><path class="cls-1" d="M1364,729.58a28.27,28.27,0,1,1-56.53,0c0-15.61,28.26-54.59,28.26-54.59S1364,714,1364,729.58Z"/></svg>