<svg id="Layer_1" data-name="Layer 1" xmlns="http://www.w3.org/2000/svg" xmlns:xlink="http://www.w3.org/1999/xlink" viewBox="0 0 870 740"><defs><style>.cls-1,.cls-18,.cls-19{fill:#cceffc;}.cls-13,.cls-2{fill:#99dff9;}.cls-17,.cls-3{fill:#fff;}.cls-4{fill:#e0f5fd;}.cls-15,.cls-5,.cls-8{fill:#00aeef;}.cls-11,.cls-12,.cls-13,.cls-15,.cls-16,.cls-17,.cls-18,.cls-19,.cls-5,.cls-7{stroke:#00aeef;}.cls-12,.cls-13,.cls-16,.cls-17,.cls-19,.cls-5,.cls-7,.cls-9{stroke-miterlimit:10;}.cls-11,.cls-12,.cls-13,.cls-15,.cls-16,.cls-17,.cls-19,.cls-5,.cls-7,.cls-9{stroke-width:2px;}.cls-6{fill:#c2ecfb;}.cls-11,.cls-7,.cls-9{fill:none;}.cls-9{stroke:#fff;}.cls-10{fill:url(#linear-gradient);}.cls-11,.cls-15,.cls-18{stroke-linejoin:round;}.cls-12,.cls-14{fill:#ebf9fe;}.cls-16{fill:#66cef5;}.cls-18{stroke-width:2.15px;}</style><linearGradient id="linear-gradient" x1="599.43" y1="683.34" x2="625.15" y2="636.19" gradientUnits="userSpaceOnUse"><stop offset="0" stop-color="#cceffc"/><stop offset="1" stop-color="#00aeef"/></linearGradient></defs><title>Transactions1</title><rect class="cls-1" width="870" height="740"/><rect class="cls-2" x="161.41" y="114.13" width="614.18" height="410.97"/><rect class="cls-3" x="134.26" y="86.98" width="614.18" height="410.97"/><rect class="cls-4" x="235.02" y="131.34" width="513.88" height="366.48"/><rect class="cls-5" x="134.26" y="86.98" width="614.18" height="23.07"/><rect class="cls-6" x="296.66" y="157.85" width="386.48" height="49.28"/><rect class="cls-7" x="134.26" y="86.98" width="614.18" height="410.97"/><rect class="cls-8" x="149.49" y="131.34" width="69.28" height="7.68"/><path class="cls-8" d="M614.75,269V259h3.48a4.61,4.61,0,0,1,2.75.69,2.39,2.39,0,0,1,.93,2,2.24,2.24,0,0,1-.37,1.28,2.16,2.16,0,0,1-1,.82,2.14,2.14,0,0,1,1.21.77,2.31,2.31,0,0,1,.44,1.42,2.65,2.65,0,0,1-.92,2.18,4.14,4.14,0,0,1-2.61.75Zm2-5.78h1.51c1,0,1.55-.43,1.55-1.24a1.14,1.14,0,0,0-.39-1,2,2,0,0,0-1.24-.3H616.8Zm0,1.45v2.68h1.75a1.68,1.68,0,0,0,1.13-.34,1.2,1.2,0,0,0,.41-1,1.24,1.24,0,0,0-1.41-1.38Z"/><path class="cls-8" d="M631,260.66h-3.05V269h-2v-8.29h-3V259H631Z"/><path class="cls-8" d="M639.77,265.63a3.54,3.54,0,0,1-1.19,2.53,4.13,4.13,0,0,1-2.82.92,3.77,3.77,0,0,1-3-1.28,5.3,5.3,0,0,1-1.09-3.54v-.61a5.88,5.88,0,0,1,.5-2.52,3.8,3.8,0,0,1,1.45-1.68,4.47,4.47,0,0,1,4.95.34,3.73,3.73,0,0,1,1.22,2.59h-2a2.06,2.06,0,0,0-.54-1.4,2,2,0,0,0-1.4-.44,1.74,1.74,0,0,0-1.53.74,4.12,4.12,0,0,0-.53,2.28v.75a4.49,4.49,0,0,0,.49,2.36,1.73,1.73,0,0,0,1.54.74,1.7,1.7,0,0,0,2-1.78Z"/><path class="cls-8" d="M645.09,269.8h-1.47l3.66-10.8h1.47Z"/><path class="cls-8" d="M660.84,259v6.55a3.35,3.35,0,0,1-1,2.58,4.59,4.59,0,0,1-5.55,0,3.29,3.29,0,0,1-1-2.53V259h2v6.57a1.9,1.9,0,0,0,.47,1.42,1.78,1.78,0,0,0,1.29.45c1.16,0,1.74-.61,1.76-1.82V259Z"/><path class="cls-8" d="M667.67,266.34a1,1,0,0,0-.4-.89,5.42,5.42,0,0,0-1.48-.66,11.05,11.05,0,0,1-1.69-.68,2.75,2.75,0,0,1-1.69-2.47,2.41,2.41,0,0,1,.45-1.43,2.91,2.91,0,0,1,1.31-1,4.82,4.82,0,0,1,1.91-.36,4.45,4.45,0,0,1,1.9.39,3.07,3.07,0,0,1,1.29,1.09,2.83,2.83,0,0,1,.46,1.6h-2.05a1.32,1.32,0,0,0-.43-1.06,1.74,1.74,0,0,0-1.21-.38,1.91,1.91,0,0,0-1.17.31,1,1,0,0,0-.41.84.94.94,0,0,0,.49.81,5.31,5.31,0,0,0,1.43.62,6.16,6.16,0,0,1,2.55,1.3,2.62,2.62,0,0,1,.8,1.94,2.38,2.38,0,0,1-1,2,4.25,4.25,0,0,1-2.63.73,5.1,5.1,0,0,1-2.09-.42,3.31,3.31,0,0,1-1.43-1.15,2.93,2.93,0,0,1-.5-1.69h2.06c0,1.1.65,1.65,2,1.65a1.94,1.94,0,0,0,1.15-.3A1,1,0,0,0,667.67,266.34Z"/><path class="cls-8" d="M671.12,269V259h3.06a4.71,4.71,0,0,1,2.35.59,4.14,4.14,0,0,1,1.61,1.68,5.16,5.16,0,0,1,.58,2.48v.46a5.19,5.19,0,0,1-.57,2.46,4.07,4.07,0,0,1-1.61,1.68,4.79,4.79,0,0,1-2.34.6Zm2-8.29v6.64h1a2.23,2.23,0,0,0,1.84-.79,3.56,3.56,0,0,0,.65-2.24v-.53a3.6,3.6,0,0,0-.63-2.3,2.22,2.22,0,0,0-1.84-.78Z"/><rect class="cls-8" x="613.86" y="280.95" width="69.28" height="18.04"/><line class="cls-7" x1="307" y1="280.95" x2="552.55" y2="280.95"/><path class="cls-8" d="M307.38,288.46A7.52,7.52,0,1,1,314.9,281,7.52,7.52,0,0,1,307.38,288.46Z"/><circle class="cls-8" cx="552.17" cy="280.95" r="7.52"/><circle class="cls-8" cx="429.78" cy="280.95" r="4.88"/><line class="cls-7" x1="296.35" y1="245.9" x2="314.8" y2="245.9"/><polygon class="cls-8" points="308.17 254.08 306.81 252.62 314.03 245.9 306.81 239.19 308.17 237.72 316.97 245.9 308.17 254.08"/><line class="cls-7" x1="320.93" y1="236.99" x2="320.93" y2="254.82"/><path class="cls-8" d="M614.75,391v-9.95h3.48a4.61,4.61,0,0,1,2.75.69,2.37,2.37,0,0,1,.93,2,2.25,2.25,0,0,1-.37,1.29,2.16,2.16,0,0,1-1,.82,2.09,2.09,0,0,1,1.21.77,2.31,2.31,0,0,1,.44,1.42,2.62,2.62,0,0,1-.92,2.17,4.08,4.08,0,0,1-2.61.76Zm2-5.78h1.51c1,0,1.55-.43,1.55-1.24a1.13,1.13,0,0,0-.39-1,2,2,0,0,0-1.24-.3H616.8Zm0,1.44v2.69h1.75a1.68,1.68,0,0,0,1.13-.35,1.18,1.18,0,0,0,.41-.95,1.25,1.25,0,0,0-1.41-1.39Z"/><path class="cls-8" d="M631,382.71h-3.05V391h-2v-8.29h-3v-1.66H631Z"/><path class="cls-8" d="M639.77,387.68a3.56,3.56,0,0,1-1.19,2.53,4.18,4.18,0,0,1-2.82.92,3.75,3.75,0,0,1-3-1.29,5.25,5.25,0,0,1-1.09-3.53v-.61a5.92,5.92,0,0,1,.5-2.53,3.72,3.72,0,0,1,1.45-1.67,4,4,0,0,1,2.18-.59,4.06,4.06,0,0,1,2.77.92,3.77,3.77,0,0,1,1.22,2.59h-2a2,2,0,0,0-.54-1.39,2,2,0,0,0-1.4-.44,1.74,1.74,0,0,0-1.53.74,4.1,4.1,0,0,0-.53,2.27v.76a4.43,4.43,0,0,0,.49,2.35,1.71,1.71,0,0,0,1.54.75,2,2,0,0,0,1.42-.44,2,2,0,0,0,.54-1.34Z"/><path class="cls-8" d="M645.09,391.85h-1.47l3.66-10.8h1.47Z"/><path class="cls-8" d="M660.84,381.05v6.55a3.35,3.35,0,0,1-1,2.58,3.9,3.9,0,0,1-2.79.95,4,4,0,0,1-2.76-.92,3.31,3.31,0,0,1-1-2.54v-6.62h2v6.56a1.92,1.92,0,0,0,.47,1.43,1.78,1.78,0,0,0,1.29.45c1.16,0,1.74-.61,1.76-1.82v-6.62Z"/><path class="cls-8" d="M667.67,388.39a1.07,1.07,0,0,0-.4-.9,5.81,5.81,0,0,0-1.48-.65,11.05,11.05,0,0,1-1.69-.68,2.75,2.75,0,0,1-1.69-2.47,2.42,2.42,0,0,1,.45-1.44,2.9,2.9,0,0,1,1.31-1,4.82,4.82,0,0,1,1.91-.36,4.45,4.45,0,0,1,1.9.39,3,3,0,0,1,1.29,1.09,2.83,2.83,0,0,1,.46,1.6h-2.05a1.35,1.35,0,0,0-.43-1.07,1.79,1.79,0,0,0-1.21-.38,1.91,1.91,0,0,0-1.17.32,1,1,0,0,0-.41.84,1,1,0,0,0,.49.81,5.31,5.31,0,0,0,1.43.62,6.16,6.16,0,0,1,2.55,1.3,2.62,2.62,0,0,1,.8,1.94,2.38,2.38,0,0,1-1,2,4.25,4.25,0,0,1-2.63.73,5.1,5.1,0,0,1-2.09-.42,3.31,3.31,0,0,1-1.43-1.15,3,3,0,0,1-.5-1.69h2.06c0,1.09.65,1.64,2,1.64a2,2,0,0,0,1.15-.29A1,1,0,0,0,667.67,388.39Z"/><path class="cls-8" d="M671.12,391v-9.95h3.06a4.71,4.71,0,0,1,2.35.59,4.08,4.08,0,0,1,1.61,1.68,5.16,5.16,0,0,1,.58,2.48v.45a5.2,5.2,0,0,1-.57,2.47,4,4,0,0,1-1.61,1.67,4.69,4.69,0,0,1-2.34.61Zm2-8.29v6.64h1a2.23,2.23,0,0,0,1.84-.79,3.56,3.56,0,0,0,.65-2.24v-.53a3.6,3.6,0,0,0-.63-2.3,2.22,2.22,0,0,0-1.84-.78Z"/><rect class="cls-8" x="613.86" y="402.99" width="69.28" height="18.04"/><line class="cls-7" x1="304.15" y1="402.99" x2="430.28" y2="402.99"/><path class="cls-8" d="M304.37,407.5a4.51,4.51,0,1,1,4.51-4.51A4.51,4.51,0,0,1,304.37,407.5Z"/><circle class="cls-8" cx="429.91" cy="402.99" r="7.52"/><line class="cls-7" x1="300.35" y1="367.95" x2="318.8" y2="367.95"/><polygon class="cls-8" points="312.17 376.13 310.8 374.66 318.03 367.95 310.8 361.24 312.17 359.77 320.96 367.95 312.17 376.13"/><line class="cls-7" x1="296.35" y1="359.04" x2="296.35" y2="376.86"/><line class="cls-9" x1="296.12" y1="328.51" x2="682.93" y2="328.51"/><line class="cls-9" x1="296.12" y1="450.31" x2="682.93" y2="450.31"/><polygon class="cls-10" points="502.53 636.82 624.85 704.13 747.08 636.82 624.78 570.46 502.53 636.82"/><polygon class="cls-3" points="498.33 526.28 525.11 540.75 551.88 526.28 551.88 497.16 525.3 482.51 498.33 497.16 498.33 526.28"/><polygon class="cls-2" points="525.3 540.75 525.13 511.9 498.36 497.3 498.36 526.33 525.3 540.75"/><polygon class="cls-3" points="524.94 540.75 525.12 511.9 551.88 497.3 551.88 526.33 524.94 540.75"/><polygon class="cls-11" points="498.33 526.28 525.11 540.75 551.88 526.28 551.88 497.16 525.13 482.69 498.33 497.16 498.33 526.28"/><ellipse class="cls-12" cx="528.92" cy="411.77" rx="46.84" ry="60.65" transform="translate(-141.34 403.34) rotate(-37.18)"/><ellipse class="cls-13" cx="521.72" cy="417.72" rx="46.84" ry="60.65" transform="translate(-146.39 400.2) rotate(-37.18)"/><ellipse class="cls-13" cx="521.62" cy="417.79" rx="39.6" ry="53.95" transform="translate(-146.43 398.96) rotate(-37.08)"/><path class="cls-14" d="M537.52,425.32c-.82-.79-.06-.8.35-.79,5.39.16,8.29-8.53,2.75-14.69a27.43,27.43,0,0,0-4.9-4.46c-1.18-.8-1.29-1.47-.89-2.49.66-1.67,1.17-3.43,1.8-5.12.28-.75.06-1.2-.71-1.64a30.25,30.25,0,0,1-2.7-1.63c-.91-.63-1.29-.36-1.53.45-.39,1.28-.85,2.51-1.28,3.76-.92,2.64-.91,2.61-3.64.87-.86-.55-.95-1-.68-1.75.65-1.77,1.22-3.58,1.86-5.35.26-.69,0-1.15-.68-1.56-1-.57-1.95-1.16-2.92-1.77-.73-.45-1.08-.27-1.3.42-.56,1.77-1.25,3.47-1.78,5.26-.31,1.05-.79,1.22-1.87.54-2.42-1.53-4.87-2.95-7.3-4.45-.76-.47-1.18-.42-1.41.35a28.64,28.64,0,0,1-1,3c-.31.76,0,1.17.74,1.61a28.07,28.07,0,0,1,3,1.91,3.15,3.15,0,0,1,1.39,3.61c-.19.65-.43,1.29-.65,1.93Q511,412.27,508,421.21c-.5,1.44-1.31,1.65-2.81.8-.72-.4-1.43-.84-2.13-1.31s-1.26-.48-1.62.23c-.45.89-1,1.7-1.49,2.55-.86,1.51-.86,1.52.88,2.58,2.28,1.39,4.56,2.81,6.85,4.15.91.53,1.09,1,.78,1.83-.68,1.83-1.27,3.72-1.94,5.55-.26.69-.07,1.15.64,1.57.95.55,1.89,1.1,2.81,1.7.76.49,1.19.4,1.43-.35.46-1.4,1-2.75,1.46-4.16.94-3,.78-2.3,3.34-.88,1.09.61,1.21,1.23.86,2.14-.65,1.72-1.18,3.52-1.84,5.23-.3.77,0,1.19.72,1.61s1.74,1,2.59,1.57,1.37.49,1.66-.42c.56-1.82,1.25-3.56,1.82-5.37.26-.84.74-1,1.58-.52a24.2,24.2,0,0,0,4.78,2c.79.27,1.58.6,2.36.79,3.7.88,6.66.15,8.59-2.72C541.94,435.86,542.77,430.41,537.52,425.32Zm-9.28,8.34a8,8,0,0,1-3.74-.58,42.64,42.64,0,0,1-8-4.2,1,1,0,0,1-.53-1.28c1-2.81,1.95-5.64,2.91-8.46.2-.57.59-.68,1.19-.33a42.62,42.62,0,0,1,8.17,5.65,12.21,12.21,0,0,1,2.13,2.67C532.1,430.12,531.06,433.34,528.24,433.66Zm3.46-15.88a6.45,6.45,0,0,1-3.83-.36,37.14,37.14,0,0,1-6.26-3.28c-.55-.35-.75-.74-.56-1.27q1.32-3.8,2.62-7.59c.18-.52.49-.66,1.07-.34a28.42,28.42,0,0,1,7,5C534.57,412.86,534.55,416.89,531.7,417.78Z"/><polygon class="cls-15" points="650.92 605.18 566.42 651.03 609.41 674.17 693.92 628.32 650.92 605.18"/><polygon class="cls-2" points="651.35 688.13 651.3 647.69 528.82 581.6 528.82 622.24 651.35 688.13"/><path class="cls-14" d="M651.35,688.13V647.6l104.79-56.87a12.41,12.41,0,0,1,18.35,10.82v6.2A24,24,0,0,1,761.71,629Z"/><path class="cls-3" d="M767.38,590.41a10.81,10.81,0,0,0-1.21-.65c-.39-.24-.8-.46-1.21-.66a12.9,12.9,0,0,0-1.22-.65,10.81,10.81,0,0,0-1.21-.65c-.39-.24-.8-.46-1.21-.66s-.8-.45-1.21-.65a11.91,11.91,0,0,0-1.22-.65c-.39-.24-.8-.46-1.21-.66s-.8-.45-1.21-.65a11.91,11.91,0,0,0-1.22-.65,12.81,12.81,0,0,0-1.21-.66,11.76,11.76,0,0,0-1.21-.65,11.91,11.91,0,0,0-1.22-.65,12.81,12.81,0,0,0-1.21-.66,11.76,11.76,0,0,0-1.21-.65c-.4-.24-.8-.46-1.22-.66a12.73,12.73,0,0,0-1.21-.65,11.76,11.76,0,0,0-1.21-.65,13,13,0,0,0-1.22-.66,12.73,12.73,0,0,0-1.21-.65,11.76,11.76,0,0,0-1.21-.65c-.39-.24-.8-.46-1.21-.66s-.8-.45-1.22-.65a10.81,10.81,0,0,0-1.21-.65c-.39-.24-.8-.46-1.21-.66s-.8-.45-1.22-.65a10.81,10.81,0,0,0-1.21-.65c-.39-.24-.8-.46-1.21-.66s-.8-.45-1.22-.65a10.81,10.81,0,0,0-1.21-.65c-.39-.24-.8-.46-1.21-.66a12.9,12.9,0,0,0-1.22-.65,10.81,10.81,0,0,0-1.21-.65c-.39-.24-.8-.46-1.21-.66a12.9,12.9,0,0,0-1.22-.65,10.81,10.81,0,0,0-1.21-.65c-.39-.24-.8-.46-1.21-.66s-.8-.45-1.21-.65a11.91,11.91,0,0,0-1.22-.65,12.81,12.81,0,0,0-1.21-.66c-.39-.24-.8-.45-1.21-.65a11.91,11.91,0,0,0-1.22-.65,12.81,12.81,0,0,0-1.21-.66,11.76,11.76,0,0,0-1.21-.65,11.91,11.91,0,0,0-1.22-.65,12.81,12.81,0,0,0-1.21-.66,11.76,11.76,0,0,0-1.21-.65,13,13,0,0,0-1.22-.66c-.39-.23-.79-.45-1.21-.65a11.76,11.76,0,0,0-1.21-.65,13,13,0,0,0-1.22-.66,12.73,12.73,0,0,0-1.21-.65,11.76,11.76,0,0,0-1.21-.65c-.39-.24-.8-.46-1.21-.66s-.8-.45-1.22-.65a10.81,10.81,0,0,0-1.21-.65c-.39-.24-.8-.46-1.21-.66s-.8-.45-1.22-.65a10.81,10.81,0,0,0-1.21-.65c-.39-.24-.8-.46-1.21-.66s-.8-.45-1.22-.65a10.81,10.81,0,0,0-1.21-.65c-.39-.24-.8-.46-1.21-.66a12.9,12.9,0,0,0-1.22-.65,10.81,10.81,0,0,0-1.21-.65c-.39-.24-.8-.46-1.21-.66a12.9,12.9,0,0,0-1.22-.65,10.81,10.81,0,0,0-1.21-.65c-.39-.24-.8-.46-1.21-.66s-.8-.45-1.21-.65a11.91,11.91,0,0,0-1.22-.65,12.81,12.81,0,0,0-1.21-.66c-.39-.24-.8-.45-1.21-.65a11.91,11.91,0,0,0-1.22-.65,12.81,12.81,0,0,0-1.21-.66,11.76,11.76,0,0,0-1.21-.65,11.91,11.91,0,0,0-1.22-.65,12.81,12.81,0,0,0-1.21-.66,11.76,11.76,0,0,0-1.21-.65,13,13,0,0,0-1.22-.66c-.39-.23-.79-.45-1.21-.65a11.76,11.76,0,0,0-1.21-.65,13,13,0,0,0-1.22-.66,12.73,12.73,0,0,0-1.21-.65,11.76,11.76,0,0,0-1.21-.65c-.39-.24-.8-.46-1.21-.66s-.8-.45-1.22-.65a10.81,10.81,0,0,0-1.21-.65c-.39-.24-.8-.46-1.21-.66s-.8-.45-1.22-.65A10.81,10.81,0,0,0,657,531c-.39-.24-.8-.46-1.21-.66a12.9,12.9,0,0,0-1.22-.65,10.81,10.81,0,0,0-1.21-.65c-.39-.24-.8-.46-1.21-.66a12.9,12.9,0,0,0-1.22-.65,10.81,10.81,0,0,0-1.21-.65c-.39-.24-.8-.46-1.21-.66a12.9,12.9,0,0,0-1.22-.65,10.81,10.81,0,0,0-1.21-.65,12.36,12.36,0,0,0-12.45-.34L528.82,581.6v40.53l1.21-.65v1.31l1.22-.65v1.3l1.21-.65v1.31l1.21-.66v1.31l1.22-.65v1.3l1.21-.65v1.31l1.21-.65v1.3l1.22-.65v1.3l1.21-.65V628l1.21-.65v1.3l1.21-.65v1.3l1.22-.65V630l1.21-.65v1.3l1.21-.65v1.3l1.22-.65v1.31l1.21-.65v1.3l1.21-.65v1.3l1.22-.65v1.31l1.21-.65v1.3l1.21-.65v1.3l1.22-.65v1.31l1.21-.65v1.3l1.21-.65v1.3l1.22-.65v1.31l1.21-.65v1.3l1.21-.65v1.3l1.21-.65v1.31l1.22-.65v1.3l1.21-.65v1.3l1.21-.65v1.31l1.22-.65v1.3l1.21-.65V643l1.21-.65v1.31l1.22-.65v1.3l1.21-.65V645l1.21-.66v1.31l1.22-.65v1.3l1.21-.65V647l1.21-.65v1.3l1.22-.65v1.3l1.21-.65v1.31l1.21-.65v1.3l1.21-.65v1.3l1.22-.65v1.31l1.21-.65v1.3l1.21-.65v1.3l1.22-.65v1.31l1.21-.65v1.3l1.21-.65v1.3l1.22-.65v1.31l1.21-.65v1.3l1.21-.65v1.3l1.22-.65v1.31l1.21-.65v1.3l1.21-.65v1.3l1.21-.65v1.31l1.22-.65v1.3l1.21-.65V660l1.21-.65v1.31l1.22-.65v1.3l1.21-.65V662l1.21-.65v1.31l1.22-.65v1.3l1.21-.65V664l1.21-.65v1.31l1.22-.65v1.3l1.21-.65v1.31l1.21-.66v1.31l1.22-.65v1.3l1.21-.65v1.31l1.21-.65v1.3l1.22-.65v1.3l1.21-.65v1.31l1.21-.65v1.3l1.21-.65v1.3l1.22-.65v1.31l1.21-.65v1.3l1.21-.65v1.3l1.22-.65v1.31l1.21-.65v1.3l1.21-.65v1.3l1.22-.65v1.31l1.21-.65v1.3l1.21-.65V677l1.22-.65v1.31l1.21-.65v1.3l1.21-.65V679l1.21-.65v1.31l1.22-.65v1.3l1.21-.65v1.3l1.21-.65v1.31l1.22-.65v1.3l1.21-.65v1.3l1.21-.65v1.31l1.22-.65v1.3l1.21-.65v1.3l1.21-.65v1.31l1.22-.65v1.3l1.21-.65v1.31l1.21-.66v1.31l1.22-.65v1.3L761.71,629a24,24,0,0,0,12.78-21.2v-6.2A12.23,12.23,0,0,0,767.38,590.41Z"/><polygon class="cls-2" points="651.35 688.13 651.3 647.69 528.82 581.6 528.82 622.24 651.35 688.13"/><path class="cls-14" d="M651.35,688.13V647.6l104.79-56.87a12.41,12.41,0,0,1,18.35,10.82v6.2A24,24,0,0,1,761.71,629Z"/><path class="cls-11" d="M767.38,590.41a10.81,10.81,0,0,0-1.21-.65c-.39-.24-.8-.46-1.21-.66a12.9,12.9,0,0,0-1.22-.65,10.81,10.81,0,0,0-1.21-.65c-.39-.24-.8-.46-1.21-.66s-.8-.45-1.21-.65a11.91,11.91,0,0,0-1.22-.65c-.39-.24-.8-.46-1.21-.66s-.8-.45-1.21-.65a11.91,11.91,0,0,0-1.22-.65,12.81,12.81,0,0,0-1.21-.66,11.76,11.76,0,0,0-1.21-.65,11.91,11.91,0,0,0-1.22-.65,12.81,12.81,0,0,0-1.21-.66,11.76,11.76,0,0,0-1.21-.65c-.4-.24-.8-.46-1.22-.66a12.73,12.73,0,0,0-1.21-.65,11.76,11.76,0,0,0-1.21-.65,13,13,0,0,0-1.22-.66,12.73,12.73,0,0,0-1.21-.65,11.76,11.76,0,0,0-1.21-.65c-.39-.24-.8-.46-1.21-.66s-.8-.45-1.22-.65a10.81,10.81,0,0,0-1.21-.65c-.39-.24-.8-.46-1.21-.66s-.8-.45-1.22-.65a10.81,10.81,0,0,0-1.21-.65c-.39-.24-.8-.46-1.21-.66s-.8-.45-1.22-.65a10.81,10.81,0,0,0-1.21-.65c-.39-.24-.8-.46-1.21-.66a12.9,12.9,0,0,0-1.22-.65,10.81,10.81,0,0,0-1.21-.65c-.39-.24-.8-.46-1.21-.66a12.9,12.9,0,0,0-1.22-.65,10.81,10.81,0,0,0-1.21-.65c-.39-.24-.8-.46-1.21-.66s-.8-.45-1.21-.65a11.91,11.91,0,0,0-1.22-.65,12.81,12.81,0,0,0-1.21-.66c-.39-.24-.8-.45-1.21-.65a11.91,11.91,0,0,0-1.22-.65,12.81,12.81,0,0,0-1.21-.66,11.76,11.76,0,0,0-1.21-.65,11.91,11.91,0,0,0-1.22-.65,12.81,12.81,0,0,0-1.21-.66,11.76,11.76,0,0,0-1.21-.65,13,13,0,0,0-1.22-.66c-.39-.23-.79-.45-1.21-.65a11.76,11.76,0,0,0-1.21-.65,13,13,0,0,0-1.22-.66,12.73,12.73,0,0,0-1.21-.65,11.76,11.76,0,0,0-1.21-.65c-.39-.24-.8-.46-1.21-.66s-.8-.45-1.22-.65a10.81,10.81,0,0,0-1.21-.65c-.39-.24-.8-.46-1.21-.66s-.8-.45-1.22-.65a10.81,10.81,0,0,0-1.21-.65c-.39-.24-.8-.46-1.21-.66s-.8-.45-1.22-.65a10.81,10.81,0,0,0-1.21-.65c-.39-.24-.8-.46-1.21-.66a12.9,12.9,0,0,0-1.22-.65,10.81,10.81,0,0,0-1.21-.65c-.39-.24-.8-.46-1.21-.66a12.9,12.9,0,0,0-1.22-.65,10.81,10.81,0,0,0-1.21-.65c-.39-.24-.8-.46-1.21-.66s-.8-.45-1.21-.65a11.91,11.91,0,0,0-1.22-.65,12.81,12.81,0,0,0-1.21-.66c-.39-.24-.8-.45-1.21-.65a11.91,11.91,0,0,0-1.22-.65,12.81,12.81,0,0,0-1.21-.66,11.76,11.76,0,0,0-1.21-.65,11.91,11.91,0,0,0-1.22-.65,12.81,12.81,0,0,0-1.21-.66,11.76,11.76,0,0,0-1.21-.65,13,13,0,0,0-1.22-.66c-.39-.23-.79-.45-1.21-.65a11.76,11.76,0,0,0-1.21-.65,13,13,0,0,0-1.22-.66,12.73,12.73,0,0,0-1.21-.65,11.76,11.76,0,0,0-1.21-.65c-.39-.24-.8-.46-1.21-.66s-.8-.45-1.22-.65a10.81,10.81,0,0,0-1.21-.65c-.39-.24-.8-.46-1.21-.66s-.8-.45-1.22-.65A10.81,10.81,0,0,0,657,531c-.39-.24-.8-.46-1.21-.66a12.9,12.9,0,0,0-1.22-.65,10.81,10.81,0,0,0-1.21-.65c-.39-.24-.8-.46-1.21-.66a12.9,12.9,0,0,0-1.22-.65,10.81,10.81,0,0,0-1.21-.65c-.39-.24-.8-.46-1.21-.66a12.9,12.9,0,0,0-1.22-.65,10.81,10.81,0,0,0-1.21-.65,12.36,12.36,0,0,0-12.45-.34L528.82,581.6h0v40.53h0v.11l121.31,65.24h0l1.22.65h0L761.71,629a24,24,0,0,0,12.78-21.2v-6.2A12.23,12.23,0,0,0,767.38,590.41Z"/><path class="cls-3" d="M606.1,571.63l-39.68,21.53,43,23.14,32.8-17.8a14.75,14.75,0,0,0-.05-26l-1.83-1A36,36,0,0,0,606.1,571.63Z"/><ellipse class="cls-2" cx="625.03" cy="583.37" rx="15.15" ry="9.77"/><path class="cls-11" d="M528.82,581.6l122.53,66,104.79-56.87s5.87-4,11.24-.32"/><polygon class="cls-2" points="609.42 616.31 566.44 593.15 566.44 651.06 609.42 674.17 609.42 616.31"/><path class="cls-11" d="M642.17,572.55l-1.83-1a36,36,0,0,0-34.24.07l-39.68,21.53h0v57.89l43,23.12V616.31h0l32.8-17.8A14.75,14.75,0,0,0,642.17,572.55Z"/><rect class="cls-16" x="586.94" y="540.93" width="16.99" height="26.22" rx="8.49"/><circle class="cls-17" cx="595.26" cy="536.98" r="7.82"/><rect class="cls-8" x="652.18" y="484.9" width="7.05" height="53.06" rx="3.53"/><rect class="cls-13" x="631.04" y="439.13" width="49.32" height="69.19" rx="23.38"/><path class="cls-18" d="M710.57,563.36l-27.74,15a16.07,16.07,0,0,1-15.32,0l-27.74-15a16.12,16.12,0,0,1-8.46-14.18V537.23a43.84,43.84,0,0,1,23-38.56h0a43.85,43.85,0,0,1,41.68,0l0,0a43.84,43.84,0,0,1,23,38.58v11.93A16.12,16.12,0,0,1,710.57,563.36Z"/><path class="cls-8" d="M659.29,573.83l-.07-24.07A12.34,12.34,0,0,0,652.8,539h0a5.82,5.82,0,0,0-8.61,5.11v21.65Z"/><rect class="cls-8" x="614.64" y="493.11" width="7.05" height="53.06" rx="3.53"/><rect class="cls-13" x="593.51" y="447.34" width="49.32" height="69.19" rx="23.38"/><rect class="cls-1" x="648.54" y="446.25" width="30.16" height="42.31" rx="14.29"/><rect class="cls-1" x="611.18" y="455.49" width="30.16" height="42.31" rx="14.29"/><ellipse class="cls-4" cx="684.09" cy="520.36" rx="24.45" ry="23.3"/><rect class="cls-8" x="721.12" y="556.71" width="5.78" height="33.25" rx="2.89"/><rect class="cls-13" x="704.98" y="522.65" width="38.05" height="53.38" rx="19.02"/><rect class="cls-1" x="717.62" y="527.73" width="24.08" height="35.12" rx="11.64"/><rect class="cls-19" x="673.32" y="585.24" width="16.99" height="26.22" rx="8.49"/><circle class="cls-19" cx="681.64" cy="581.3" r="7.82"/></svg>