<svg id="Layer_1" data-name="Layer 1" xmlns="http://www.w3.org/2000/svg" viewBox="0 0 870 740"><defs><style>.cls-1{fill:#cceffc;}.cls-2{fill:#99dff9;}.cls-3,.cls-5{fill:#fff;}.cls-4,.cls-6,.cls-8{fill:none;}.cls-4,.cls-5,.cls-6{stroke:#00aeef;}.cls-4{stroke-linejoin:round;}.cls-4,.cls-5,.cls-6,.cls-8{stroke-width:2px;}.cls-5,.cls-6,.cls-8{stroke-miterlimit:10;}.cls-7{fill:#00aeef;}.cls-8{stroke:#99dff9;}</style></defs><title>Transactions2</title><rect class="cls-1" width="870" height="740"/><rect class="cls-2" x="160.86" y="177.34" width="614.18" height="410.97"/><polygon class="cls-3" points="522.79 88.79 549.57 103.26 576.35 88.79 576.35 59.67 549.77 45.02 522.79 59.67 522.79 88.79"/><polygon class="cls-2" points="549.77 103.26 549.59 74.41 522.82 59.81 522.82 88.84 549.77 103.26"/><polygon class="cls-3" points="549.4 103.26 549.58 74.41 576.35 59.81 576.35 88.84 549.4 103.26"/><polygon class="cls-4" points="522.79 88.79 549.57 103.26 576.35 88.79 576.35 59.67 549.59 45.2 522.79 59.67 522.79 88.79"/><rect class="cls-5" x="135.45" y="151.93" width="614.18" height="410.97"/><rect class="cls-5" x="278.01" y="279.16" width="329.05" height="50.66" rx="25.01"/><rect class="cls-1" x="327.91" y="296.62" width="7.76" height="14.81"/><rect class="cls-1" x="339.76" y="296.62" width="7.76" height="14.81"/><rect class="cls-1" x="351.6" y="296.62" width="7.76" height="14.81"/><rect class="cls-1" x="363.45" y="296.62" width="7.76" height="14.81"/><rect class="cls-1" x="375.29" y="296.62" width="7.76" height="14.81"/><rect class="cls-1" x="387.14" y="296.62" width="7.76" height="14.81"/><rect class="cls-1" x="398.98" y="296.62" width="7.76" height="14.81"/><rect class="cls-1" x="410.83" y="296.62" width="7.76" height="14.81"/><rect class="cls-1" x="422.67" y="296.62" width="7.76" height="14.81"/><rect class="cls-1" x="434.52" y="296.62" width="7.76" height="14.81"/><rect class="cls-1" x="446.36" y="296.62" width="7.76" height="14.81"/><rect class="cls-1" x="457.58" y="296.62" width="7.76" height="14.81"/><rect class="cls-1" x="469.42" y="296.62" width="7.76" height="14.81"/><rect class="cls-1" x="481.27" y="296.62" width="7.76" height="14.81"/><rect class="cls-1" x="493.11" y="296.62" width="7.76" height="14.81"/><rect class="cls-1" x="504.96" y="296.62" width="7.76" height="14.81"/><rect class="cls-1" x="516.8" y="296.62" width="7.76" height="14.81"/><rect class="cls-1" x="528.65" y="296.62" width="7.76" height="14.81"/><rect class="cls-1" x="540.49" y="296.62" width="7.76" height="14.81"/><rect class="cls-1" x="552.34" y="296.62" width="7.76" height="14.81"/><rect class="cls-1" x="564.18" y="296.62" width="7.76" height="14.81"/><rect class="cls-1" x="576.03" y="296.62" width="7.76" height="14.81"/><circle class="cls-6" cx="303.22" cy="303.37" r="9.34"/><line class="cls-6" x1="309.89" y1="310.04" x2="316.89" y2="317.04"/><path class="cls-7" d="M289.39,235.25V201.12h11.95q6.21,0,9.42,2.38a8.14,8.14,0,0,1,3.21,7,7.71,7.71,0,0,1-1.29,4.42,7.44,7.44,0,0,1-3.58,2.8,7.17,7.17,0,0,1,4.13,2.65,7.82,7.82,0,0,1,1.52,4.88q0,4.92-3.14,7.45c-2.1,1.69-5.08,2.55-9,2.58Zm7-19.83h5.2c3.55-.06,5.32-1.48,5.32-4.24a3.91,3.91,0,0,0-1.35-3.34,7,7,0,0,0-4.25-1h-4.92Zm0,5v9.21h6a5.81,5.81,0,0,0,3.88-1.19,4,4,0,0,0,1.39-3.27c0-3.12-1.61-4.71-4.85-4.75Z"/><path class="cls-7" d="M326.72,235.25h-6.79v-36h6.79Z"/><path class="cls-7" d="M331.25,222.33a15,15,0,0,1,1.45-6.72,10.59,10.59,0,0,1,4.18-4.57,12.2,12.2,0,0,1,6.34-1.62,11.56,11.56,0,0,1,8.38,3.14,12.57,12.57,0,0,1,3.62,8.53l0,1.73a13.26,13.26,0,0,1-3.26,9.37,12.61,12.61,0,0,1-17.49,0q-3.27-3.51-3.27-9.56Zm6.77.48a9.45,9.45,0,0,0,1.36,5.53,4.88,4.88,0,0,0,7.73,0c.92-1.26,1.39-3.27,1.39-6a9.4,9.4,0,0,0-1.39-5.49,4.49,4.49,0,0,0-3.89-2,4.4,4.4,0,0,0-3.84,1.94Q338,218.76,338,222.81Z"/><path class="cls-7" d="M370,230.25a4.41,4.41,0,0,0,3-1,3.57,3.57,0,0,0,1.22-2.74h6.36a8.73,8.73,0,0,1-1.41,4.72,9.24,9.24,0,0,1-3.79,3.33,11.82,11.82,0,0,1-5.3,1.19,11,11,0,0,1-8.58-3.46q-3.15-3.47-3.14-9.55v-.45q0-5.85,3.11-9.35a10.88,10.88,0,0,1,8.56-3.49,10.66,10.66,0,0,1,7.63,2.71,9.61,9.61,0,0,1,2.92,7.2h-6.36a4.59,4.59,0,0,0-1.22-3.21,4.52,4.52,0,0,0-6.66.48q-1.22,1.72-1.21,5.6v.71q0,3.92,1.2,5.63A4.11,4.11,0,0,0,370,230.25Z"/><path class="cls-7" d="M393.68,225.07l-2.43,2.44v7.74h-6.78v-36h6.78v19.94l1.31-1.69,6.49-7.61h8.13L398,220.46l10,14.79H400.2Z"/><path class="cls-7" d="M443,220.41h-13.5v9.19h15.85v5.65H422.51V201.12h22.83v5.7h-15.8V215H443Z"/><path class="cls-7" d="M458.72,217.46l4.27-7.57h7.24L463,222.31l7.52,12.94h-7.26l-4.52-8-4.5,8H447l7.52-12.94-7.2-12.42h7.27Z"/><path class="cls-7" d="M496.32,222.8q0,5.87-2.66,9.39a8.55,8.55,0,0,1-7.19,3.53,7.92,7.92,0,0,1-6.21-2.68v12h-6.77V209.89h6.28l.23,2.48a8,8,0,0,1,6.43-3,8.55,8.55,0,0,1,7.28,3.47q2.61,3.47,2.61,9.56Zm-6.78-.52a10.06,10.06,0,0,0-1.25-5.47,4.08,4.08,0,0,0-3.65-1.93,4.43,4.43,0,0,0-4.38,2.44v10.42a4.51,4.51,0,0,0,4.43,2.51Q489.55,230.25,489.54,222.28Z"/><path class="cls-7" d="M507.66,235.25h-6.8v-36h6.8Z"/><path class="cls-7" d="M512.18,222.33a15,15,0,0,1,1.46-6.72,10.59,10.59,0,0,1,4.18-4.57,12.18,12.18,0,0,1,6.34-1.62,11.58,11.58,0,0,1,8.38,3.14,12.62,12.62,0,0,1,3.62,8.53l.05,1.73a13.26,13.26,0,0,1-3.26,9.37,12.62,12.62,0,0,1-17.5,0q-3.27-3.51-3.27-9.56Zm6.78.48a9.45,9.45,0,0,0,1.36,5.53,4.88,4.88,0,0,0,7.73,0q1.38-1.89,1.38-6a9.4,9.4,0,0,0-1.38-5.49,4.49,4.49,0,0,0-3.89-2,4.39,4.39,0,0,0-3.84,1.94Q519,218.76,519,222.81Z"/><path class="cls-7" d="M554.63,216.24a17.68,17.68,0,0,0-2.44-.19q-3.84,0-5,2.6v16.6h-6.77V209.89h6.4l.18,3a6.28,6.28,0,0,1,5.65-3.49,7.17,7.17,0,0,1,2.11.3Z"/><path class="cls-7" d="M569.11,235.72a12.46,12.46,0,0,1-9.08-3.43,12.18,12.18,0,0,1-3.5-9.11v-.66a15.36,15.36,0,0,1,1.47-6.83,10.8,10.8,0,0,1,4.19-4.64,11.68,11.68,0,0,1,6.17-1.63,10.51,10.51,0,0,1,8.19,3.28q3,3.28,3,9.3v2.77H563.39a6.28,6.28,0,0,0,2,4,6,6,0,0,0,4.19,1.5,7.31,7.31,0,0,0,6.12-2.83l3.32,3.72a10.18,10.18,0,0,1-4.12,3.37A13.64,13.64,0,0,1,569.11,235.72Zm-.77-20.84a4.24,4.24,0,0,0-3.27,1.36,7.11,7.11,0,0,0-1.61,3.91h9.43v-.54a5,5,0,0,0-1.22-3.49A4.35,4.35,0,0,0,568.34,214.88Z"/><path class="cls-7" d="M597.64,216.24a17.79,17.79,0,0,0-2.44-.19q-3.84,0-5,2.6v16.6h-6.77V209.89h6.39l.19,3a6.27,6.27,0,0,1,5.65-3.49,7.22,7.22,0,0,1,2.11.3Z"/><line class="cls-8" x1="278.01" y1="392.46" x2="607.06" y2="392.46"/><line class="cls-8" x1="278.01" y1="523.43" x2="607.06" y2="523.43"/><line class="cls-8" x1="278.01" y1="479.78" x2="607.06" y2="479.78"/><line class="cls-8" x1="278.01" y1="436.12" x2="607.06" y2="436.12"/><polygon class="cls-3" points="80.37 287.01 137.16 317.7 193.95 287.01 193.95 225.26 137.58 194.19 80.37 225.26 80.37 287.01"/><polygon class="cls-2" points="137.58 317.7 137.21 256.52 80.44 225.55 80.44 287.11 137.58 317.7"/><polygon class="cls-3" points="136.81 317.7 137.18 256.52 193.95 225.55 193.95 287.11 136.81 317.7"/><polygon class="cls-4" points="80.37 287.01 137.16 317.7 193.95 287.01 193.95 225.26 137.21 194.57 80.37 225.26 80.37 287.01"/><polygon class="cls-3" points="801.85 289.64 828.63 304.11 855.41 289.64 855.41 260.52 828.83 245.87 801.85 260.52 801.85 289.64"/><polygon class="cls-2" points="828.83 304.11 828.65 275.26 801.88 260.65 801.88 289.68 828.83 304.11"/><polygon class="cls-3" points="828.47 304.11 828.64 275.26 855.41 260.65 855.41 289.68 828.47 304.11"/><polygon class="cls-4" points="801.85 289.64 828.63 304.11 855.41 289.64 855.41 260.52 828.65 246.05 801.85 260.52 801.85 289.64"/><polygon class="cls-3" points="75.21 658.86 101.99 673.33 128.77 658.86 128.77 629.74 102.19 615.08 75.21 629.74 75.21 658.86"/><polygon class="cls-2" points="102.19 673.33 102.01 644.48 75.24 629.87 75.24 658.9 102.19 673.33"/><polygon class="cls-3" points="101.82 673.33 102 644.48 128.77 629.87 128.77 658.9 101.82 673.33"/><polygon class="cls-4" points="75.21 658.86 101.99 673.33 128.77 658.86 128.77 629.74 102.01 615.27 75.21 629.74 75.21 658.86"/><polygon class="cls-3" points="112.33 679.66 139.11 694.13 165.89 679.66 165.89 650.54 139.31 635.89 112.33 650.54 112.33 679.66"/><polygon class="cls-2" points="139.31 694.13 139.14 665.29 112.37 650.68 112.37 679.71 139.31 694.13"/><polygon class="cls-3" points="138.95 694.13 139.12 665.29 165.89 650.68 165.89 679.71 138.95 694.13"/><polygon class="cls-4" points="112.33 679.66 139.11 694.13 165.89 679.66 165.89 650.54 139.14 636.07 112.33 650.54 112.33 679.66"/><polygon class="cls-3" points="643.12 638.75 669.9 653.22 696.68 638.75 696.68 609.63 670.1 594.98 643.12 609.63 643.12 638.75"/><polygon class="cls-2" points="670.1 653.22 669.92 624.37 643.15 609.76 643.15 638.79 670.1 653.22"/><polygon class="cls-3" points="669.73 653.22 669.91 624.37 696.68 609.76 696.68 638.79 669.73 653.22"/><polygon class="cls-4" points="643.12 638.75 669.9 653.22 696.68 638.75 696.68 609.63 669.92 595.16 643.12 609.63 643.12 638.75"/><rect class="cls-1" x="290.61" y="406.89" width="7.76" height="14.81"/><rect class="cls-1" x="302.45" y="406.89" width="7.76" height="14.81"/><rect class="cls-1" x="314.3" y="406.89" width="7.76" height="14.81"/><rect class="cls-1" x="326.14" y="406.89" width="7.76" height="14.81"/><rect class="cls-1" x="337.99" y="406.89" width="7.76" height="14.81"/><rect class="cls-1" x="349.84" y="406.89" width="7.76" height="14.81"/><rect class="cls-1" x="361.68" y="406.89" width="7.76" height="14.81"/><rect class="cls-1" x="373.53" y="406.89" width="7.76" height="14.81"/><rect class="cls-1" x="410.53" y="406.89" width="7.76" height="14.81"/><rect class="cls-1" x="422.37" y="406.89" width="7.76" height="14.81"/><rect class="cls-1" x="434.22" y="406.89" width="7.76" height="14.81"/><rect class="cls-1" x="472.21" y="406.89" width="7.76" height="14.81"/><rect class="cls-1" x="484.06" y="406.89" width="7.76" height="14.81"/><rect class="cls-1" x="495.91" y="406.89" width="7.76" height="14.81"/><rect class="cls-1" x="507.75" y="406.89" width="7.76" height="14.81"/><rect class="cls-1" x="541.28" y="406.89" width="7.76" height="14.81"/><rect class="cls-1" x="553.13" y="406.89" width="7.76" height="14.81"/><rect class="cls-1" x="564.97" y="406.89" width="7.76" height="14.81"/><rect class="cls-1" x="576.82" y="406.89" width="7.76" height="14.81"/><rect class="cls-1" x="290.61" y="450.54" width="7.76" height="14.81"/><rect class="cls-1" x="302.45" y="450.54" width="7.76" height="14.81"/><rect class="cls-1" x="314.3" y="450.54" width="7.76" height="14.81"/><rect class="cls-1" x="326.14" y="450.54" width="7.76" height="14.81"/><rect class="cls-1" x="337.99" y="450.54" width="7.76" height="14.81"/><rect class="cls-1" x="349.84" y="450.54" width="7.76" height="14.81"/><rect class="cls-1" x="361.68" y="450.54" width="7.76" height="14.81"/><rect class="cls-1" x="373.53" y="450.54" width="7.76" height="14.81"/><rect class="cls-1" x="410.53" y="450.54" width="7.76" height="14.81"/><rect class="cls-1" x="422.37" y="450.54" width="7.76" height="14.81"/><rect class="cls-1" x="434.22" y="450.54" width="7.76" height="14.81"/><rect class="cls-1" x="472.21" y="450.54" width="7.76" height="14.81"/><rect class="cls-1" x="484.06" y="450.54" width="7.76" height="14.81"/><rect class="cls-1" x="495.91" y="450.54" width="7.76" height="14.81"/><rect class="cls-1" x="507.75" y="450.54" width="7.76" height="14.81"/><rect class="cls-1" x="541.28" y="450.54" width="7.76" height="14.81"/><rect class="cls-1" x="553.13" y="450.54" width="7.76" height="14.81"/><rect class="cls-1" x="564.97" y="450.54" width="7.76" height="14.81"/><rect class="cls-1" x="576.82" y="450.54" width="7.76" height="14.81"/><rect class="cls-1" x="290.61" y="494.2" width="7.76" height="14.81"/><rect class="cls-1" x="302.45" y="494.2" width="7.76" height="14.81"/><rect class="cls-1" x="314.3" y="494.2" width="7.76" height="14.81"/><rect class="cls-1" x="326.14" y="494.2" width="7.76" height="14.81"/><rect class="cls-1" x="337.99" y="494.2" width="7.76" height="14.81"/><rect class="cls-1" x="349.84" y="494.2" width="7.76" height="14.81"/><rect class="cls-1" x="361.68" y="494.2" width="7.76" height="14.81"/><rect class="cls-1" x="373.53" y="494.2" width="7.76" height="14.81"/><rect class="cls-1" x="410.53" y="494.2" width="7.76" height="14.81"/><rect class="cls-1" x="422.37" y="494.2" width="7.76" height="14.81"/><rect class="cls-1" x="434.22" y="494.2" width="7.76" height="14.81"/><rect class="cls-1" x="472.21" y="494.2" width="7.76" height="14.81"/><rect class="cls-1" x="484.06" y="494.2" width="7.76" height="14.81"/><rect class="cls-1" x="495.91" y="494.2" width="7.76" height="14.81"/><rect class="cls-1" x="507.75" y="494.2" width="7.76" height="14.81"/><rect class="cls-1" x="541.28" y="494.2" width="7.76" height="14.81"/><rect class="cls-1" x="553.13" y="494.2" width="7.76" height="14.81"/><rect class="cls-1" x="564.97" y="494.2" width="7.76" height="14.81"/><rect class="cls-1" x="576.82" y="494.2" width="7.76" height="14.81"/></svg>