<svg id="Layer_1" data-name="Layer 1" xmlns="http://www.w3.org/2000/svg" xmlns:xlink="http://www.w3.org/1999/xlink" viewBox="0 0 870 740"><defs><style>.cls-1,.cls-11,.cls-15{fill:#cceffc;}.cls-2{fill:url(#linear-gradient);}.cls-3,.cls-8{fill:#00aeef;}.cls-10,.cls-11,.cls-12,.cls-14,.cls-15,.cls-3,.cls-7,.cls-9{stroke:#00aeef;}.cls-15,.cls-3,.cls-7{stroke-linejoin:round;}.cls-10,.cls-11,.cls-12,.cls-14,.cls-3,.cls-7,.cls-9{stroke-width:2px;}.cls-12,.cls-4{fill:#99dff9;}.cls-14,.cls-5{fill:#ebf9fe;}.cls-6,.cls-9{fill:#fff;}.cls-7{fill:none;}.cls-10,.cls-11,.cls-12,.cls-14,.cls-9{stroke-miterlimit:10;}.cls-10{fill:#66cef5;}.cls-13{fill:url(#linear-gradient-2);}.cls-15{stroke-width:2.15px;}.cls-16{fill:#e0f5fd;}</style><linearGradient id="linear-gradient" x1="188.32" y1="356.42" x2="214.04" y2="309.27" gradientUnits="userSpaceOnUse"><stop offset="0" stop-color="#cceffc"/><stop offset="1" stop-color="#00aeef"/></linearGradient><linearGradient id="linear-gradient-2" x1="593.23" y1="595.68" x2="618.95" y2="548.53" xlink:href="#linear-gradient"/></defs><title>Wallet2</title><rect class="cls-1" width="870" height="740"/><polygon class="cls-2" points="91.43 309.89 213.74 377.21 335.98 309.89 213.67 243.53 91.43 309.89"/><polygon class="cls-3" points="239.52 278.38 155.01 324.24 198.01 347.38 282.51 301.52 239.52 278.38"/><polygon class="cls-4" points="239.94 361.34 239.9 320.89 117.42 254.8 117.42 295.44 239.94 361.34"/><path class="cls-5" d="M239.94,361.34V320.8l104.8-56.87a12.41,12.41,0,0,1,18.35,10.83V281a24,24,0,0,1-12.78,21.19Z"/><path class="cls-6" d="M356,263.61c-.39-.24-.8-.45-1.21-.65a11.91,11.91,0,0,0-1.22-.65,12.81,12.81,0,0,0-1.21-.66c-.39-.24-.8-.45-1.21-.65a11.91,11.91,0,0,0-1.22-.65,12.81,12.81,0,0,0-1.21-.66c-.39-.24-.8-.45-1.21-.65a11,11,0,0,0-1.22-.65,12.81,12.81,0,0,0-1.21-.66c-.39-.24-.8-.45-1.21-.65a11.76,11.76,0,0,0-1.21-.65c-.4-.24-.8-.46-1.22-.66a53948931232882.34,53948931232882.34,0,0,1-2.42-1.3c-.4-.24-.8-.46-1.22-.66a10.81,10.81,0,0,0-1.21-.65,11.76,11.76,0,0,0-1.21-.65c-.4-.24-.8-.46-1.22-.66a10.81,10.81,0,0,0-1.21-.65c-.39-.24-.8-.46-1.21-.66a12.9,12.9,0,0,0-1.22-.65,10.81,10.81,0,0,0-1.21-.65c-.39-.24-.8-.46-1.21-.66a12.9,12.9,0,0,0-1.22-.65,10.81,10.81,0,0,0-1.21-.65c-.39-.24-.8-.46-1.21-.66s-.8-.45-1.21-.65a11.91,11.91,0,0,0-1.22-.65c-.39-.24-.8-.46-1.21-.66s-.8-.45-1.21-.65a11.91,11.91,0,0,0-1.22-.65,12.81,12.81,0,0,0-1.21-.66c-.39-.24-.8-.45-1.21-.65a11.91,11.91,0,0,0-1.22-.65,12.81,12.81,0,0,0-1.21-.66c-.39-.24-.8-.45-1.21-.65a11,11,0,0,0-1.22-.65,12.81,12.81,0,0,0-1.21-.66c-.39-.24-.8-.45-1.21-.65a11.76,11.76,0,0,0-1.21-.65c-.4-.24-.8-.46-1.22-.66s-.8-.45-1.21-.65a11.76,11.76,0,0,0-1.21-.65c-.4-.24-.8-.46-1.22-.66a10.81,10.81,0,0,0-1.21-.65,11.76,11.76,0,0,0-1.21-.65c-.4-.24-.8-.46-1.22-.66a10.81,10.81,0,0,0-1.21-.65,11.76,11.76,0,0,0-1.21-.65c-.4-.24-.8-.46-1.22-.66a10.81,10.81,0,0,0-1.21-.65c-.39-.24-.8-.46-1.21-.66a12.9,12.9,0,0,0-1.22-.65,10.81,10.81,0,0,0-1.21-.65c-.39-.24-.8-.46-1.21-.66A12.9,12.9,0,0,0,288,227a10.81,10.81,0,0,0-1.21-.65c-.39-.24-.8-.46-1.21-.66s-.8-.45-1.21-.65a11.91,11.91,0,0,0-1.22-.65,12.81,12.81,0,0,0-1.21-.66c-.39-.24-.8-.45-1.21-.65a11.91,11.91,0,0,0-1.22-.65,12.81,12.81,0,0,0-1.21-.66c-.39-.24-.8-.45-1.21-.65a11.91,11.91,0,0,0-1.22-.65,12.81,12.81,0,0,0-1.21-.66c-.39-.24-.8-.45-1.21-.65a11,11,0,0,0-1.22-.65,12.81,12.81,0,0,0-1.21-.66c-.39-.24-.8-.45-1.21-.65a11,11,0,0,0-1.22-.65,12.81,12.81,0,0,0-1.21-.66c-.39-.24-.8-.45-1.21-.65a11.76,11.76,0,0,0-1.21-.65c-.4-.24-.8-.46-1.22-.66a12.73,12.73,0,0,0-1.21-.65,11.76,11.76,0,0,0-1.21-.65c-.4-.24-.8-.46-1.22-.66a10.81,10.81,0,0,0-1.21-.65,11.76,11.76,0,0,0-1.21-.65,13,13,0,0,0-1.22-.66,10.81,10.81,0,0,0-1.21-.65c-.39-.24-.8-.46-1.21-.66a12.9,12.9,0,0,0-1.22-.65,10.81,10.81,0,0,0-1.21-.65c-.39-.24-.8-.46-1.21-.66s-.8-.45-1.21-.65a11.91,11.91,0,0,0-1.22-.65c-.39-.24-.8-.46-1.21-.66s-.8-.45-1.21-.65a11.91,11.91,0,0,0-1.22-.65,12.81,12.81,0,0,0-1.21-.66c-.39-.24-.8-.45-1.21-.65a11.91,11.91,0,0,0-1.22-.65,12.81,12.81,0,0,0-1.21-.66c-.39-.24-.8-.45-1.21-.65a11.91,11.91,0,0,0-1.22-.65,12.81,12.81,0,0,0-1.21-.66c-.39-.24-.8-.45-1.21-.65a12.38,12.38,0,0,0-12.46-.33L117.42,254.8v40.54l1.21-.65V296l1.21-.65v1.31l1.22-.66v1.31l1.21-.65V298l1.21-.65v1.31l1.21-.65v1.3l1.22-.65v1.3l1.21-.65v1.31l1.21-.65v1.3l1.22-.65v1.3l1.21-.65v1.31l1.21-.65v1.3l1.22-.65v1.3l1.21-.65v1.31l1.21-.65v1.3l1.22-.65v1.3l1.21-.65v1.31l1.21-.65v1.3l1.22-.65v1.3l1.21-.65v1.31l1.21-.65v1.3l1.21-.65v1.3l1.22-.65v1.31l1.21-.65V311l1.21-.65v1.3L149,311v1.31l1.21-.65V313l1.21-.65v1.3l1.22-.65v1.31l1.21-.65v1.3l1.21-.65v1.31l1.22-.66v1.31l1.21-.65v1.3l1.21-.65v1.31l1.21-.66v1.31l1.22-.65v1.3l1.21-.65v1.31l1.21-.65v1.3l1.22-.65v1.3l1.21-.65v1.31l1.21-.65v1.3l1.22-.65v1.3l1.21-.65v1.31l1.21-.65v1.3l1.22-.65v1.3l1.21-.65v1.31l1.21-.65v1.3l1.22-.65v1.3l1.21-.65v1.31l1.21-.65V328l1.22-.65v1.3l1.21-.65v1.31l1.21-.65V330l1.21-.65v1.3l1.22-.65v1.31l1.21-.65v1.3l1.21-.65v1.3l1.22-.65v1.31l1.21-.65v1.3l1.21-.65v1.3l1.22-.65v1.31l1.21-.65v1.3l1.21-.65v1.31l1.22-.66v1.31l1.21-.65v1.3l1.21-.65v1.31l1.21-.66v1.31l1.22-.65v1.3l1.21-.65v1.31l1.21-.65v1.3l1.22-.65v1.3l1.21-.65v1.31l1.21-.65V343l1.22-.65v1.3l1.21-.65v1.31l1.21-.65V345l1.22-.65v1.3L212,345v1.31l1.21-.65V347l1.22-.65v1.3l1.21-.65v1.31l1.21-.65v1.3l1.21-.65v1.3l1.22-.65v1.31l1.21-.65v1.3l1.21-.65v1.3l1.22-.65v1.31l1.21-.65v1.3l1.21-.65v1.3l1.22-.65v1.31l1.21-.65v1.3l1.21-.65v1.3l1.22-.65v1.31l1.21-.65v1.3l1.21-.65v1.31l1.22-.66v1.31l1.21-.65v1.3l1.21-.65v1.31l1.21-.65V360l1.22-.65v1.3l1.21-.65v1.31l110.37-59.19A24,24,0,0,0,363.09,281v-6.2A12.24,12.24,0,0,0,356,263.61Z"/><polygon class="cls-4" points="239.94 361.34 239.9 320.89 117.42 254.8 117.42 295.44 239.94 361.34"/><path class="cls-5" d="M239.94,361.34V320.8l104.8-56.87a12.41,12.41,0,0,1,18.35,10.83V281a24,24,0,0,1-12.78,21.19Z"/><path class="cls-7" d="M356,263.61c-.39-.24-.8-.45-1.21-.65a11.91,11.91,0,0,0-1.22-.65,12.81,12.81,0,0,0-1.21-.66c-.39-.24-.8-.45-1.21-.65a11.91,11.91,0,0,0-1.22-.65,12.81,12.81,0,0,0-1.21-.66c-.39-.24-.8-.45-1.21-.65a11,11,0,0,0-1.22-.65,12.81,12.81,0,0,0-1.21-.66c-.39-.24-.8-.45-1.21-.65a11.76,11.76,0,0,0-1.21-.65c-.4-.24-.8-.46-1.22-.66a53948931232882.34,53948931232882.34,0,0,1-2.42-1.3c-.4-.24-.8-.46-1.22-.66a10.81,10.81,0,0,0-1.21-.65,11.76,11.76,0,0,0-1.21-.65c-.4-.24-.8-.46-1.22-.66a10.81,10.81,0,0,0-1.21-.65c-.39-.24-.8-.46-1.21-.66a12.9,12.9,0,0,0-1.22-.65,10.81,10.81,0,0,0-1.21-.65c-.39-.24-.8-.46-1.21-.66a12.9,12.9,0,0,0-1.22-.65,10.81,10.81,0,0,0-1.21-.65c-.39-.24-.8-.46-1.21-.66s-.8-.45-1.21-.65a11.91,11.91,0,0,0-1.22-.65c-.39-.24-.8-.46-1.21-.66s-.8-.45-1.21-.65a11.91,11.91,0,0,0-1.22-.65,12.81,12.81,0,0,0-1.21-.66c-.39-.24-.8-.45-1.21-.65a11.91,11.91,0,0,0-1.22-.65,12.81,12.81,0,0,0-1.21-.66c-.39-.24-.8-.45-1.21-.65a11,11,0,0,0-1.22-.65,12.81,12.81,0,0,0-1.21-.66c-.39-.24-.8-.45-1.21-.65a11.76,11.76,0,0,0-1.21-.65c-.4-.24-.8-.46-1.22-.66s-.8-.45-1.21-.65a11.76,11.76,0,0,0-1.21-.65c-.4-.24-.8-.46-1.22-.66a10.81,10.81,0,0,0-1.21-.65,11.76,11.76,0,0,0-1.21-.65c-.4-.24-.8-.46-1.22-.66a10.81,10.81,0,0,0-1.21-.65,11.76,11.76,0,0,0-1.21-.65c-.4-.24-.8-.46-1.22-.66a10.81,10.81,0,0,0-1.21-.65c-.39-.24-.8-.46-1.21-.66a12.9,12.9,0,0,0-1.22-.65,10.81,10.81,0,0,0-1.21-.65c-.39-.24-.8-.46-1.21-.66A12.9,12.9,0,0,0,288,227a10.81,10.81,0,0,0-1.21-.65c-.39-.24-.8-.46-1.21-.66s-.8-.45-1.21-.65a11.91,11.91,0,0,0-1.22-.65,12.81,12.81,0,0,0-1.21-.66c-.39-.24-.8-.45-1.21-.65a11.91,11.91,0,0,0-1.22-.65,12.81,12.81,0,0,0-1.21-.66c-.39-.24-.8-.45-1.21-.65a11.91,11.91,0,0,0-1.22-.65,12.81,12.81,0,0,0-1.21-.66c-.39-.24-.8-.45-1.21-.65a11,11,0,0,0-1.22-.65,12.81,12.81,0,0,0-1.21-.66c-.39-.24-.8-.45-1.21-.65a11,11,0,0,0-1.22-.65,12.81,12.81,0,0,0-1.21-.66c-.39-.24-.8-.45-1.21-.65a11.76,11.76,0,0,0-1.21-.65c-.4-.24-.8-.46-1.22-.66a12.73,12.73,0,0,0-1.21-.65,11.76,11.76,0,0,0-1.21-.65c-.4-.24-.8-.46-1.22-.66a10.81,10.81,0,0,0-1.21-.65,11.76,11.76,0,0,0-1.21-.65,13,13,0,0,0-1.22-.66,10.81,10.81,0,0,0-1.21-.65c-.39-.24-.8-.46-1.21-.66a12.9,12.9,0,0,0-1.22-.65,10.81,10.81,0,0,0-1.21-.65c-.39-.24-.8-.46-1.21-.66s-.8-.45-1.21-.65a11.91,11.91,0,0,0-1.22-.65c-.39-.24-.8-.46-1.21-.66s-.8-.45-1.21-.65a11.91,11.91,0,0,0-1.22-.65,12.81,12.81,0,0,0-1.21-.66c-.39-.24-.8-.45-1.21-.65a11.91,11.91,0,0,0-1.22-.65,12.81,12.81,0,0,0-1.21-.66c-.39-.24-.8-.45-1.21-.65a11.91,11.91,0,0,0-1.22-.65,12.81,12.81,0,0,0-1.21-.66c-.39-.24-.8-.45-1.21-.65a12.38,12.38,0,0,0-12.46-.33L117.42,254.8h0v40.54h0v.1l121.31,65.24h0l1.21.65h0l110.37-59.18A24,24,0,0,0,363.09,281v-6.2A12.24,12.24,0,0,0,356,263.61Z"/><path class="cls-6" d="M194.69,244.83,155,266.36l43,23.14,32.8-17.8a14.75,14.75,0,0,0-.05-25.95l-1.83-1A36,36,0,0,0,194.69,244.83Z"/><ellipse class="cls-4" cx="213.63" cy="256.57" rx="15.15" ry="9.77"/><path class="cls-7" d="M117.42,254.8l122.52,66,104.8-56.87s5.87-4,11.24-.32"/><polygon class="cls-4" points="198.01 289.51 155.04 266.36 155.04 324.26 198.01 347.38 198.01 289.51"/><path class="cls-7" d="M230.76,245.75l-1.83-1a36,36,0,0,0-34.24.06L155,266.36h0v57.9l43,23.11V289.51h0l32.8-17.8A14.75,14.75,0,0,0,230.76,245.75Z"/><ellipse class="cls-7" cx="213.63" cy="256.57" rx="15.15" ry="9.77"/><polygon class="cls-6" points="203.79 213.34 222.38 223.39 240.97 213.34 240.97 134.46 222.52 124.29 203.79 134.46 203.79 213.34"/><polygon class="cls-4" points="222.52 223.39 222.4 144.7 203.81 134.56 203.81 213.37 222.52 223.39"/><polygon class="cls-7" points="203.79 213.34 222.38 223.39 240.97 213.34 240.97 134.46 222.4 124.42 203.79 134.46 203.79 213.34"/><polygon class="cls-6" points="171.6 229.22 190.19 239.27 208.78 229.22 208.78 150.34 190.33 140.17 171.6 150.34 171.6 229.22"/><polygon class="cls-4" points="190.33 239.27 190.21 160.57 171.62 150.44 171.62 229.25 190.33 239.27"/><polygon class="cls-7" points="171.6 229.22 190.19 239.27 208.78 229.22 208.78 150.34 190.21 140.29 171.6 150.34 171.6 229.22"/><rect class="cls-8" x="249.35" y="199.89" width="5.78" height="33.25" rx="2.89" transform="translate(504.48 433.04) rotate(-180)"/><rect class="cls-9" x="233.21" y="165.83" width="38.05" height="53.38" rx="19.02" transform="translate(504.48 385.05) rotate(-180)"/><rect class="cls-10" x="197.21" y="216.82" width="32.61" height="50.33" rx="16.3"/><circle class="cls-11" cx="213.09" cy="209.4" r="12.44"/><rect class="cls-10" x="285.57" y="231.01" width="16.99" height="26.22" rx="8.49" transform="translate(588.12 488.23) rotate(-180)"/><circle class="cls-11" cx="294.24" cy="227.06" r="7.82"/><rect class="cls-11" x="255.19" y="262.03" width="16.99" height="26.22" rx="8.49" transform="translate(527.36 550.28) rotate(180)"/><circle class="cls-9" cx="263.86" cy="258.09" r="7.82"/><rect class="cls-12" x="105.77" y="65.67" width="267.06" height="70" rx="35"/><path class="cls-9" d="M157.41,92.93c0,7-12.62,27.92-12.62,27.92S132.16,99.9,132.16,92.93a12.63,12.63,0,1,1,25.25,0Z"/><circle class="cls-8" cx="144.79" cy="93.97" r="4.33"/><rect class="cls-1" x="168.56" y="92.56" width="10.72" height="20.46"/><rect class="cls-1" x="184.93" y="92.56" width="10.72" height="20.46"/><rect class="cls-1" x="201.29" y="92.56" width="10.72" height="20.46"/><rect class="cls-1" x="217.66" y="92.56" width="10.72" height="20.46"/><rect class="cls-1" x="234.03" y="92.56" width="10.72" height="20.46"/><rect class="cls-1" x="250.39" y="92.56" width="10.72" height="20.46"/><rect class="cls-1" x="266.76" y="92.56" width="10.72" height="20.46"/><rect class="cls-1" x="283.13" y="92.56" width="10.72" height="20.46"/><rect class="cls-1" x="299.5" y="92.56" width="10.72" height="20.46"/><rect class="cls-1" x="315.86" y="92.56" width="10.72" height="20.46"/><rect class="cls-1" x="332.23" y="92.56" width="10.72" height="20.46"/><polygon class="cls-13" points="496.33 549.15 618.65 616.47 740.88 549.15 618.57 482.8 496.33 549.15"/><circle class="cls-4" cx="305.07" cy="307.43" r="8.1"/><circle class="cls-4" cx="347.73" cy="330.99" r="8.1"/><circle class="cls-4" cx="390.4" cy="354.56" r="8.1"/><circle class="cls-4" cx="433.07" cy="378.13" r="8.1"/><circle class="cls-4" cx="475.74" cy="401.7" r="8.1"/><circle class="cls-4" cx="518.4" cy="425.27" r="8.1"/><circle class="cls-4" cx="561.07" cy="448.84" r="8.1"/><circle class="cls-4" cx="603.74" cy="472.4" r="8.1"/><polygon class="cls-6" points="492.12 438.62 518.9 453.09 545.68 438.62 545.68 409.5 519.1 394.85 492.12 409.5 492.12 438.62"/><polygon class="cls-4" points="519.1 453.09 518.92 424.24 492.15 409.64 492.15 438.67 519.1 453.09"/><polygon class="cls-6" points="518.74 453.09 518.91 424.24 545.68 409.64 545.68 438.67 518.74 453.09"/><polygon class="cls-7" points="492.12 438.62 518.9 453.09 545.68 438.62 545.68 409.5 518.92 395.03 492.12 409.5 492.12 438.62"/><ellipse class="cls-14" cx="522.72" cy="324.11" rx="46.84" ry="60.65" transform="translate(-89.62 381.78) rotate(-37.18)"/><ellipse class="cls-12" cx="515.52" cy="330.06" rx="46.84" ry="60.65" transform="matrix(0.8, -0.6, 0.6, 0.8, -94.68, 378.64)"/><ellipse class="cls-12" cx="515.42" cy="330.13" rx="39.6" ry="53.95" transform="translate(-94.83 377.5) rotate(-37.08)"/><path class="cls-5" d="M531.31,337.66c-.82-.79,0-.8.36-.79,5.38.16,8.28-8.53,2.75-14.69a27.43,27.43,0,0,0-4.9-4.46c-1.19-.8-1.3-1.47-.89-2.49.66-1.67,1.17-3.43,1.8-5.12.27-.75.06-1.2-.71-1.64a29.77,29.77,0,0,1-2.7-1.63c-.91-.63-1.29-.36-1.54.45-.39,1.28-.84,2.51-1.28,3.76-.92,2.64-.91,2.61-3.63.87-.86-.55-1-1-.68-1.75.64-1.77,1.22-3.58,1.86-5.35.25-.69,0-1.15-.68-1.56-1-.57-2-1.16-2.92-1.77-.73-.45-1.08-.27-1.3.42-.57,1.77-1.25,3.47-1.78,5.26-.31,1.05-.8,1.22-1.88.54-2.41-1.53-4.87-2.95-7.29-4.45-.76-.47-1.18-.42-1.41.35a29.46,29.46,0,0,1-1,3c-.32.76,0,1.17.73,1.6a31.15,31.15,0,0,1,3,1.92,3.16,3.16,0,0,1,1.39,3.61c-.19.65-.43,1.29-.65,1.93q-3.09,8.94-6.18,17.88c-.5,1.44-1.31,1.65-2.82.8-.72-.4-1.43-.84-2.13-1.31s-1.25-.48-1.62.23c-.44.89-1,1.7-1.48,2.55-.86,1.51-.86,1.52.88,2.58,2.28,1.39,4.55,2.81,6.85,4.15.91.52,1.08,1,.78,1.83-.68,1.83-1.27,3.72-1.95,5.55a1.16,1.16,0,0,0,.65,1.57c.94.55,1.89,1.1,2.81,1.7.75.49,1.18.4,1.43-.35.46-1.4,1-2.75,1.45-4.16.94-3,.79-2.3,3.34-.88,1.1.61,1.21,1.23.87,2.14-.65,1.72-1.19,3.51-1.84,5.23-.3.77,0,1.19.72,1.61s1.74,1,2.58,1.57,1.38.49,1.66-.43c.57-1.81,1.25-3.55,1.82-5.36.27-.84.74-1,1.59-.52a24,24,0,0,0,4.78,2c.79.27,1.57.6,2.36.79,3.69.88,6.66.15,8.59-2.72C535.74,348.2,536.57,342.75,531.31,337.66ZM522,346a8,8,0,0,1-3.74-.58,43.24,43.24,0,0,1-8-4.2,1,1,0,0,1-.53-1.28c1-2.81,1.94-5.64,2.91-8.46.2-.57.59-.68,1.19-.33A42.62,42.62,0,0,1,522,336.8a12.21,12.21,0,0,1,2.13,2.67C525.9,342.45,524.86,345.68,522,346Zm3.45-15.88a6.42,6.42,0,0,1-3.82-.36,37.14,37.14,0,0,1-6.26-3.28c-.56-.35-.75-.74-.56-1.28.87-2.52,1.75-5.05,2.62-7.58.18-.52.49-.66,1.07-.34a28.4,28.4,0,0,1,7,5C528.37,325.2,528.34,329.23,525.49,330.12Z"/><polygon class="cls-3" points="644.72 517.66 560.21 563.51 603.21 586.65 687.72 540.8 644.72 517.66"/><polygon class="cls-4" points="645.14 600.61 645.1 560.17 522.62 494.08 522.62 534.72 645.14 600.61"/><path class="cls-5" d="M645.14,600.61V560.08l104.8-56.87A12.41,12.41,0,0,1,768.29,514v6.2a24,24,0,0,1-12.78,21.2Z"/><path class="cls-6" d="M761.18,502.89a11.76,11.76,0,0,0-1.21-.65,13,13,0,0,0-1.22-.66,10.81,10.81,0,0,0-1.21-.65,11.76,11.76,0,0,0-1.21-.65c-.39-.24-.8-.46-1.21-.66a11.91,11.91,0,0,0-1.22-.65,11.76,11.76,0,0,0-1.21-.65c-.39-.24-.8-.46-1.21-.66a11.91,11.91,0,0,0-1.22-.65,12.81,12.81,0,0,0-1.21-.66c-.39-.24-.8-.45-1.21-.65a11.91,11.91,0,0,0-1.22-.65,12.81,12.81,0,0,0-1.21-.66c-.39-.24-.8-.45-1.21-.65a11,11,0,0,0-1.22-.65,12.81,12.81,0,0,0-1.21-.66c-.39-.24-.8-.45-1.21-.65a11,11,0,0,0-1.22-.65,12.81,12.81,0,0,0-1.21-.66c-.39-.24-.8-.45-1.21-.65a11,11,0,0,0-1.22-.65,215.27,215.27,0,0,0-2.42-1.31,11.76,11.76,0,0,0-1.21-.65c-.4-.24-.8-.46-1.22-.66a12.73,12.73,0,0,0-1.21-.65,11.76,11.76,0,0,0-1.21-.65c-.4-.24-.8-.46-1.22-.66a12.73,12.73,0,0,0-1.21-.65,11.76,11.76,0,0,0-1.21-.65c-.4-.24-.8-.46-1.22-.66a12.73,12.73,0,0,0-1.21-.65,11.76,11.76,0,0,0-1.21-.65,13,13,0,0,0-1.22-.66,10.81,10.81,0,0,0-1.21-.65,11.76,11.76,0,0,0-1.21-.65c-.39-.24-.8-.46-1.21-.66a11.91,11.91,0,0,0-1.22-.65,12.81,12.81,0,0,0-1.21-.66c-.39-.23-.8-.45-1.21-.65a11.91,11.91,0,0,0-1.22-.65,12.81,12.81,0,0,0-1.21-.66c-.39-.24-.8-.45-1.21-.65a11.91,11.91,0,0,0-1.22-.65,12.81,12.81,0,0,0-1.21-.66c-.39-.24-.8-.45-1.21-.65a11,11,0,0,0-1.22-.65,12.81,12.81,0,0,0-1.21-.66c-.39-.24-.8-.45-1.21-.65a11,11,0,0,0-1.22-.65,12.81,12.81,0,0,0-1.21-.66c-.39-.24-.8-.45-1.21-.65a11.76,11.76,0,0,0-1.21-.65c-.4-.24-.8-.46-1.22-.66s-.8-.45-1.21-.65a11.76,11.76,0,0,0-1.21-.65c-.4-.24-.8-.46-1.22-.66a12.73,12.73,0,0,0-1.21-.65,11.76,11.76,0,0,0-1.21-.65c-.4-.24-.8-.46-1.22-.66a12.73,12.73,0,0,0-1.21-.65,11.76,11.76,0,0,0-1.21-.65,13,13,0,0,0-1.22-.66,12.73,12.73,0,0,0-1.21-.65,11.76,11.76,0,0,0-1.21-.65c-.39-.24-.8-.46-1.21-.66a11.91,11.91,0,0,0-1.22-.65,11.76,11.76,0,0,0-1.21-.65c-.39-.24-.8-.46-1.21-.66a11.91,11.91,0,0,0-1.22-.65,12.81,12.81,0,0,0-1.21-.66c-.39-.23-.8-.45-1.21-.65a11.91,11.91,0,0,0-1.22-.65,12.81,12.81,0,0,0-1.21-.66c-.39-.24-.8-.45-1.21-.65a11.91,11.91,0,0,0-1.22-.65,12.81,12.81,0,0,0-1.21-.66c-.39-.24-.8-.45-1.21-.65a11,11,0,0,0-1.22-.65,12.81,12.81,0,0,0-1.21-.66c-.39-.24-.8-.45-1.21-.65a11,11,0,0,0-1.22-.65,12.81,12.81,0,0,0-1.21-.66c-.39-.24-.8-.45-1.21-.65a11.76,11.76,0,0,0-1.21-.65c-.4-.24-.8-.46-1.22-.66a12.73,12.73,0,0,0-1.21-.65,11.76,11.76,0,0,0-1.21-.65c-.4-.24-.8-.46-1.22-.66a12.73,12.73,0,0,0-1.21-.65,11.76,11.76,0,0,0-1.21-.65c-.4-.24-.8-.46-1.22-.66a12.73,12.73,0,0,0-1.21-.65,11.76,11.76,0,0,0-1.21-.65,13,13,0,0,0-1.22-.66,12.73,12.73,0,0,0-1.21-.65,11.76,11.76,0,0,0-1.21-.65c-.39-.24-.8-.46-1.21-.66a11.91,11.91,0,0,0-1.22-.65,11.76,11.76,0,0,0-1.21-.65,12.34,12.34,0,0,0-12.45-.34l-104.8,56.87v40.53l1.21-.65v1.31l1.21-.65v1.3l1.22-.65v1.3l1.21-.65v1.31l1.21-.65v1.3l1.22-.65v1.3l1.21-.65v1.31l1.21-.65v1.3l1.22-.65v1.3l1.21-.65v1.31l1.21-.65v1.3l1.21-.65v1.31l1.22-.66v1.31l1.21-.65v1.3l1.21-.65v1.31l1.22-.65v1.3l1.21-.65v1.3l1.21-.65v1.31l1.22-.65V547l1.21-.65v1.3l1.21-.65v1.31l1.22-.65V549l1.21-.65v1.3l1.21-.65v1.31l1.22-.65V551l1.21-.65v1.3l1.21-.65v1.31l1.21-.65v1.3l1.22-.65v1.3l1.21-.65v1.31l1.21-.65v1.3l1.22-.65v1.3l1.21-.65v1.31l1.21-.65v1.3l1.22-.65v1.3l1.21-.65v1.31l1.21-.65v1.3l1.22-.65v1.3l1.21-.65v1.31l1.21-.65v1.3l1.21-.65v1.3l1.22-.65v1.31l1.21-.65v1.3l1.21-.65v1.31l1.22-.66V564l1.21-.65v1.3l1.21-.65v1.31l1.22-.65V566l1.21-.65v1.3l1.21-.65v1.31l1.22-.65v1.3l1.21-.65v1.3l1.21-.65v1.31l1.22-.65v1.3l1.21-.65v1.3l1.21-.65v1.31l1.22-.65v1.3l1.21-.65v1.3l1.21-.65v1.31l1.21-.65v1.3l1.22-.65v1.3l1.21-.65v1.31l1.21-.65v1.3l1.22-.65v1.3l1.21-.65v1.31l1.21-.65v1.3l1.22-.65v1.3l1.21-.65v1.31l1.21-.65v1.3l1.22-.65v1.3l1.21-.65V581l1.21-.65v1.3l1.21-.65v1.3l1.22-.65V583l1.21-.65v1.3l1.21-.65v1.31l1.22-.66v1.31l1.21-.65v1.3l1.21-.65v1.31l1.22-.65v1.3l1.21-.65v1.3l1.21-.65v1.31l1.22-.65v1.3l1.21-.65v1.3l1.21-.65v1.31l1.22-.65v1.3l1.21-.65v1.3l1.21-.65v1.31l1.21-.65v1.3l1.22-.65v1.3l1.21-.65v1.31l1.21-.65v1.3l1.22-.65v1.3l1.21-.65V596l1.21-.65v1.3l1.22-.65v1.3l1.21-.65V598l1.21-.65v1.3l1.22-.65v1.3l1.21-.65V600l1.21-.65v1.3l110.37-59.18a24,24,0,0,0,12.78-21.2V514A12.23,12.23,0,0,0,761.18,502.89Z"/><polygon class="cls-4" points="645.14 600.61 645.1 560.17 522.62 494.08 522.62 534.72 645.14 600.61"/><path class="cls-5" d="M645.14,600.61V560.08l104.8-56.87A12.41,12.41,0,0,1,768.29,514v6.2a24,24,0,0,1-12.78,21.2Z"/><path class="cls-7" d="M761.18,502.89a11.76,11.76,0,0,0-1.21-.65,13,13,0,0,0-1.22-.66,10.81,10.81,0,0,0-1.21-.65,11.76,11.76,0,0,0-1.21-.65c-.39-.24-.8-.46-1.21-.66a11.91,11.91,0,0,0-1.22-.65,11.76,11.76,0,0,0-1.21-.65c-.39-.24-.8-.46-1.21-.66a11.91,11.91,0,0,0-1.22-.65,12.81,12.81,0,0,0-1.21-.66c-.39-.24-.8-.45-1.21-.65a11.91,11.91,0,0,0-1.22-.65,12.81,12.81,0,0,0-1.21-.66c-.39-.24-.8-.45-1.21-.65a11,11,0,0,0-1.22-.65,12.81,12.81,0,0,0-1.21-.66c-.39-.24-.8-.45-1.21-.65a11,11,0,0,0-1.22-.65,12.81,12.81,0,0,0-1.21-.66c-.39-.24-.8-.45-1.21-.65a11,11,0,0,0-1.22-.65,215.27,215.27,0,0,0-2.42-1.31,11.76,11.76,0,0,0-1.21-.65c-.4-.24-.8-.46-1.22-.66a12.73,12.73,0,0,0-1.21-.65,11.76,11.76,0,0,0-1.21-.65c-.4-.24-.8-.46-1.22-.66a12.73,12.73,0,0,0-1.21-.65,11.76,11.76,0,0,0-1.21-.65c-.4-.24-.8-.46-1.22-.66a12.73,12.73,0,0,0-1.21-.65,11.76,11.76,0,0,0-1.21-.65,13,13,0,0,0-1.22-.66,10.81,10.81,0,0,0-1.21-.65,11.76,11.76,0,0,0-1.21-.65c-.39-.24-.8-.46-1.21-.66a11.91,11.91,0,0,0-1.22-.65,12.81,12.81,0,0,0-1.21-.66c-.39-.23-.8-.45-1.21-.65a11.91,11.91,0,0,0-1.22-.65,12.81,12.81,0,0,0-1.21-.66c-.39-.24-.8-.45-1.21-.65a11.91,11.91,0,0,0-1.22-.65,12.81,12.81,0,0,0-1.21-.66c-.39-.24-.8-.45-1.21-.65a11,11,0,0,0-1.22-.65,12.81,12.81,0,0,0-1.21-.66c-.39-.24-.8-.45-1.21-.65a11,11,0,0,0-1.22-.65,12.81,12.81,0,0,0-1.21-.66c-.39-.24-.8-.45-1.21-.65a11.76,11.76,0,0,0-1.21-.65c-.4-.24-.8-.46-1.22-.66s-.8-.45-1.21-.65a11.76,11.76,0,0,0-1.21-.65c-.4-.24-.8-.46-1.22-.66a12.73,12.73,0,0,0-1.21-.65,11.76,11.76,0,0,0-1.21-.65c-.4-.24-.8-.46-1.22-.66a12.73,12.73,0,0,0-1.21-.65,11.76,11.76,0,0,0-1.21-.65,13,13,0,0,0-1.22-.66,12.73,12.73,0,0,0-1.21-.65,11.76,11.76,0,0,0-1.21-.65c-.39-.24-.8-.46-1.21-.66a11.91,11.91,0,0,0-1.22-.65,11.76,11.76,0,0,0-1.21-.65c-.39-.24-.8-.46-1.21-.66a11.91,11.91,0,0,0-1.22-.65,12.81,12.81,0,0,0-1.21-.66c-.39-.23-.8-.45-1.21-.65a11.91,11.91,0,0,0-1.22-.65,12.81,12.81,0,0,0-1.21-.66c-.39-.24-.8-.45-1.21-.65a11.91,11.91,0,0,0-1.22-.65,12.81,12.81,0,0,0-1.21-.66c-.39-.24-.8-.45-1.21-.65a11,11,0,0,0-1.22-.65,12.81,12.81,0,0,0-1.21-.66c-.39-.24-.8-.45-1.21-.65a11,11,0,0,0-1.22-.65,12.81,12.81,0,0,0-1.21-.66c-.39-.24-.8-.45-1.21-.65a11.76,11.76,0,0,0-1.21-.65c-.4-.24-.8-.46-1.22-.66a12.73,12.73,0,0,0-1.21-.65,11.76,11.76,0,0,0-1.21-.65c-.4-.24-.8-.46-1.22-.66a12.73,12.73,0,0,0-1.21-.65,11.76,11.76,0,0,0-1.21-.65c-.4-.24-.8-.46-1.22-.66a12.73,12.73,0,0,0-1.21-.65,11.76,11.76,0,0,0-1.21-.65,13,13,0,0,0-1.22-.66,12.73,12.73,0,0,0-1.21-.65,11.76,11.76,0,0,0-1.21-.65c-.39-.24-.8-.46-1.21-.66a11.91,11.91,0,0,0-1.22-.65,11.76,11.76,0,0,0-1.21-.65,12.34,12.34,0,0,0-12.45-.34l-104.8,56.87h0v40.53h0v.11L643.93,600h0l1.21.65h0l110.36-59.18a24,24,0,0,0,12.78-21.2V514A12.23,12.23,0,0,0,761.18,502.89Z"/><path class="cls-6" d="M599.89,484.11l-39.68,21.53,43,23.14L636,511a14.75,14.75,0,0,0,0-26l-1.84-1A36,36,0,0,0,599.89,484.11Z"/><ellipse class="cls-4" cx="618.83" cy="495.84" rx="15.15" ry="9.77"/><path class="cls-7" d="M522.62,494.08l122.52,66,104.8-56.87s5.87-4,11.24-.32"/><polygon class="cls-4" points="603.22 528.79 560.24 505.63 560.24 563.54 603.22 586.65 603.22 528.79"/><path class="cls-7" d="M636,485l-1.84-1a36,36,0,0,0-34.24.07l-39.68,21.53h0v57.89l43,23.11V528.79h0L636,511A14.75,14.75,0,0,0,636,485Z"/><rect class="cls-10" x="563.74" y="463.41" width="16.99" height="26.22" rx="8.49"/><circle class="cls-9" cx="572.05" cy="459.46" r="7.82"/><rect class="cls-8" x="645.97" y="397.38" width="7.05" height="53.06" rx="3.53"/><rect class="cls-12" x="624.84" y="351.61" width="49.32" height="69.19" rx="23.38"/><path class="cls-15" d="M704.37,475.84l-27.74,15a16.07,16.07,0,0,1-15.32,0l-27.74-15a16.12,16.12,0,0,1-8.46-14.18v-12a43.84,43.84,0,0,1,23-38.56h0a43.87,43.87,0,0,1,41.69,0l0,0a43.86,43.86,0,0,1,23,38.58v11.93A16.12,16.12,0,0,1,704.37,475.84Z"/><path class="cls-8" d="M653.09,486.3,653,462.24a12.3,12.3,0,0,0-6.42-10.78h0a5.81,5.81,0,0,0-8.6,5.1v21.66Z"/><rect class="cls-8" x="608.44" y="405.59" width="7.05" height="53.06" rx="3.53"/><rect class="cls-12" x="587.31" y="359.82" width="49.32" height="69.19" rx="23.38"/><rect class="cls-1" x="642.33" y="358.73" width="30.16" height="42.31" rx="14.29"/><rect class="cls-1" x="604.98" y="367.97" width="30.16" height="42.31" rx="14.29"/><ellipse class="cls-16" cx="677.88" cy="432.84" rx="24.45" ry="23.3"/><rect class="cls-8" x="714.92" y="469.19" width="5.78" height="33.25" rx="2.89"/><rect class="cls-12" x="698.78" y="435.13" width="38.05" height="53.38" rx="19.02"/><rect class="cls-1" x="711.42" y="440.21" width="24.08" height="35.12" rx="11.64"/><rect class="cls-11" x="667.12" y="497.72" width="16.99" height="26.22" rx="8.49"/><circle class="cls-11" cx="675.44" cy="493.78" r="7.82"/></svg>