<svg id="Layer_1" data-name="Layer 1" xmlns="http://www.w3.org/2000/svg" xmlns:xlink="http://www.w3.org/1999/xlink" viewBox="0 0 870 740"><defs><style>.cls-1,.cls-15,.cls-2,.cls-7{fill:none;}.cls-11,.cls-14,.cls-15,.cls-16,.cls-17,.cls-19,.cls-2,.cls-20,.cls-7{stroke:#00aeef;}.cls-11,.cls-14,.cls-16,.cls-19,.cls-2,.cls-20,.cls-21{stroke-miterlimit:10;}.cls-11,.cls-14,.cls-16,.cls-19,.cls-2,.cls-20,.cls-21,.cls-7{stroke-width:2px;}.cls-3{clip-path:url(#clip-path);}.cls-17,.cls-4{fill:#cceffc;}.cls-16,.cls-5{fill:#fff;}.cls-14,.cls-6{fill:#99dff9;}.cls-15,.cls-17,.cls-7{stroke-linejoin:round;}.cls-20,.cls-21,.cls-8{fill:#ebf9fe;}.cls-11,.cls-9{fill:#00aeef;}.cls-10{fill:#e0f5fd;}.cls-12{fill:#c2ecfb;}.cls-13{clip-path:url(#clip-path-2);}.cls-15,.cls-17{stroke-width:2.15px;}.cls-18{fill:#66cef5;}.cls-19{fill:#85d8f7;}.cls-21{stroke:#99dff9;}.cls-22{fill:#33bef2;}.cls-23{fill:#6ed1f6;}</style><clipPath id="clip-path"><rect class="cls-1" width="870" height="740"/></clipPath><clipPath id="clip-path-2"><path class="cls-2" d="M338.24,408.23a10.77,10.77,0,1,1-21.54,0c0-6,10.77-20.8,10.77-20.8S338.24,402.28,338.24,408.23Z"/></clipPath></defs><title>Wallet3</title><g class="cls-3"><rect class="cls-4" width="870" height="740"/><circle class="cls-5" cx="16.87" cy="31.59" r="6"/><circle class="cls-5" cx="47.26" cy="47.43" r="6"/><circle class="cls-5" cx="77.66" cy="63.27" r="6"/><circle class="cls-5" cx="108.06" cy="79.1" r="6"/><circle class="cls-5" cx="138.46" cy="94.94" r="6"/><circle class="cls-5" cx="168.85" cy="110.77" r="6"/><circle class="cls-5" cx="199.25" cy="126.61" r="6"/><circle class="cls-5" cx="229.55" cy="121.92" r="6"/><circle class="cls-5" cx="259.79" cy="105.8" r="6"/><circle class="cls-5" cx="290.04" cy="89.67" r="6"/><circle class="cls-5" cx="320.28" cy="73.55" r="6"/><circle class="cls-5" cx="350.53" cy="57.42" r="6"/><circle class="cls-5" cx="380.77" cy="41.3" r="6"/><circle class="cls-5" cx="411.02" cy="25.17" r="6"/><circle class="cls-5" cx="441.26" cy="9.05" r="6"/><polygon class="cls-5" points="189.58 144.08 216.36 158.55 243.14 144.08 243.14 114.96 216.56 100.31 189.58 114.96 189.58 144.08"/><polygon class="cls-6" points="216.56 158.55 216.38 129.71 189.61 115.1 189.61 144.13 216.56 158.55"/><polygon class="cls-5" points="216.19 158.55 216.37 129.71 243.14 115.1 243.14 144.13 216.19 158.55"/><polygon class="cls-7" points="189.58 144.08 216.36 158.55 243.14 144.08 243.14 114.96 216.38 100.49 189.58 114.96 189.58 144.08"/><path class="cls-8" d="M266.2,52.2A46.51,46.51,0,0,1,259.82,74c6.91-6.87,11-16.52,11.58-27.82C272.27,30,265.9,13.25,255.2,0h-9.76C258.89,14.23,267.2,33.6,266.2,52.2Z"/><path class="cls-9" d="M272.4,46.21c-.73,13.5-6.29,24.27-14.86,31.11a38.84,38.84,0,0,1-2.62,3.09c.39-.25.79-.48,1.17-.75,10.39-7.17,16.54-19,17.31-33.4.86-16.13-5.27-32.83-15.68-46.26h-1.23C267,13.33,273.27,30,272.4,46.21Z"/><path class="cls-9" d="M271.4,46.15c-.61,11.3-4.67,20.95-11.58,27.82-.71,1.16-1.47,2.28-2.28,3.35,8.57-6.84,14.13-17.61,14.86-31.11C273.27,30,267,13.33,256.49,0H255.2C265.9,13.25,272.27,30,271.4,46.15Z"/><path class="cls-6" d="M224.25,85.8a46.53,46.53,0,0,1-13.05-2.59c-25.38-8.74-45.41-37.13-44.66-63.27.05-1.44.16-2.85.32-4.24,0-.94,0-1.88.08-2.81A50.52,50.52,0,0,1,169.28,0h-2.51a45.32,45.32,0,0,0-5,18.94C160.18,48,182,79,210.4,88c13.82,4.4,27,3,37.21-4A41.72,41.72,0,0,1,233,86.61,49.18,49.18,0,0,1,224.25,85.8Z"/><path class="cls-6" d="M242.67,0h-7.8c14.9,13,24.86,32.68,24.33,51.25h0c-.37,12.56-5.42,22.83-14.23,28.92a31,31,0,0,1-9.23,4.34,37.72,37.72,0,0,0,17.85-5.61c6.32-6.79,10-16.05,10.61-26.8C265.21,33.41,256.53,13.94,242.67,0Z"/><path class="cls-6" d="M172.2,0h-.8c-.35,1-.68,2.08-1,3.16A33.27,33.27,0,0,1,172.2,0Z"/><path class="cls-6" d="M230.77,85.53a36.8,36.8,0,0,1-4.72.32c-.6,0-1.2,0-1.8,0a49.18,49.18,0,0,0,8.77.81,41.72,41.72,0,0,0,14.59-2.55l.15-.1a35.06,35.06,0,0,0,3-2.36A40.87,40.87,0,0,1,230.77,85.53Z"/><path class="cls-6" d="M170.34,0h-1.06a50.52,50.52,0,0,0-2.34,12.89c-.05.93-.08,1.87-.08,2.81a41.58,41.58,0,0,1,1.54-7.33A46.7,46.7,0,0,1,170.34,0Z"/><path class="cls-6" d="M253.59,78.9a37.72,37.72,0,0,1-17.85,5.61,32.67,32.67,0,0,1-5,1,40.87,40.87,0,0,0,20-3.93A34,34,0,0,0,253.59,78.9Z"/><path class="cls-6" d="M170.44,3.16c.28-1.08.61-2.13,1-3.16h-1.06a46.7,46.7,0,0,0-1.94,8.37A36.61,36.61,0,0,1,170.44,3.16Z"/><path class="cls-9" d="M209.8,90a53,53,0,0,0,16,2.61,40.1,40.1,0,0,0,23.07-7,38.45,38.45,0,0,0,6-5.2,37.45,37.45,0,0,1-3.54,2C241.17,91.21,226.29,94.15,210.1,89c-28.85-9.19-50.94-40.58-49.36-70.11A46.61,46.61,0,0,1,165.65,0h-1.13a47.82,47.82,0,0,0-4.78,18.83C158.14,48.75,180.59,80.65,209.8,90Z"/><path class="cls-9" d="M245.44,0h-1.35c13.65,14.08,22.12,33.48,21.11,52.15-.52,9.78-3.59,18.11-8.49,24.57A35.52,35.52,0,0,0,259.82,74,46.51,46.51,0,0,0,266.2,52.2C267.2,33.6,258.89,14.23,245.44,0Z"/><path class="cls-9" d="M254.23,79.67a36.94,36.94,0,0,1-2.85,2.75,37.45,37.45,0,0,0,3.54-2,38.84,38.84,0,0,0,2.62-3.09A34.77,34.77,0,0,1,254.23,79.67Z"/><path class="cls-9" d="M256.71,76.72a37.18,37.18,0,0,1-2.48,3,34.77,34.77,0,0,0,3.31-2.35c.81-1.07,1.57-2.19,2.28-3.35A35.52,35.52,0,0,1,256.71,76.72Z"/><path class="cls-9" d="M210.4,88c-28.39-9-50.22-40-48.66-69.1a45.32,45.32,0,0,1,5-18.94h-1.12a46.61,46.61,0,0,0-4.91,18.89C159.16,48.42,181.25,79.81,210.1,89c16.19,5.15,31.07,2.21,41.28-6.58a38.32,38.32,0,0,1-3.77,1.64C237.42,91,224.22,92.44,210.4,88Z"/><path class="cls-9" d="M244.09,0h-1.42c13.86,13.94,22.54,33.41,21.53,52.1-.57,10.75-4.29,20-10.61,26.8.46-.29.92-.57,1.36-.88.61-.42,1.19-.85,1.76-1.3,4.9-6.46,8-14.79,8.49-24.57C266.21,33.48,257.74,14.08,244.09,0Z"/><path class="cls-9" d="M254.23,79.67a36.09,36.09,0,0,1-3.44,1.93,35.06,35.06,0,0,1-3,2.36l-.15.1a38.32,38.32,0,0,0,3.77-1.64A36.94,36.94,0,0,0,254.23,79.67Z"/><path class="cls-9" d="M255,78c-.44.31-.9.59-1.36.88a34,34,0,0,1-2.8,2.7,36.09,36.09,0,0,0,3.44-1.93,37.18,37.18,0,0,0,2.48-3C256.14,77.17,255.56,77.6,255,78Z"/><path class="cls-6" d="M174.08,45.47a71.37,71.37,0,0,0,24.67,29.28A79,79,0,0,1,174.08,45.47Z"/><path class="cls-6" d="M217.6,82.1a56.61,56.61,0,0,0,6.82,1.7,31.31,31.31,0,0,0,19.42-5.27c8.27-5.72,13-15.43,13.36-27.34.54-18.73-10-38.65-25.41-51.19H174.61a35,35,0,0,0-5.75,15.79C168.78,44,190.11,73.35,217.6,82.1Z"/><path class="cls-6" d="M168.78,26.27a60.57,60.57,0,0,0,5.3,19.2,79,79,0,0,0,24.67,29.28,57.21,57.21,0,0,0,13.1,6.57c1.15.4,2.29.73,3.43,1C191.71,73.91,173,50.69,168.78,26.27Z"/><path class="cls-6" d="M168.86,15.79c-.17,1.37-.27,2.77-.32,4.21a48.83,48.83,0,0,0,.24,6.27c4.24,24.42,22.93,47.64,46.5,56.09a42.92,42.92,0,0,0,9.14,1.44,56.61,56.61,0,0,1-6.82-1.7C190.11,73.35,168.78,44,168.86,15.79Z"/><path class="cls-9" d="M215,83.3c-1.14-.3-2.28-.63-3.43-1-23-7.93-41.5-32.14-43.76-56a61.61,61.61,0,0,1-.91-10.55c-.16,1.39-.27,2.8-.32,4.24-.75,26.14,19.28,54.53,44.66,63.27a46.53,46.53,0,0,0,13.05,2.59A56.9,56.9,0,0,1,217,84C216.31,83.79,215.63,83.55,215,83.3Z"/><path class="cls-9" d="M259.2,51.25h0C259.73,32.68,249.77,13,234.87,0h-1.5c15.17,12.77,25.36,32.54,24.83,51.22-.55,18.85-11.87,31.33-27.7,33.32a43.56,43.56,0,0,0,5.24,0A31,31,0,0,0,245,80.17C253.78,74.08,258.83,63.81,259.2,51.25Z"/><path class="cls-9" d="M169.37,8.6a33.86,33.86,0,0,1,4-8.6H172.2a33.27,33.27,0,0,0-1.76,3.16A47.15,47.15,0,0,0,169.37,8.6Z"/><path class="cls-9" d="M215,83.3c.67.25,1.35.49,2,.71a56.9,56.9,0,0,0,7.26,1.79c.6,0,1.2,0,1.8,0a36.8,36.8,0,0,0,4.72-.32,48.1,48.1,0,0,1-6.53-.76A43.29,43.29,0,0,1,215,83.3Z"/><path class="cls-9" d="M167.54,20c0-1.43.16-2.83.32-4.18,0-.95,0-1.9.08-2.85.08-1.56.25-3.08.46-4.57a41.58,41.58,0,0,0-1.54,7.33,61.61,61.61,0,0,0,.91,10.55A50.85,50.85,0,0,1,167.54,20Z"/><path class="cls-9" d="M230.5,84.54a37,37,0,0,1-6.26.23,48.1,48.1,0,0,0,6.53.76,32.67,32.67,0,0,0,5-1A43.56,43.56,0,0,1,230.5,84.54Z"/><path class="cls-9" d="M170.44,3.16a36.61,36.61,0,0,0-2,5.21c-.21,1.49-.38,3-.46,4.57-.05,1-.08,1.9-.08,2.85a41.22,41.22,0,0,1,1.51-7.19A47.15,47.15,0,0,1,170.44,3.16Z"/><path class="cls-9" d="M174.08,45.47a71.16,71.16,0,0,1-6.31-19.22c2.26,23.88,20.74,48.09,43.76,56,1.15.4,2.29.73,3.43,1a66.61,66.61,0,0,1-16.21-8.55A71.37,71.37,0,0,1,174.08,45.47Z"/><path class="cls-9" d="M168.86,15.79A35,35,0,0,1,174.61,0h-1.2a33.86,33.86,0,0,0-4,8.6c-.2,1.44-.35,2.9-.43,4.4C168.89,13.92,168.86,14.85,168.86,15.79Z"/><path class="cls-9" d="M257.2,51.19c-.35,11.91-5.09,21.62-13.36,27.34a31.31,31.31,0,0,1-19.42,5.27,49.65,49.65,0,0,0,6.08.74c15.83-2,27.15-14.47,27.7-33.32.53-18.68-9.66-38.45-24.83-51.22h-1.58C247.24,12.54,257.74,32.46,257.2,51.19Z"/><path class="cls-9" d="M215.28,82.36c-1.14-.31-2.28-.64-3.43-1a57.21,57.21,0,0,1-13.1-6.57A66.61,66.61,0,0,0,215,83.3a43.29,43.29,0,0,0,9.28,1.47,54,54,0,0,1-6.94-1.72C216.62,82.84,216,82.6,215.28,82.36Z"/><path class="cls-9" d="M168.78,26.27a59.85,59.85,0,0,1-.92-10.48c-.16,1.35-.28,2.75-.32,4.18a50.85,50.85,0,0,0,.23,6.28,71.16,71.16,0,0,0,6.31,19.22A60.57,60.57,0,0,1,168.78,26.27Z"/><path class="cls-9" d="M168.54,20c.05-1.44.15-2.84.32-4.21,0-.94,0-1.87.08-2.79.08-1.5.23-3,.43-4.4a41.22,41.22,0,0,0-1.51,7.19,59.85,59.85,0,0,0,.92,10.48A48.83,48.83,0,0,1,168.54,20Z"/><path class="cls-9" d="M215.28,82.36c.67.24,1.34.48,2,.69a54,54,0,0,0,6.94,1.72,37,37,0,0,0,6.26-.23,49.65,49.65,0,0,1-6.08-.74A42.92,42.92,0,0,1,215.28,82.36Z"/><path class="cls-8" d="M228.77,43.12c-.82-.79-.06-.8.36-.79,5.38.16,8.28-8.53,2.74-14.69a27.43,27.43,0,0,0-4.9-4.46c-1.18-.8-1.29-1.47-.89-2.49.66-1.67,1.17-3.43,1.8-5.12.28-.75.07-1.2-.71-1.64a30.25,30.25,0,0,1-2.7-1.63c-.91-.63-1.28-.36-1.53.45-.39,1.28-.85,2.51-1.28,3.76-.92,2.64-.91,2.61-3.64.87-.86-.55-1-1-.68-1.75.65-1.76,1.22-3.58,1.86-5.35.26-.69,0-1.15-.68-1.56-1-.57-2-1.16-2.92-1.77-.73-.45-1.07-.27-1.3.42-.56,1.77-1.25,3.47-1.77,5.26-.32,1-.8,1.22-1.88.54-2.42-1.53-4.87-2.95-7.3-4.45-.76-.47-1.18-.42-1.41.35a26.51,26.51,0,0,1-1,3c-.31.76,0,1.17.74,1.61a28.07,28.07,0,0,1,3,1.91A3.15,3.15,0,0,1,206,19.2c-.19.65-.43,1.29-.65,1.93Q202.29,30.07,199.2,39c-.5,1.44-1.31,1.65-2.81.8-.72-.4-1.43-.84-2.13-1.31s-1.26-.48-1.62.23c-.45.89-1,1.7-1.49,2.55-.86,1.51-.86,1.52.88,2.58,2.28,1.39,4.56,2.81,6.86,4.15.9.53,1.08,1,.77,1.83-.68,1.83-1.27,3.72-1.94,5.55-.26.69-.07,1.15.65,1.57.94.55,1.88,1.1,2.8,1.7.76.49,1.19.4,1.43-.34.46-1.41,1-2.76,1.46-4.17.94-3,.78-2.3,3.34-.88,1.09.61,1.21,1.23.86,2.14-.65,1.72-1.18,3.52-1.84,5.23-.3.77,0,1.19.72,1.61s1.74,1,2.59,1.57,1.37.49,1.66-.42c.56-1.82,1.25-3.56,1.82-5.37.26-.84.74-1,1.58-.52a23.07,23.07,0,0,0,4.78,2c.79.27,1.58.6,2.36.79,3.7.88,6.66.15,8.59-2.72C233.19,53.66,234,48.21,228.77,43.12Zm-9.28,8.34a8,8,0,0,1-3.74-.58,42.79,42.79,0,0,1-8-4.19,1,1,0,0,1-.54-1.29c1-2.81,1.95-5.64,2.91-8.46.2-.57.59-.68,1.19-.33a42.62,42.62,0,0,1,8.17,5.65,12.21,12.21,0,0,1,2.13,2.67C223.35,47.92,222.31,51.14,219.49,51.46ZM223,35.58a6.45,6.45,0,0,1-3.83-.36,37.14,37.14,0,0,1-6.26-3.28c-.55-.35-.74-.74-.56-1.27.88-2.53,1.76-5.06,2.62-7.59.18-.52.49-.66,1.07-.34a28.42,28.42,0,0,1,7,5C225.82,30.66,225.8,34.69,223,35.58Z"/><rect class="cls-6" x="83.29" y="167.34" width="614.53" height="411.2"/><rect class="cls-5" x="107.5" y="144.4" width="614.53" height="411.2"/><rect class="cls-10" x="208.32" y="188.79" width="514.17" height="366.69"/><rect class="cls-11" x="107.5" y="144.4" width="614.53" height="23.08"/><rect class="cls-5" x="269.99" y="410.01" width="188.09" height="75.37"/><rect class="cls-12" x="269.99" y="215.31" width="386.71" height="49.31"/><rect class="cls-5" x="471.19" y="410.01" width="188.09" height="75.37"/><path class="cls-9" d="M288,300.77h-6.53v17.76H277V300.77h-6.44v-3.56H288Z"/><path class="cls-9" d="M298.13,306.65a12.77,12.77,0,0,0-1.52-.11q-2.4,0-3.15,1.62v10.37h-4.23V302.69h4l.11,1.88a3.93,3.93,0,0,1,3.53-2.18,4.68,4.68,0,0,1,1.32.19Z"/><path class="cls-9" d="M308.91,318.53a4.88,4.88,0,0,1-.42-1.42,5.11,5.11,0,0,1-4,1.72,5.63,5.63,0,0,1-3.86-1.35,4.34,4.34,0,0,1-1.53-3.4,4.48,4.48,0,0,1,1.87-3.87,9.25,9.25,0,0,1,5.39-1.36h1.95v-.91a2.63,2.63,0,0,0-.56-1.75,2.22,2.22,0,0,0-1.78-.66,2.55,2.55,0,0,0-1.68.51,1.76,1.76,0,0,0-.61,1.41h-4.23a4.23,4.23,0,0,1,.85-2.55,5.64,5.64,0,0,1,2.4-1.84,8.69,8.69,0,0,1,3.49-.67,6.93,6.93,0,0,1,4.65,1.47,5.17,5.17,0,0,1,1.72,4.14v6.87a7.62,7.62,0,0,0,.63,3.42v.24Zm-3.5-2.94a3.63,3.63,0,0,0,1.73-.42,2.65,2.65,0,0,0,1.17-1.12v-2.72h-1.58c-2.12,0-3.25.73-3.38,2.2l0,.24a1.71,1.71,0,0,0,.56,1.31A2.17,2.17,0,0,0,305.41,315.59Z"/><path class="cls-9" d="M322.41,315.41a2.77,2.77,0,0,0,1.9-.64,2.25,2.25,0,0,0,.76-1.71h4a5.42,5.42,0,0,1-.88,2.95,5.75,5.75,0,0,1-2.36,2.08,7.49,7.49,0,0,1-3.32.74,6.87,6.87,0,0,1-5.36-2.16,8.55,8.55,0,0,1-2-6v-.28a8.47,8.47,0,0,1,2-5.85,6.82,6.82,0,0,1,5.35-2.18,6.72,6.72,0,0,1,4.77,1.69,6,6,0,0,1,1.82,4.51h-4a2.88,2.88,0,0,0-.76-2,2.52,2.52,0,0,0-1.93-.77,2.54,2.54,0,0,0-2.24,1.07,6.29,6.29,0,0,0-.75,3.5v.44a6.38,6.38,0,0,0,.74,3.52A2.58,2.58,0,0,0,322.41,315.41Z"/><path class="cls-9" d="M337.21,312.18l-1.52,1.52v4.83h-4.23V296h4.23V308.5l.82-1.05,4.06-4.76h5.08l-5.73,6.6,6.23,9.24h-4.86Z"/><line class="cls-7" x1="270.63" y1="344.28" x2="581.06" y2="344.28"/><line class="cls-7" x1="270.63" y1="334.29" x2="581.06" y2="334.29"/><rect class="cls-5" x="269.99" y="504.94" width="188.09" height="50.14"/><rect class="cls-2" x="107.5" y="144.4" width="614.53" height="411.2"/><rect class="cls-9" x="122.74" y="188.79" width="69.32" height="7.69"/><polygon class="cls-5" points="285.56 441.86 317.78 459.27 350 441.86 350 430.87 318.02 413.24 285.56 430.87 285.56 441.86"/><polygon class="cls-6" points="318.02 459.27 317.81 448.61 285.6 431.04 285.6 441.92 318.02 459.27"/><polygon class="cls-5" points="317.82 459.2 317.79 448.61 350 431.04 350 441.92 317.82 459.2"/><polygon class="cls-7" points="285.56 441.86 317.78 459.27 350 441.86 350 430.87 317.81 413.46 285.56 430.87 285.56 441.86"/><rect class="cls-9" x="326.26" y="405.77" width="2.51" height="18.91" rx="1.26"/><g class="cls-13"><path class="cls-14" d="M338.24,408.23a10.77,10.77,0,1,1-21.54,0c0-6,10.77-20.8,10.77-20.8S338.24,402.28,338.24,408.23Z"/><path class="cls-12" d="M338.67,405.52a8.49,8.49,0,0,1-17,0c0-4.69,6-18.23,6-18.23S338.67,400.83,338.67,405.52Z"/></g><path class="cls-2" d="M338.24,408.23a10.77,10.77,0,1,1-21.54,0c0-6,10.77-20.8,10.77-20.8S338.24,402.28,338.24,408.23Z"/><polygon class="cls-5" points="294.3 426.31 309.07 434.29 323.84 426.31 323.84 410.25 309.18 402.17 294.3 410.25 294.3 426.31"/><polygon class="cls-6" points="309.18 434.29 309.08 418.38 294.32 410.32 294.32 426.33 309.18 434.29"/><polygon class="cls-9" points="314.42 431.37 314.45 420.81 319.5 418.05 319.5 428.65 314.42 431.37"/><polygon class="cls-15" points="294.3 426.31 309.07 434.29 323.84 426.31 323.84 410.25 309.08 402.27 294.3 410.25 294.3 426.31"/><polygon class="cls-5" points="552.19 441.71 519.69 459.27 487.19 441.71 487.19 430.63 519.45 412.85 552.19 430.63 552.19 441.71"/><polygon class="cls-5" points="519.45 459.27 519.66 448.52 552.15 430.79 552.15 441.77 519.45 459.27"/><polygon class="cls-6" points="519.69 459.25 519.68 448.52 487.19 430.79 487.19 441.77 519.69 459.25"/><polygon class="cls-7" points="552.19 441.71 519.69 459.27 487.19 441.71 487.19 430.63 519.66 413.07 552.19 430.63 552.19 441.71"/><polygon class="cls-5" points="509.19 421.45 516.29 425.29 523.39 421.45 523.39 391.31 516.35 387.43 509.19 391.31 509.19 421.45"/><polygon class="cls-6" points="516.35 425.29 516.3 395.22 509.2 391.35 509.2 421.46 516.35 425.29"/><polygon class="cls-7" points="509.19 421.45 516.29 425.29 523.39 421.45 523.39 391.31 516.3 387.47 509.19 391.31 509.19 421.45"/><polygon class="cls-5" points="497.71 427.37 504.81 431.21 511.92 427.37 511.92 397.23 504.87 393.35 497.71 397.23 497.71 427.37"/><polygon class="cls-6" points="504.87 431.21 504.82 401.14 497.72 397.27 497.72 427.38 504.87 431.21"/><polygon class="cls-7" points="497.71 427.37 504.81 431.21 511.92 427.37 511.92 397.23 504.82 393.39 497.71 397.23 497.71 427.37"/><rect class="cls-9" x="500.22" y="424.94" width="1.53" height="8.82" rx="0.77" transform="translate(1001.98 858.69) rotate(-180)"/><rect class="cls-16" x="495.94" y="415.9" width="10.09" height="14.16" rx="5.05" transform="translate(1001.98 845.96) rotate(-180)"/><rect class="cls-9" x="513.51" y="432.82" width="1.53" height="8.82" rx="0.77" transform="translate(1028.55 874.45) rotate(180)"/><rect class="cls-16" x="509.23" y="423.78" width="10.09" height="14.16" rx="5.05" transform="translate(1028.55 861.72) rotate(-180)"/><polygon class="cls-5" points="285.56 533.19 318.06 550.75 350.56 533.19 350.56 522.1 318.3 504.32 285.56 522.1 285.56 533.19"/><polygon class="cls-6" points="318.3 550.75 318.08 539.99 285.6 522.27 285.6 533.24 318.3 550.75"/><polygon class="cls-5" points="318.08 550.7 318.07 539.99 350.56 522.27 350.56 533.24 318.08 550.7"/><polygon class="cls-7" points="285.56 533.19 318.06 550.75 350.56 533.19 350.56 522.1 318.08 504.54 285.56 522.1 285.56 533.19"/><rect class="cls-9" x="318.11" y="496.84" width="1.87" height="14.07" rx="0.94"/><rect class="cls-14" x="312.51" y="484.7" width="13.08" height="18.35" rx="6.2"/><path class="cls-17" d="M335.19,517.92l-7.35,4a4.26,4.26,0,0,1-4.07,0l-7.36-4a4.28,4.28,0,0,1-2.24-3.76V511a11.63,11.63,0,0,1,6.1-10.23h0a11.61,11.61,0,0,1,11.05,0h0A11.63,11.63,0,0,1,337.44,511v3.17A4.27,4.27,0,0,1,335.19,517.92Z"/><path class="cls-9" d="M321.59,520.69l0-6.38a3.25,3.25,0,0,0-1.7-2.86h0a1.54,1.54,0,0,0-2.28,1.35v5.75Z"/><rect class="cls-9" x="308.16" y="499.02" width="1.87" height="14.07" rx="0.94"/><rect class="cls-14" x="302.55" y="486.88" width="13.08" height="18.35" rx="6.2"/><rect class="cls-4" x="317.15" y="487.51" width="7.34" height="10.3" rx="3.48"/><rect class="cls-4" x="307.24" y="490.16" width="7.2" height="10.11" rx="3.41"/><ellipse class="cls-10" cx="327.61" cy="507.04" rx="5.93" ry="5.65"/><rect class="cls-9" x="336.4" y="515.89" width="1.53" height="8.82" rx="0.77"/><rect class="cls-14" x="332.12" y="506.85" width="10.09" height="14.16" rx="5.05"/><rect class="cls-4" x="335.47" y="509.78" width="5.31" height="7.74" rx="2.56"/><circle class="cls-18" cx="581" cy="707.89" r="6"/><circle class="cls-18" cx="611.27" cy="692.04" r="6"/><circle class="cls-18" cx="641.54" cy="676.2" r="6"/><circle class="cls-18" cx="671.81" cy="660.35" r="6"/><circle class="cls-18" cx="702.08" cy="644.5" r="6"/><circle class="cls-18" cx="732.35" cy="628.65" r="6"/><circle class="cls-18" cx="762.62" cy="612.81" r="6"/><circle class="cls-18" cx="792.89" cy="596.96" r="6"/><circle class="cls-18" cx="823.16" cy="581.11" r="6"/><circle class="cls-18" cx="853.43" cy="565.26" r="6"/><polygon class="cls-5" points="688.92 649.81 715.7 664.28 742.48 649.81 742.48 620.69 715.9 606.03 688.92 620.69 688.92 649.81"/><polygon class="cls-6" points="715.9 664.28 715.73 635.43 688.96 620.82 688.96 649.85 715.9 664.28"/><polygon class="cls-5" points="715.54 664.28 715.71 635.43 742.48 620.82 742.48 649.85 715.54 664.28"/><polygon class="cls-7" points="688.92 649.81 715.7 664.28 742.48 649.81 742.48 620.69 715.73 606.22 688.92 620.69 688.92 649.81"/><ellipse class="cls-19" cx="713.12" cy="535.97" rx="60.45" ry="45.7" transform="translate(-145.85 776.77) rotate(-52.59)"/><ellipse class="cls-20" cx="720.43" cy="540.73" rx="60.45" ry="45.7" transform="translate(-146.75 784.45) rotate(-52.59)"/><ellipse class="cls-21" cx="721.02" cy="540.32" rx="52.65" ry="37.78" transform="translate(-146.2 784.75) rotate(-52.59)"/><g id="qk1lAn"><path class="cls-22" d="M702.43,546.34a.19.19,0,0,0,.12,0c.43-.33.87-.64,1.3-1l6.14-5,10.49-8.57,0,0c0,.1,0,.2,0,.3q0,10.47,0,20.95a3.65,3.65,0,0,0,.12.66,1.78,1.78,0,0,1-.57,0q-8.82-3.57-17.62-7.17Z"/><path class="cls-22" d="M720.49,506.47a4.23,4.23,0,0,1,.33.41l17.4,28.81c.08.14.15.29.22.44-1.34-.31-2.7-.6-4-.92l-13.89-3.44,0,0q0-5.81,0-11.62,0-6.81,0-13.62Z"/><path class="cls-9" d="M720.52,531.77l13.89,3.44c1.33.32,2.69.61,4,.92a1.8,1.8,0,0,1-.23.46l-17.47,17-.12.08a3.65,3.65,0,0,1-.12-.66q0-10.47,0-20.95C720.5,532,720.51,531.87,720.52,531.77Z"/><path class="cls-23" d="M720.5,575c-.57-.71-1.14-1.41-1.69-2.15L703,551.31a1.46,1.46,0,0,1-.3-.71l1.2.47q7.84,3.2,15.69,6.39a7.94,7.94,0,0,0,1,.24,7.8,7.8,0,0,0-.12.94C720.49,564.08,720.5,569.51,720.5,575Z"/><path class="cls-22" d="M720.5,575c0-5.44,0-10.87,0-16.31a7.8,7.8,0,0,1,.12-.94l17.56-17.09.09.1c-.09.19-.16.39-.26.57l-17.19,33.17C720.73,574.62,720.61,574.78,720.5,575Z"/><path class="cls-23" d="M720.51,506.5q0,6.81,0,13.62,0,5.82,0,11.62L710,540.31l-6.14,5c-.43.35-.87.66-1.3,1,1.2-2.71,2.39-5.41,3.6-8.11q7-15.47,13.92-30.91A8.62,8.62,0,0,1,720.51,506.5Z"/></g></g></svg>