<svg id="Layer_1" data-name="Layer 1" xmlns="http://www.w3.org/2000/svg" xmlns:xlink="http://www.w3.org/1999/xlink" viewBox="0 0 870 740"><defs><style>.cls-1,.cls-14{fill:#cceffc;}.cls-2{fill:#99dff9;}.cls-12,.cls-3{fill:#fff;}.cls-4{fill:#e0f5fd;}.cls-5,.cls-6,.cls-9{fill:#00aeef;}.cls-11,.cls-12,.cls-13,.cls-14,.cls-5,.cls-7,.cls-9{stroke:#00aeef;stroke-width:2px;}.cls-12,.cls-13,.cls-14,.cls-5,.cls-7{stroke-miterlimit:10;}.cls-11,.cls-7{fill:none;}.cls-8{fill:url(#linear-gradient);}.cls-11,.cls-9{stroke-linejoin:round;}.cls-10{fill:#ebf9fe;}.cls-13{fill:#66cef5;}.cls-15{fill:#b5e8fa;}</style><linearGradient id="linear-gradient" x1="141.64" y1="676.01" x2="176.88" y2="611.42" gradientUnits="userSpaceOnUse"><stop offset="0" stop-color="#cceffc"/><stop offset="1" stop-color="#00aeef"/></linearGradient></defs><title>Wallets1</title><rect class="cls-1" width="870" height="740"/><rect class="cls-2" x="188.26" y="143.59" width="614.53" height="411.2"/><rect class="cls-3" x="210.21" y="121.64" width="614.53" height="411.2"/><rect class="cls-4" x="311.03" y="166.03" width="514.17" height="366.69"/><rect class="cls-5" x="210.21" y="121.64" width="614.53" height="23.08"/><path class="cls-6" d="M391.21,217.21,394.08,202h4.38l-4.73,21.33h-4.42l-3.47-14.27-3.48,14.27h-4.42L373.21,202h4.38l2.88,15.15L384,202h3.72Z"/><path class="cls-6" d="M409.26,223.36a4.67,4.67,0,0,1-.43-1.42,5.12,5.12,0,0,1-4,1.71,5.67,5.67,0,0,1-3.86-1.34,4.35,4.35,0,0,1-1.53-3.4,4.5,4.5,0,0,1,1.87-3.87,9.23,9.23,0,0,1,5.4-1.36h2v-.91a2.61,2.61,0,0,0-.57-1.76,2.21,2.21,0,0,0-1.78-.66,2.51,2.51,0,0,0-1.67.51,1.76,1.76,0,0,0-.61,1.41H399.8a4.28,4.28,0,0,1,.84-2.55,5.69,5.69,0,0,1,2.41-1.84,8.78,8.78,0,0,1,3.48-.66,6.9,6.9,0,0,1,4.65,1.47,5.15,5.15,0,0,1,1.73,4.14v6.87a7.57,7.57,0,0,0,.63,3.41v.25Zm-3.5-3a3.65,3.65,0,0,0,1.73-.41,2.82,2.82,0,0,0,1.17-1.12v-2.73h-1.58c-2.12,0-3.25.74-3.39,2.2v.25a1.68,1.68,0,0,0,.55,1.3A2.18,2.18,0,0,0,405.76,220.41Z"/><path class="cls-6" d="M420.63,223.36h-4.25v-22.5h4.25Z"/><path class="cls-6" d="M428.58,223.36h-4.25v-22.5h4.25Z"/><path class="cls-6" d="M439.36,223.65a7.78,7.78,0,0,1-5.68-2.14,7.58,7.58,0,0,1-2.19-5.69v-.42a9.46,9.46,0,0,1,.93-4.26,6.72,6.72,0,0,1,2.61-2.91,7.43,7.43,0,0,1,3.86-1,6.56,6.56,0,0,1,5.12,2.05,8.3,8.3,0,0,1,1.87,5.81v1.73H435.79A3.91,3.91,0,0,0,437,219.3a3.73,3.73,0,0,0,2.62.94,4.57,4.57,0,0,0,3.82-1.77l2.08,2.33a6.33,6.33,0,0,1-2.58,2.1A8.47,8.47,0,0,1,439.36,223.65Zm-.48-13a2.66,2.66,0,0,0-2.05.85,4.49,4.49,0,0,0-1,2.45h5.89v-.34a3.17,3.17,0,0,0-.76-2.19A2.75,2.75,0,0,0,438.88,210.63Z"/><path class="cls-6" d="M453.35,203.61v3.9h2.71v3.11h-2.71v7.91a1.88,1.88,0,0,0,.34,1.26,1.7,1.7,0,0,0,1.29.38,6.57,6.57,0,0,0,1.24-.11v3.21a8.49,8.49,0,0,1-2.56.38q-4.46,0-4.54-4.5v-8.53H446.8v-3.11h2.32v-3.9Z"/><path class="cls-6" d="M467,219a1.34,1.34,0,0,0-.77-1.22,8.43,8.43,0,0,0-2.47-.8c-3.76-.79-5.65-2.39-5.65-4.81a4.35,4.35,0,0,1,1.75-3.52,7.08,7.08,0,0,1,4.58-1.41,7.56,7.56,0,0,1,4.82,1.42,4.46,4.46,0,0,1,1.81,3.69h-4.23a2,2,0,0,0-.58-1.5,2.5,2.5,0,0,0-1.84-.6,2.54,2.54,0,0,0-1.65.49,1.52,1.52,0,0,0-.59,1.23,1.28,1.28,0,0,0,.67,1.13,6.73,6.73,0,0,0,2.25.75,18.83,18.83,0,0,1,2.66.71q3.36,1.23,3.36,4.26a4.13,4.13,0,0,1-1.86,3.51,8,8,0,0,1-4.81,1.34,8.28,8.28,0,0,1-3.53-.71,5.92,5.92,0,0,1-2.43-1.95,4.54,4.54,0,0,1-.88-2.67h4a2.21,2.21,0,0,0,.83,1.73,3.32,3.32,0,0,0,2.08.6,3.07,3.07,0,0,0,1.84-.46A1.45,1.45,0,0,0,467,219Z"/><path class="cls-6" d="M480.65,215.32a9.58,9.58,0,0,1,1.67-5.91,5.4,5.4,0,0,1,4.55-2.19,4.84,4.84,0,0,1,3.82,1.73v-8.09h4.25v22.5h-3.83l-.2-1.69a5,5,0,0,1-4.07,2,5.36,5.36,0,0,1-4.49-2.2A9.86,9.86,0,0,1,480.65,215.32Zm4.24.3a6.38,6.38,0,0,0,.77,3.43,2.54,2.54,0,0,0,2.26,1.19,2.83,2.83,0,0,0,2.77-1.66v-6.29a2.79,2.79,0,0,0-2.74-1.66Q484.89,210.63,484.89,215.62Z"/><path class="cls-6" d="M507.4,223.36a5,5,0,0,1-.42-1.42,5.14,5.14,0,0,1-4,1.71,5.67,5.67,0,0,1-3.86-1.34,4.35,4.35,0,0,1-1.53-3.4,4.48,4.48,0,0,1,1.87-3.87,9.18,9.18,0,0,1,5.39-1.36h1.95v-.91a2.65,2.65,0,0,0-.56-1.76,2.22,2.22,0,0,0-1.78-.66,2.55,2.55,0,0,0-1.68.51,1.79,1.79,0,0,0-.61,1.41h-4.23a4.23,4.23,0,0,1,.85-2.55,5.72,5.72,0,0,1,2.4-1.84,8.86,8.86,0,0,1,3.49-.66,6.93,6.93,0,0,1,4.65,1.47,5.14,5.14,0,0,1,1.72,4.14v6.87a7.57,7.57,0,0,0,.63,3.41v.25Zm-3.5-3a3.62,3.62,0,0,0,1.73-.41,2.7,2.7,0,0,0,1.17-1.12v-2.73h-1.58c-2.12,0-3.25.74-3.38,2.2l0,.25a1.69,1.69,0,0,0,.56,1.3A2.17,2.17,0,0,0,503.9,220.41Z"/><path class="cls-6" d="M522.89,219a1.35,1.35,0,0,0-.77-1.22,8.65,8.65,0,0,0-2.47-.8q-5.65-1.19-5.66-4.81a4.37,4.37,0,0,1,1.75-3.52,7.09,7.09,0,0,1,4.58-1.41,7.6,7.6,0,0,1,4.83,1.42,4.49,4.49,0,0,1,1.81,3.69h-4.24a2,2,0,0,0-.58-1.5,2.46,2.46,0,0,0-1.83-.6,2.57,2.57,0,0,0-1.66.49,1.52,1.52,0,0,0-.58,1.23,1.29,1.29,0,0,0,.66,1.13,6.9,6.9,0,0,0,2.25.75,18.64,18.64,0,0,1,2.67.71q3.35,1.23,3.35,4.26a4.13,4.13,0,0,1-1.86,3.51,8,8,0,0,1-4.8,1.34,8.29,8.29,0,0,1-3.54-.71,5.82,5.82,0,0,1-2.42-1.95,4.47,4.47,0,0,1-.88-2.67h4a2.22,2.22,0,0,0,.84,1.73,3.3,3.3,0,0,0,2.08.6,3,3,0,0,0,1.83-.46A1.43,1.43,0,0,0,522.89,219Z"/><path class="cls-6" d="M533.86,209.24a5.26,5.26,0,0,1,4.23-2c3.44,0,5.18,2,5.23,6v10.15h-4.23V213.3a3,3,0,0,0-.59-2,2.53,2.53,0,0,0-2-.65,2.86,2.86,0,0,0-2.69,1.44v11.29h-4.24v-22.5h4.24Z"/><path class="cls-6" d="M560.8,215.58a9.62,9.62,0,0,1-1.63,5.94,5.38,5.38,0,0,1-4.54,2.13,5,5,0,0,1-4.12-2l-.19,1.69h-3.81v-22.5h4.24v8.07a4.81,4.81,0,0,1,3.85-1.71,5.44,5.44,0,0,1,4.55,2.13,9.6,9.6,0,0,1,1.65,6Zm-4.24-.32a6.32,6.32,0,0,0-.76-3.52,2.57,2.57,0,0,0-2.27-1.11,2.78,2.78,0,0,0-2.78,1.66v6.27a2.82,2.82,0,0,0,2.81,1.68,2.62,2.62,0,0,0,2.7-2A10.7,10.7,0,0,0,556.56,215.26Z"/><path class="cls-6" d="M562.74,215.29a9.54,9.54,0,0,1,.91-4.21,6.64,6.64,0,0,1,2.62-2.85,7.55,7.55,0,0,1,4-1,7.23,7.23,0,0,1,5.24,2,7.91,7.91,0,0,1,2.26,5.33l0,1.09a8.27,8.27,0,0,1-2,5.85,7.9,7.9,0,0,1-10.93,0,8.46,8.46,0,0,1-2-6Zm4.24.3a5.86,5.86,0,0,0,.85,3.45,3,3,0,0,0,4.83,0,6.47,6.47,0,0,0,.87-3.78,5.82,5.82,0,0,0-.87-3.43,2.81,2.81,0,0,0-2.43-1.22,2.74,2.74,0,0,0-2.4,1.21A6.58,6.58,0,0,0,567,215.59Z"/><path class="cls-6" d="M589.55,223.36a4.68,4.68,0,0,1-.42-1.42,5.14,5.14,0,0,1-4,1.71,5.65,5.65,0,0,1-3.86-1.34,4.35,4.35,0,0,1-1.53-3.4A4.49,4.49,0,0,1,581.6,215a9.23,9.23,0,0,1,5.4-1.36h2v-.91a2.65,2.65,0,0,0-.56-1.76,2.22,2.22,0,0,0-1.78-.66,2.52,2.52,0,0,0-1.68.51,1.76,1.76,0,0,0-.61,1.41h-4.23a4.23,4.23,0,0,1,.85-2.55,5.66,5.66,0,0,1,2.4-1.84,8.86,8.86,0,0,1,3.49-.66,6.93,6.93,0,0,1,4.65,1.47,5.17,5.17,0,0,1,1.72,4.14v6.87a7.57,7.57,0,0,0,.63,3.41v.25Zm-3.5-3a3.62,3.62,0,0,0,1.73-.41,2.7,2.7,0,0,0,1.17-1.12v-2.73h-1.58c-2.12,0-3.25.74-3.39,2.2v.25a1.69,1.69,0,0,0,.56,1.3A2.17,2.17,0,0,0,586.05,220.41Z"/><path class="cls-6" d="M605.36,211.48a11.37,11.37,0,0,0-1.53-.12c-1.6,0-2.65.54-3.15,1.63v10.37h-4.23V207.51h4l.12,1.89a3.9,3.9,0,0,1,3.53-2.18,4.34,4.34,0,0,1,1.32.19Z"/><path class="cls-6" d="M606.46,215.32a9.57,9.57,0,0,1,1.66-5.91,5.4,5.4,0,0,1,4.55-2.19,4.84,4.84,0,0,1,3.82,1.73v-8.09h4.25v22.5h-3.83l-.2-1.69a5,5,0,0,1-4.07,2,5.37,5.37,0,0,1-4.49-2.2A9.86,9.86,0,0,1,606.46,215.32Zm4.23.3a6.29,6.29,0,0,0,.78,3.43,2.51,2.51,0,0,0,2.25,1.19,2.83,2.83,0,0,0,2.77-1.66v-6.29a2.79,2.79,0,0,0-2.74-1.66Q610.69,210.63,610.69,215.62Z"/><rect class="cls-7" x="210.21" y="121.64" width="614.53" height="411.2"/><rect class="cls-6" x="225.45" y="166.03" width="69.32" height="7.69"/><polygon class="cls-8" points="8.89 612.27 176.47 704.5 343.94 612.27 176.37 521.36 8.89 612.27"/><polygon class="cls-9" points="216.73 567.63 101.89 629.94 160.33 661.39 275.16 599.08 216.73 567.63"/><polygon class="cls-2" points="217.31 680.36 217.25 625.39 50.8 535.58 50.8 590.81 217.31 680.36"/><path class="cls-10" d="M217.31,680.36V625.27L359.72,548a16.86,16.86,0,0,1,24.94,14.71v8.42a32.64,32.64,0,0,1-17.37,28.81Z"/><path class="cls-3" d="M375,547.56a14.55,14.55,0,0,0-1.65-.89,36584208342734.83,36584208342734.83,0,0,1-3.3-1.78,18.61,18.61,0,0,0-1.65-.89,17.23,17.23,0,0,0-1.64-.88,16.49,16.49,0,0,0-1.65-.89c-.54-.33-1.09-.62-1.65-.89a16.33,16.33,0,0,0-1.65-.89,18.61,18.61,0,0,0-1.65-.89,16.26,16.26,0,0,0-1.65-.88,14.55,14.55,0,0,0-1.65-.89,17.32,17.32,0,0,0-1.64-.89c-.54-.33-1.09-.62-1.65-.89s-1.09-.62-1.65-.89a16.26,16.26,0,0,0-1.65-.88,14.55,14.55,0,0,0-1.65-.89,36584208343827.05,36584208343827.05,0,0,0-3.3-1.78c-.53-.32-1.08-.62-1.64-.89s-1.09-.62-1.65-.88a16.49,16.49,0,0,0-1.65-.89,36584208343813.92,36584208343813.92,0,0,0-3.3-1.78,18.61,18.61,0,0,0-1.65-.89,16.26,16.26,0,0,0-1.65-.88,15.32,15.32,0,0,0-1.64-.89c-.54-.33-1.09-.62-1.65-.89s-1.09-.62-1.65-.89a18.61,18.61,0,0,0-1.65-.89,16.26,16.26,0,0,0-1.65-.88,14.55,14.55,0,0,0-1.65-.89,16.33,16.33,0,0,0-1.65-.89,17.32,17.32,0,0,0-1.64-.89c-.54-.32-1.09-.62-1.65-.89s-1.09-.62-1.65-.88a14.55,14.55,0,0,0-1.65-.89,36584208343319.45,36584208343319.45,0,0,1-3.3-1.78,18.61,18.61,0,0,0-1.65-.89,17.23,17.23,0,0,0-1.64-.88,16.49,16.49,0,0,0-1.65-.89c-.54-.33-1.09-.62-1.65-.89a16.33,16.33,0,0,0-1.65-.89,18.61,18.61,0,0,0-1.65-.89,16.26,16.26,0,0,0-1.65-.88,14.55,14.55,0,0,0-1.65-.89,17.32,17.32,0,0,0-1.64-.89c-.54-.33-1.09-.62-1.65-.89s-1.09-.62-1.65-.89a16.26,16.26,0,0,0-1.65-.88,14.55,14.55,0,0,0-1.65-.89,36584208342863.49,36584208342863.49,0,0,1-3.3-1.78c-.53-.32-1.08-.62-1.64-.89s-1.09-.62-1.65-.88a36584208343413.89,36584208343413.89,0,0,0-3.3-1.78,16.33,16.33,0,0,0-1.65-.89,18.61,18.61,0,0,0-1.65-.89,16.26,16.26,0,0,0-1.65-.88,15.32,15.32,0,0,0-1.64-.89c-.54-.33-1.09-.62-1.65-.89s-1.09-.62-1.65-.89a18.61,18.61,0,0,0-1.65-.89,16.26,16.26,0,0,0-1.65-.88,14.55,14.55,0,0,0-1.65-.89,16.33,16.33,0,0,0-1.65-.89,17.32,17.32,0,0,0-1.64-.89c-.54-.32-1.09-.62-1.65-.89s-1.09-.62-1.65-.88a14.55,14.55,0,0,0-1.65-.89,73168416686986.12,73168416686986.12,0,0,0-3.3-1.78,18.61,18.61,0,0,0-1.65-.89,17.23,17.23,0,0,0-1.64-.88,16.49,16.49,0,0,0-1.65-.89c-.54-.33-1.09-.62-1.65-.89a16.33,16.33,0,0,0-1.65-.89,18.61,18.61,0,0,0-1.65-.89,397.82,397.82,0,0,1-3.3-1.77,17.32,17.32,0,0,0-1.64-.89c-.54-.33-1.09-.62-1.65-.89s-1.09-.62-1.65-.89a17.39,17.39,0,0,0-1.65-.88,14.55,14.55,0,0,0-1.65-.89,16.33,16.33,0,0,0-1.65-.89,16.33,16.33,0,0,0-1.65-.89c-.53-.32-1.08-.62-1.64-.89s-1.09-.62-1.65-.88a73168416686257,73168416686257,0,0,1-3.3-1.78,16.33,16.33,0,0,0-1.65-.89,18.61,18.61,0,0,0-1.65-.89,16.26,16.26,0,0,0-1.65-.88,17.32,17.32,0,0,0-1.64-.89c-.54-.33-1.09-.62-1.65-.89s-1.09-.62-1.65-.89a18.61,18.61,0,0,0-1.65-.89,16.26,16.26,0,0,0-1.65-.88,16.81,16.81,0,0,0-16.92-.46L50.8,535.58v55.09l1.65-.89v1.78l1.65-.89v1.77l1.65-.88v1.77l1.65-.88v1.77l1.64-.88v1.77l1.65-.89V596l1.65-.89v1.77L64,596v1.77l1.65-.88v1.77l1.65-.88v1.77l1.65-.89v1.78l1.64-.89v1.77l1.65-.88v1.77l1.65-.88v1.77l1.65-.88V604l1.65-.89v1.78l1.65-.89v1.77l1.65-.88v1.77l1.64-.88v1.77l1.65-.88v1.77l1.65-.89v1.78l1.65-.89v1.77l1.65-.88v1.77l1.65-.88V612L92,611.1v1.77l1.64-.89v1.78l1.65-.89v1.77l1.65-.88v1.77l1.65-.88v1.77l1.65-.88v1.77l1.65-.89v1.78l1.65-.89v1.77l1.64-.88V620l1.65-.88v1.77l1.65-.88v1.77l1.65-.89v1.78l1.65-.89v1.77l1.65-.88v1.77l1.65-.88v1.77l1.64-.88v1.77l1.65-.89v1.78l1.65-.89V628l1.65-.88v1.77l1.65-.88v1.77l1.65-.88v1.77l1.65-.89v1.78l1.64-.89v1.77l1.65-.88v1.77l1.65-.88v1.77l1.65-.88v1.77l1.65-.89V636l1.65-.89v1.77l1.65-.88v1.77l1.64-.88v1.77l1.65-.88v1.77l1.65-.89v1.78l1.65-.89v1.77l1.65-.88v1.77l1.65-.88v1.77l1.65-.88V644l1.64-.89v1.78L153,644v1.77l1.65-.88v1.77l1.65-.88v1.77l1.65-.88v1.77l1.65-.89v1.78l1.65-.89v1.77l1.64-.88v1.77l1.65-.88v1.77l1.65-.88v1.77l1.65-.89v1.78l1.65-.89v1.77l1.65-.88v1.77l1.65-.88v1.77l1.64-.88v1.77l1.65-.89v1.78l1.65-.89V659l1.65-.88v1.77l1.65-.88v1.77l1.65-.88v1.77l1.65-.89v1.78l1.64-.89v1.77l1.65-.88v1.77l1.65-.88v1.77l1.65-.88v1.77l1.65-.89V667l1.65-.89v1.77l1.65-.88v1.77l1.64-.88v1.77l1.65-.88v1.77l1.65-.89v1.78l1.65-.89v1.77l1.65-.88v1.77l1.65-.88v1.77l1.65-.88V675l1.64-.89v1.78l1.65-.89v1.77l1.65-.88v1.77l1.65-.88v1.77l1.65-.88v1.77l1.65-.89v1.78l150-80.43a32.64,32.64,0,0,0,17.37-28.81V562.7A16.63,16.63,0,0,0,375,547.56Z"/><polygon class="cls-2" points="217.31 680.36 217.25 625.39 50.8 535.58 50.8 590.81 217.31 680.36"/><path class="cls-10" d="M217.31,680.36V625.27L359.72,548a16.86,16.86,0,0,1,24.94,14.71v8.42a32.64,32.64,0,0,1-17.37,28.81Z"/><path class="cls-11" d="M375,547.56a14.55,14.55,0,0,0-1.65-.89,36584208342734.83,36584208342734.83,0,0,1-3.3-1.78,18.61,18.61,0,0,0-1.65-.89,17.23,17.23,0,0,0-1.64-.88,16.49,16.49,0,0,0-1.65-.89c-.54-.33-1.09-.62-1.65-.89a16.33,16.33,0,0,0-1.65-.89,18.61,18.61,0,0,0-1.65-.89,16.26,16.26,0,0,0-1.65-.88,14.55,14.55,0,0,0-1.65-.89,17.32,17.32,0,0,0-1.64-.89c-.54-.33-1.09-.62-1.65-.89s-1.09-.62-1.65-.89a16.26,16.26,0,0,0-1.65-.88,14.55,14.55,0,0,0-1.65-.89,36584208343827.05,36584208343827.05,0,0,0-3.3-1.78c-.53-.32-1.08-.62-1.64-.89s-1.09-.62-1.65-.88a16.49,16.49,0,0,0-1.65-.89,36584208343813.92,36584208343813.92,0,0,0-3.3-1.78,18.61,18.61,0,0,0-1.65-.89,16.26,16.26,0,0,0-1.65-.88,15.32,15.32,0,0,0-1.64-.89c-.54-.33-1.09-.62-1.65-.89s-1.09-.62-1.65-.89a18.61,18.61,0,0,0-1.65-.89,16.26,16.26,0,0,0-1.65-.88,14.55,14.55,0,0,0-1.65-.89,16.33,16.33,0,0,0-1.65-.89,17.32,17.32,0,0,0-1.64-.89c-.54-.32-1.09-.62-1.65-.89s-1.09-.62-1.65-.88a14.55,14.55,0,0,0-1.65-.89,36584208343319.45,36584208343319.45,0,0,1-3.3-1.78,18.61,18.61,0,0,0-1.65-.89,17.23,17.23,0,0,0-1.64-.88,16.49,16.49,0,0,0-1.65-.89c-.54-.33-1.09-.62-1.65-.89a16.33,16.33,0,0,0-1.65-.89,18.61,18.61,0,0,0-1.65-.89,16.26,16.26,0,0,0-1.65-.88,14.55,14.55,0,0,0-1.65-.89,17.32,17.32,0,0,0-1.64-.89c-.54-.33-1.09-.62-1.65-.89s-1.09-.62-1.65-.89a16.26,16.26,0,0,0-1.65-.88,14.55,14.55,0,0,0-1.65-.89,36584208342863.49,36584208342863.49,0,0,1-3.3-1.78c-.53-.32-1.08-.62-1.64-.89s-1.09-.62-1.65-.88a36584208343413.89,36584208343413.89,0,0,0-3.3-1.78,16.33,16.33,0,0,0-1.65-.89,18.61,18.61,0,0,0-1.65-.89,16.26,16.26,0,0,0-1.65-.88,15.32,15.32,0,0,0-1.64-.89c-.54-.33-1.09-.62-1.65-.89s-1.09-.62-1.65-.89a18.61,18.61,0,0,0-1.65-.89,16.26,16.26,0,0,0-1.65-.88,14.55,14.55,0,0,0-1.65-.89,16.33,16.33,0,0,0-1.65-.89,17.32,17.32,0,0,0-1.64-.89c-.54-.32-1.09-.62-1.65-.89s-1.09-.62-1.65-.88a14.55,14.55,0,0,0-1.65-.89,73168416686986.12,73168416686986.12,0,0,0-3.3-1.78,18.61,18.61,0,0,0-1.65-.89,17.23,17.23,0,0,0-1.64-.88,16.49,16.49,0,0,0-1.65-.89c-.54-.33-1.09-.62-1.65-.89a16.33,16.33,0,0,0-1.65-.89,18.61,18.61,0,0,0-1.65-.89,397.82,397.82,0,0,1-3.3-1.77,17.32,17.32,0,0,0-1.64-.89c-.54-.33-1.09-.62-1.65-.89s-1.09-.62-1.65-.89a17.39,17.39,0,0,0-1.65-.88,14.55,14.55,0,0,0-1.65-.89,16.33,16.33,0,0,0-1.65-.89,16.33,16.33,0,0,0-1.65-.89c-.53-.32-1.08-.62-1.64-.89s-1.09-.62-1.65-.88a73168416686257,73168416686257,0,0,1-3.3-1.78,16.33,16.33,0,0,0-1.65-.89,18.61,18.61,0,0,0-1.65-.89,16.26,16.26,0,0,0-1.65-.88,17.32,17.32,0,0,0-1.64-.89c-.54-.33-1.09-.62-1.65-.89s-1.09-.62-1.65-.89a18.61,18.61,0,0,0-1.65-.89,16.26,16.26,0,0,0-1.65-.88,16.81,16.81,0,0,0-16.92-.46L50.8,535.58h0v55.09h0v.14l164.86,88.66h0l1.65.88h0l150-80.42a32.64,32.64,0,0,0,17.37-28.81V562.7A16.63,16.63,0,0,0,375,547.56Z"/><path class="cls-3" d="M155.82,522l-53.93,29.26,58.44,31.45,44.57-24.19a20,20,0,0,0-.06-35.27l-2.49-1.34A49,49,0,0,0,155.82,522Z"/><ellipse class="cls-2" cx="181.55" cy="537.98" rx="20.59" ry="13.28"/><path class="cls-11" d="M50.8,535.58l166.51,89.69L359.72,548s8-5.44,15.28-.43"/><polygon class="cls-2" points="160.33 582.75 101.92 551.28 101.92 629.98 160.33 661.39 160.33 582.75"/><path class="cls-11" d="M204.84,523.28l-2.49-1.34a49,49,0,0,0-46.54.09l-53.92,29.26,0,0V630l58.41,31.41V582.75h0l44.57-24.19A20,20,0,0,0,204.84,523.28Z"/><ellipse class="cls-11" cx="181.55" cy="537.98" rx="20.59" ry="13.28"/><polygon class="cls-3" points="168.18 479.24 193.44 492.89 218.71 479.24 218.71 372.04 193.63 358.22 168.18 372.04 168.18 479.24"/><polygon class="cls-2" points="193.63 492.89 193.46 385.95 168.21 372.17 168.21 479.28 193.63 492.89"/><polygon class="cls-11" points="168.18 479.24 193.44 492.89 218.71 479.24 218.71 372.04 193.46 358.39 168.18 372.04 168.18 479.24"/><polygon class="cls-3" points="124.44 500.82 149.7 514.47 174.97 500.82 174.97 393.62 149.89 379.8 124.44 393.62 124.44 500.82"/><polygon class="cls-2" points="149.89 514.47 149.72 407.53 124.47 393.75 124.47 500.86 149.89 514.47"/><polygon class="cls-11" points="124.44 500.82 149.7 514.47 174.97 500.82 174.97 393.62 149.72 379.97 124.44 393.62 124.44 500.82"/><rect class="cls-6" x="230.09" y="460.96" width="7.85" height="45.19" rx="3.92" transform="matrix(-1, 0, 0, -1, 468.04, 967.12)"/><rect class="cls-12" x="208.16" y="414.68" width="51.71" height="72.54" rx="25.85" transform="translate(468.04 901.9) rotate(180)"/><rect class="cls-13" x="159.24" y="483.97" width="44.31" height="68.4" rx="22.16"/><circle class="cls-14" cx="180.82" cy="473.88" r="16.91"/><rect class="cls-13" x="279.31" y="503.24" width="23.08" height="35.63" rx="11.54" transform="translate(581.71 1042.12) rotate(-180)"/><circle class="cls-14" cx="291.1" cy="497.88" r="10.63"/><rect class="cls-14" x="238.03" y="545.4" width="23.08" height="35.63" rx="11.54" transform="translate(499.13 1126.44) rotate(180)"/><circle class="cls-12" cx="249.81" cy="540.05" r="10.63"/><path class="cls-6" d="M379.57,266.32h-3.94V269h4.63v1.65h-6.68v-10h6.66v1.67h-4.61v2.37h3.94Z"/><path class="cls-6" d="M389.09,262.36h-3v8.29H384v-8.29h-3v-1.67h8.11Z"/><path class="cls-6" d="M398.36,270.65h-2.05v-4.27h-4v4.27h-2.05v-10h2.05v4h4v-4h2.05Z"/><path class="cls-6" d="M405.43,264.06a2.48,2.48,0,0,1,2-.95c1.6,0,2.42.94,2.44,2.8v4.74h-2V266a1.41,1.41,0,0,0-.27-.94,1.19,1.19,0,0,0-.91-.3,1.34,1.34,0,0,0-1.26.67v5.27h-2v-10.5h2Z"/><path class="cls-6" d="M411,266.88a4.41,4.41,0,0,1,.42-2,3.11,3.11,0,0,1,1.23-1.33,3.48,3.48,0,0,1,1.84-.48A3.38,3.38,0,0,1,417,264a3.66,3.66,0,0,1,1,2.49l0,.51a3.89,3.89,0,0,1-1,2.73,3.71,3.71,0,0,1-5.11,0,4,4,0,0,1-1-2.79Zm2,.14a2.77,2.77,0,0,0,.39,1.61,1.43,1.43,0,0,0,2.26,0,3,3,0,0,0,.4-1.76,2.7,2.7,0,0,0-.4-1.6,1.41,1.41,0,0,0-2.26,0A3.13,3.13,0,0,0,413,267Z"/><path class="cls-6" d="M421.34,270.65h-2v-10.5h2Z"/><path class="cls-6" d="M422.66,266.9a4.5,4.5,0,0,1,.77-2.76,2.54,2.54,0,0,1,2.13-1,2.25,2.25,0,0,1,1.78.81v-3.77h2v10.5h-1.78l-.1-.79a2.3,2.3,0,0,1-1.9.92,2.5,2.5,0,0,1-2.09-1A4.59,4.59,0,0,1,422.66,266.9Zm2,.14a3,3,0,0,0,.37,1.6,1.17,1.17,0,0,0,1.05.55,1.32,1.32,0,0,0,1.29-.77v-2.94a1.3,1.3,0,0,0-1.28-.77C425.11,264.71,424.63,265.48,424.63,267Z"/><path class="cls-6" d="M430.84,261.34a1,1,0,0,1,.3-.73,1.28,1.28,0,0,1,1.62,0,1,1,0,0,1,.3.73,1,1,0,0,1-.31.74,1.12,1.12,0,0,1-.8.28,1.16,1.16,0,0,1-.81-.28A1,1,0,0,1,430.84,261.34Zm2.1,9.31h-2v-7.4h2Z"/><path class="cls-6" d="M436.39,263.25l.06.86a2.57,2.57,0,0,1,2.12-1,2.14,2.14,0,0,1,1.75.7,3.16,3.16,0,0,1,.59,2.06v4.78h-2v-4.74a1.31,1.31,0,0,0-.27-.92,1.21,1.21,0,0,0-.91-.28,1.35,1.35,0,0,0-1.25.71v5.23h-2v-7.4Z"/><path class="cls-6" d="M442.12,266.9a4.37,4.37,0,0,1,.81-2.75,2.63,2.63,0,0,1,2.18-1,2.29,2.29,0,0,1,1.9.84l.08-.7h1.79v7.15a3.2,3.2,0,0,1-.44,1.69,2.8,2.8,0,0,1-1.24,1.09,4.36,4.36,0,0,1-1.87.38,4,4,0,0,1-1.59-.33,2.84,2.84,0,0,1-1.17-.83l.88-1.21a2.29,2.29,0,0,0,1.79.83,1.69,1.69,0,0,0,1.22-.42,1.58,1.58,0,0,0,.44-1.19V270a2.28,2.28,0,0,1-1.8.77,2.61,2.61,0,0,1-2.16-1,4.3,4.3,0,0,1-.82-2.76Zm2,.14a2.7,2.7,0,0,0,.4,1.58,1.29,1.29,0,0,0,1.11.57,1.36,1.36,0,0,0,1.29-.68v-3.12a1.36,1.36,0,0,0-1.28-.68,1.29,1.29,0,0,0-1.12.58A3.08,3.08,0,0,0,444.1,267Z"/><path class="cls-6" d="M454.4,268.6a.65.65,0,0,0-.35-.57,4.14,4.14,0,0,0-1.16-.37c-1.75-.37-2.63-1.12-2.63-2.24a2,2,0,0,1,.81-1.65,3.31,3.31,0,0,1,2.14-.66,3.55,3.55,0,0,1,2.25.67,2.09,2.09,0,0,1,.85,1.72h-2a1,1,0,0,0-.27-.7,1.2,1.2,0,0,0-.86-.28,1.18,1.18,0,0,0-.77.23.71.71,0,0,0-.27.57.6.6,0,0,0,.31.53,3,3,0,0,0,1,.35,9.43,9.43,0,0,1,1.24.33,2.06,2.06,0,0,1,1.57,2,1.93,1.93,0,0,1-.87,1.64,3.73,3.73,0,0,1-2.24.62,4,4,0,0,1-1.66-.33,2.77,2.77,0,0,1-1.13-.91,2.12,2.12,0,0,1-.41-1.24h1.88a1,1,0,0,0,.39.8,1.51,1.51,0,0,0,1,.28,1.44,1.44,0,0,0,.85-.21A.66.66,0,0,0,454.4,268.6Z"/><path class="cls-6" d="M574.78,270.65V260.7h3.49a4.61,4.61,0,0,1,2.75.69,2.37,2.37,0,0,1,.93,2,2.25,2.25,0,0,1-.37,1.29,2.16,2.16,0,0,1-1.05.82,2.13,2.13,0,0,1,1.21.77,2.31,2.31,0,0,1,.44,1.42,2.65,2.65,0,0,1-.92,2.18,4.14,4.14,0,0,1-2.61.75Zm2.05-5.78h1.52c1,0,1.55-.44,1.55-1.24a1.16,1.16,0,0,0-.39-1,2.14,2.14,0,0,0-1.24-.29h-1.44Zm0,1.45V269h1.76a1.69,1.69,0,0,0,1.13-.34,1.2,1.2,0,0,0,.41-1c0-.91-.47-1.37-1.42-1.38Z"/><path class="cls-6" d="M591,262.36h-3v8.29h-2.05v-8.29h-3V260.7H591Z"/><path class="cls-6" d="M599.82,267.33a3.54,3.54,0,0,1-1.19,2.53,4.13,4.13,0,0,1-2.82.93,3.73,3.73,0,0,1-3-1.29,5.3,5.3,0,0,1-1.1-3.54v-.61a5.92,5.92,0,0,1,.51-2.53,3.78,3.78,0,0,1,1.44-1.68,4.54,4.54,0,0,1,5,.34,3.81,3.81,0,0,1,1.22,2.59h-2.05a2.08,2.08,0,0,0-.54-1.4,2,2,0,0,0-1.4-.43,1.73,1.73,0,0,0-1.54.74,4.11,4.11,0,0,0-.52,2.27V266a4.39,4.39,0,0,0,.49,2.36,1.71,1.71,0,0,0,1.54.74,2,2,0,0,0,1.42-.43,2,2,0,0,0,.53-1.35Z"/><path class="cls-6" d="M606.45,264.06a2.45,2.45,0,0,1,2-.94c1.61,0,2.42.93,2.44,2.79v4.74h-2V266a1.37,1.37,0,0,0-.28-.95,1.17,1.17,0,0,0-.91-.3,1.34,1.34,0,0,0-1.25.67v5.27h-2v-10.5h2Z"/><path class="cls-6" d="M612.05,266.88a4.41,4.41,0,0,1,.42-2,3.08,3.08,0,0,1,1.22-1.33,3.51,3.51,0,0,1,1.85-.47A3.35,3.35,0,0,1,618,264a3.67,3.67,0,0,1,1.06,2.49V267a3.85,3.85,0,0,1-.95,2.73,3.67,3.67,0,0,1-5.1,0,3.9,3.9,0,0,1-1-2.79Zm2,.14a2.69,2.69,0,0,0,.4,1.61,1.28,1.28,0,0,0,1.13.56,1.3,1.3,0,0,0,1.12-.55,3,3,0,0,0,.41-1.76,2.7,2.7,0,0,0-.41-1.6,1.4,1.4,0,0,0-2.25,0A3,3,0,0,0,614,267Z"/><path class="cls-6" d="M622.35,270.65h-2v-10.5h2Z"/><path class="cls-6" d="M623.67,266.9a4.44,4.44,0,0,1,.78-2.76,2.52,2.52,0,0,1,2.12-1,2.27,2.27,0,0,1,1.79.8v-3.77h2v10.5h-1.79l-.09-.79a2.32,2.32,0,0,1-1.9.93,2.54,2.54,0,0,1-2.1-1A4.65,4.65,0,0,1,623.67,266.9Zm2,.14a3,3,0,0,0,.36,1.6,1.17,1.17,0,0,0,1,.55,1.35,1.35,0,0,0,1.3-.77v-2.94a1.32,1.32,0,0,0-1.28-.77C626.13,264.71,625.65,265.48,625.65,267Z"/><path class="cls-6" d="M631.86,261.34a1,1,0,0,1,.29-.73,1.28,1.28,0,0,1,1.62,0,1,1,0,0,1,.3.73,1,1,0,0,1-.3.74,1.14,1.14,0,0,1-.81.28,1.12,1.12,0,0,1-.8-.28A1,1,0,0,1,631.86,261.34Zm2.09,9.31h-2v-7.4h2Z"/><path class="cls-6" d="M637.4,263.25l.06.86a2.59,2.59,0,0,1,2.13-1,2.16,2.16,0,0,1,1.75.69,3.22,3.22,0,0,1,.59,2.06v4.78h-2v-4.74a1.31,1.31,0,0,0-.27-.92,1.24,1.24,0,0,0-.91-.28,1.35,1.35,0,0,0-1.25.71v5.23h-2v-7.4Z"/><path class="cls-6" d="M643.14,266.9a4.42,4.42,0,0,1,.8-2.75,2.64,2.64,0,0,1,2.19-1A2.28,2.28,0,0,1,648,264l.08-.7h1.8v7.15a3.11,3.11,0,0,1-.45,1.69,2.75,2.75,0,0,1-1.24,1.09,4.19,4.19,0,0,1-1.87.38,4.13,4.13,0,0,1-1.58-.32,2.81,2.81,0,0,1-1.17-.84l.87-1.2a2.31,2.31,0,0,0,1.79.82,1.71,1.71,0,0,0,1.23-.42,1.58,1.58,0,0,0,.43-1.19V270a2.25,2.25,0,0,1-1.79.78,2.62,2.62,0,0,1-2.16-1.05,4.3,4.3,0,0,1-.82-2.76Zm2,.14a2.77,2.77,0,0,0,.4,1.58,1.29,1.29,0,0,0,1.11.57,1.36,1.36,0,0,0,1.29-.68v-3.12a1.35,1.35,0,0,0-1.27-.68,1.28,1.28,0,0,0-1.12.58A3.07,3.07,0,0,0,645.11,267Z"/><path class="cls-6" d="M655.42,268.6a.64.64,0,0,0-.36-.57,4.4,4.4,0,0,0-1.15-.37c-1.76-.37-2.64-1.12-2.64-2.24a2,2,0,0,1,.82-1.64,3.27,3.27,0,0,1,2.13-.66,3.54,3.54,0,0,1,2.25.66,2.06,2.06,0,0,1,.85,1.72h-2a1,1,0,0,0-.27-.7,1.17,1.17,0,0,0-.85-.28,1.21,1.21,0,0,0-.78.23.71.71,0,0,0-.27.57.6.6,0,0,0,.31.53,3.16,3.16,0,0,0,1,.35,9,9,0,0,1,1.24.33,2.05,2.05,0,0,1,1.57,2,1.93,1.93,0,0,1-.87,1.64,3.71,3.71,0,0,1-2.24.63,3.92,3.92,0,0,1-1.65-.34,2.7,2.7,0,0,1-1.13-.91,2,2,0,0,1-.41-1.24h1.87a1,1,0,0,0,.39.8,1.53,1.53,0,0,0,1,.28,1.48,1.48,0,0,0,.86-.21A.68.68,0,0,0,655.42,268.6Z"/><rect class="cls-3" x="373.34" y="279.75" width="187.45" height="2"/><rect class="cls-3" x="573.89" y="279.75" width="188.09" height="2"/><rect class="cls-3" x="372.7" y="443.3" width="188.09" height="75.37"/><rect class="cls-3" x="573.89" y="443.3" width="188.09" height="75.37"/><path class="cls-15" d="M432.22,442.92h-5.39l0-8.95a1.36,1.36,0,0,0-1.34-1.35l-37.64-.08v27.59l37.58.08a1.34,1.34,0,0,0,1.34-1.34l0-8.8h5.4a1.34,1.34,0,0,0,1.34-1.34v-4.47A1.34,1.34,0,0,0,432.22,442.92Z"/><path class="cls-6" d="M425.45,461.21h0l-38.58-.08V431.54l38.64.08a2.4,2.4,0,0,1,1.66.69,2.36,2.36,0,0,1,.68,1.66l0,7.95h4.4a2.34,2.34,0,0,1,2.33,2.35v4.47a2.34,2.34,0,0,1-2.34,2.34h-4.4l0,7.79A2.34,2.34,0,0,1,425.45,461.21Zm-36.58-2.08,36.58.08h0a.34.34,0,0,0,.34-.34l0-9.8h6.4a.3.3,0,0,0,.24-.1.34.34,0,0,0,.1-.24v-4.47a.34.34,0,0,0-.1-.25.34.34,0,0,0-.24-.1h-6.39l0-9.95a.35.35,0,0,0-.34-.35l-36.64-.08Z"/><rect class="cls-3" x="390.43" y="436.51" width="32.66" height="2"/><path class="cls-3" d="M390.43,442.88h32.66v14.88H390.64S389.94,442.38,390.43,442.88Z"/><path class="cls-3" d="M419.38,440.92l-31.51-8.38v27.59l30.82,8.2a1.35,1.35,0,0,0,1.69-1.3V442.22A1.35,1.35,0,0,0,419.38,440.92Z"/><path class="cls-6" d="M419,469.37a2.13,2.13,0,0,1-.61-.08l-30.82-8.2a1,1,0,0,1-.74-1V432.54a1,1,0,0,1,.39-.79,1,1,0,0,1,.87-.18L419.64,440h0a2.34,2.34,0,0,1,1.74,2.26V467a2.35,2.35,0,0,1-.92,1.86A2.3,2.3,0,0,1,419,469.37Zm-30.17-10,30.08,8a.31.31,0,0,0,.29-.06.33.33,0,0,0,.14-.27V442.22a.35.35,0,0,0-.26-.33l-30.25-8.05Z"/><path class="cls-15" d="M634.37,442.92H629l0-8.95a1.36,1.36,0,0,0-1.34-1.35L590,432.54v27.59l37.58.08a1.34,1.34,0,0,0,1.34-1.34l0-8.8h5.4a1.34,1.34,0,0,0,1.34-1.34v-4.47A1.34,1.34,0,0,0,634.37,442.92Z"/><path class="cls-6" d="M627.6,461.21h0L589,461.13V431.54l38.64.08a2.36,2.36,0,0,1,1.65.69A2.33,2.33,0,0,1,630,434l0,7.95h4.39a2.34,2.34,0,0,1,2.34,2.35v4.47a2.3,2.3,0,0,1-.69,1.66,2.22,2.22,0,0,1-1.66.68H630l0,7.79A2.34,2.34,0,0,1,627.6,461.21ZM591,459.13l36.58.08h0a.34.34,0,0,0,.34-.34l0-9.8h6.4a.34.34,0,0,0,.34-.34v-4.47a.34.34,0,0,0-.1-.25.36.36,0,0,0-.24-.1H628l0-9.95a.35.35,0,0,0-.35-.35L591,433.54Z"/><rect class="cls-3" x="592.58" y="436.51" width="32.66" height="2"/><path class="cls-3" d="M592.58,442.88h32.66v14.88H592.79S592.09,442.38,592.58,442.88Z"/><path class="cls-3" d="M621.53,440.92,590,432.54v27.59l30.82,8.2a1.35,1.35,0,0,0,1.69-1.3V442.22A1.35,1.35,0,0,0,621.53,440.92Z"/><path class="cls-6" d="M621.19,469.37a2.13,2.13,0,0,1-.61-.08l-30.82-8.2a1,1,0,0,1-.74-1V432.54a1,1,0,0,1,1.25-1L621.79,440h0a2.34,2.34,0,0,1,1.74,2.26V467a2.35,2.35,0,0,1-.92,1.86A2.3,2.3,0,0,1,621.19,469.37Zm-30.17-10,30.08,8a.31.31,0,0,0,.29-.06.33.33,0,0,0,.14-.27V442.22a.35.35,0,0,0-.26-.33L591,433.84Z"/><rect class="cls-2" x="373.34" y="302.51" width="87.18" height="14.21" rx="7.1"/><rect class="cls-2" x="473.61" y="302.51" width="87.18" height="14.21" rx="7.1"/><rect class="cls-2" x="373.34" y="326.48" width="87.18" height="14.21" rx="7.1"/><rect class="cls-2" x="473.61" y="326.48" width="87.18" height="14.21" rx="7.1"/><rect class="cls-2" x="574.21" y="302.51" width="87.18" height="14.21" rx="7.1"/><rect class="cls-2" x="674.49" y="302.51" width="87.18" height="14.21" rx="7.1"/><rect class="cls-2" x="574.21" y="326.48" width="87.18" height="14.21" rx="7.1"/><rect class="cls-2" x="674.49" y="326.48" width="87.18" height="14.21" rx="7.1"/><rect class="cls-2" x="373.34" y="361.77" width="87.18" height="7.36" rx="3.68"/><rect class="cls-2" x="473.61" y="361.77" width="87.18" height="7.36" rx="3.68"/><rect class="cls-2" x="574.21" y="361.77" width="87.18" height="7.36" rx="3.68"/><rect class="cls-2" x="674.49" y="361.77" width="87.18" height="7.36" rx="3.68"/><rect class="cls-2" x="373.34" y="381.18" width="87.18" height="7.36" rx="3.68"/><rect class="cls-2" x="473.61" y="381.18" width="87.18" height="7.36" rx="3.68"/><rect class="cls-2" x="574.21" y="381.18" width="87.18" height="7.36" rx="3.68"/><rect class="cls-2" x="674.49" y="381.18" width="87.18" height="7.36" rx="3.68"/></svg>